<mxfile host="app.diagrams.net" modified="2022-11-24T13:34:22.271Z" agent="5.0 (Windows NT 10.0; Win64; x64) AppleWebKit/537.36 (KHTML, like Gecko) Chrome/107.0.0.0 Safari/537.36" etag="bSC5hIkZcqbCankil6OM" version="20.5.1" type="github" pages="3">
  <diagram id="nQRE1pN4An59JL1PhJQr" name="Components">
    <mxGraphModel dx="1341" dy="802" grid="1" gridSize="10" guides="1" tooltips="1" connect="1" arrows="1" fold="1" page="1" pageScale="1" pageWidth="1100" pageHeight="850" math="0" shadow="0">
      <root>
        <mxCell id="0" />
        <mxCell id="1" parent="0" />
        <mxCell id="JdWYKXGBYEadQ7OB85lC-7" value="&lt;b&gt;&lt;font style=&quot;font-size: 18px;&quot;&gt;Private network&lt;/font&gt;&lt;/b&gt;" style="rounded=1;whiteSpace=wrap;html=1;fontSize=12;fillColor=#dae8fc;strokeColor=#6c8ebf;labelBackgroundColor=none;spacingLeft=0;fontColor=#FF1605;spacing=2;arcSize=3;spacingTop=0;spacingBottom=0;labelPosition=center;verticalLabelPosition=top;align=center;verticalAlign=bottom;" parent="1" vertex="1">
          <mxGeometry x="356.75" y="40" width="623.25" height="570" as="geometry" />
        </mxCell>
        <mxCell id="8wmPjM3-3fpsCXYut9wT-7" value="Distributed Cache" style="sketch=0;points=[];align=left;image;fontSize=11;image=img/lib/mscae/Cache_Redis_Product.svg;fontStyle=1;labelBackgroundColor=none;aspect=fixed;fontColor=#000000;labelPosition=right;verticalLabelPosition=middle;verticalAlign=middle;whiteSpace=wrap;spacing=5;" parent="1" vertex="1">
          <mxGeometry x="399.5" y="200" width="68" height="68" as="geometry" />
        </mxCell>
        <mxCell id="8wmPjM3-3fpsCXYut9wT-14" style="edgeStyle=orthogonalEdgeStyle;rounded=1;orthogonalLoop=1;jettySize=auto;html=1;exitX=1;exitY=0.5;exitDx=0;exitDy=0;exitPerimeter=0;startArrow=none;startFill=0;fontSize=12;fontStyle=0" parent="1" source="8wmPjM3-3fpsCXYut9wT-12" target="8wmPjM3-3fpsCXYut9wT-13" edge="1">
          <mxGeometry relative="1" as="geometry" />
        </mxCell>
        <UserObject label="https://api.{env}.callloop.com/webhook/{app}/{uuid}&#xa;?phoneNumber=&amp;firstName=&amp;lastName=&amp;email=" link="https://api.dev.callloop.com/webhook/Custom/d430d7a2-227b-4d33-bb28-f8da76dfe615?phoneNumber=+12025554444&amp;firstName=Jim&amp;lastName=Test&amp;email" id="8wmPjM3-3fpsCXYut9wT-12">
          <mxCell style="sketch=0;points=[[0,0,0],[0.25,0,0],[0.5,0,0],[0.75,0,0],[1,0,0],[0,1,0],[0.25,1,0],[0.5,1,0],[0.75,1,0],[1,1,0],[0,0.25,0],[0,0.5,0],[0,0.75,0],[1,0.25,0],[1,0.5,0],[1,0.75,0]];outlineConnect=0;fontColor=default;gradientColor=#FF4F8B;gradientDirection=north;fillColor=#BC1356;strokeColor=#ffffff;dashed=0;verticalLabelPosition=bottom;verticalAlign=top;align=center;fontSize=11;fontStyle=1;aspect=fixed;shape=mxgraph.aws4.resourceIcon;resIcon=mxgraph.aws4.api_gateway;" parent="1" vertex="1">
            <mxGeometry x="179.5" y="60.25" width="68" height="68" as="geometry" />
          </mxCell>
        </UserObject>
        <mxCell id="8wmPjM3-3fpsCXYut9wT-15" value="" style="edgeStyle=orthogonalEdgeStyle;rounded=1;orthogonalLoop=1;jettySize=auto;html=1;exitX=0.855;exitY=0.855;exitDx=0;exitDy=0;exitPerimeter=0;startArrow=classic;startFill=1;fontSize=12;fontStyle=0;entryX=0;entryY=0.25;entryDx=0;entryDy=0;entryPerimeter=0;labelBackgroundColor=none;" parent="1" source="8wmPjM3-3fpsCXYut9wT-13" target="rLQe5xNYfR91RknVfP9o-1" edge="1">
          <mxGeometry relative="1" as="geometry">
            <mxPoint x="663.71" y="202.76199999999994" as="targetPoint" />
            <Array as="points">
              <mxPoint x="510" y="118" />
              <mxPoint x="510" y="187" />
            </Array>
          </mxGeometry>
        </mxCell>
        <mxCell id="8wmPjM3-3fpsCXYut9wT-16" style="edgeStyle=orthogonalEdgeStyle;rounded=1;orthogonalLoop=1;jettySize=auto;html=1;exitX=0.5;exitY=1;exitDx=0;exitDy=0;exitPerimeter=0;startArrow=classic;startFill=1;fontSize=12;fontStyle=0" parent="1" source="8wmPjM3-3fpsCXYut9wT-13" target="8wmPjM3-3fpsCXYut9wT-7" edge="1">
          <mxGeometry relative="1" as="geometry">
            <mxPoint x="1039.5" y="173.25" as="targetPoint" />
          </mxGeometry>
        </mxCell>
        <mxCell id="8wmPjM3-3fpsCXYut9wT-18" style="edgeStyle=orthogonalEdgeStyle;rounded=1;orthogonalLoop=1;jettySize=auto;html=1;exitX=1;exitY=0.5;exitDx=0;exitDy=0;exitPerimeter=0;entryX=0;entryY=0.5;entryDx=0;entryDy=0;entryPerimeter=0;startArrow=none;startFill=0;fontSize=12;fontStyle=0" parent="1" source="8wmPjM3-3fpsCXYut9wT-13" target="8wmPjM3-3fpsCXYut9wT-17" edge="1">
          <mxGeometry relative="1" as="geometry" />
        </mxCell>
        <UserObject label="input-trigger" link="data:page/id,VN45x_A-Vy6Ba__JTjwE" id="8wmPjM3-3fpsCXYut9wT-13">
          <mxCell style="outlineConnect=0;dashed=0;verticalLabelPosition=top;verticalAlign=bottom;align=center;shape=mxgraph.aws3.lambda_function;fillColor=#F58534;gradientColor=none;fontSize=12;fontStyle=5;aspect=fixed;labelBorderColor=none;labelBackgroundColor=none;labelPosition=center;fontColor=#1726FF;" parent="1" vertex="1">
            <mxGeometry x="399.5" y="60" width="68" height="68" as="geometry" />
          </mxCell>
        </UserObject>
        <mxCell id="8wmPjM3-3fpsCXYut9wT-21" style="edgeStyle=orthogonalEdgeStyle;rounded=1;orthogonalLoop=1;jettySize=auto;html=1;exitX=1;exitY=0.5;exitDx=0;exitDy=0;exitPerimeter=0;startArrow=none;startFill=0;fontSize=12;fontStyle=0;entryX=0;entryY=0.5;entryDx=0;entryDy=0;entryPerimeter=0;" parent="1" source="8wmPjM3-3fpsCXYut9wT-17" target="2N7xK1qPydxSwO77cRyF-2" edge="1">
          <mxGeometry relative="1" as="geometry">
            <mxPoint x="813.3600000000001" y="94.29999999999995" as="targetPoint" />
          </mxGeometry>
        </mxCell>
        <mxCell id="8wmPjM3-3fpsCXYut9wT-17" value="trigger-input" style="sketch=0;points=[[0,0,0],[0.25,0,0],[0.5,0,0],[0.75,0,0],[1,0,0],[0,1,0],[0.25,1,0],[0.5,1,0],[0.75,1,0],[1,1,0],[0,0.25,0],[0,0.5,0],[0,0.75,0],[1,0.25,0],[1,0.5,0],[1,0.75,0]];outlineConnect=0;fontColor=#232F3E;gradientColor=#FF4F8B;gradientDirection=north;fillColor=#BC1356;strokeColor=#ffffff;dashed=0;verticalLabelPosition=bottom;verticalAlign=top;align=center;fontSize=12;fontStyle=1;aspect=fixed;shape=mxgraph.aws4.resourceIcon;resIcon=mxgraph.aws4.sqs;labelBorderColor=none;labelBackgroundColor=none;" parent="1" vertex="1">
          <mxGeometry x="530.75" y="59.75" width="68" height="68" as="geometry" />
        </mxCell>
        <mxCell id="8wmPjM3-3fpsCXYut9wT-20" value="" style="edgeStyle=orthogonalEdgeStyle;rounded=1;orthogonalLoop=1;jettySize=auto;html=1;exitX=0.5;exitY=1;exitDx=0;exitDy=0;exitPerimeter=0;entryX=1;entryY=0.25;entryDx=0;entryDy=0;entryPerimeter=0;startArrow=classic;startFill=1;fontSize=12;fontStyle=0;labelBackgroundColor=none;" parent="1" source="2N7xK1qPydxSwO77cRyF-2" target="rLQe5xNYfR91RknVfP9o-1" edge="1">
          <mxGeometry relative="1" as="geometry">
            <mxPoint x="813.3600000000001" y="94.25" as="sourcePoint" />
            <mxPoint x="732.866" y="207.25" as="targetPoint" />
          </mxGeometry>
        </mxCell>
        <mxCell id="8wmPjM3-3fpsCXYut9wT-28" style="edgeStyle=orthogonalEdgeStyle;rounded=1;orthogonalLoop=1;jettySize=auto;html=1;exitX=0;exitY=0.5;exitDx=0;exitDy=0;exitPerimeter=0;entryX=1;entryY=0.5;entryDx=0;entryDy=0;entryPerimeter=0;startArrow=classic;startFill=1;fontSize=12;fontStyle=0" parent="1" source="8wmPjM3-3fpsCXYut9wT-22" target="2N7xK1qPydxSwO77cRyF-3" edge="1">
          <mxGeometry relative="1" as="geometry">
            <mxPoint x="468" y="395.25" as="targetPoint" />
          </mxGeometry>
        </mxCell>
        <mxCell id="8wmPjM3-3fpsCXYut9wT-22" value="send-message-trigger.fifo" style="sketch=0;points=[[0,0,0],[0.25,0,0],[0.5,0,0],[0.75,0,0],[1,0,0],[0,1,0],[0.25,1,0],[0.5,1,0],[0.75,1,0],[1,1,0],[0,0.25,0],[0,0.5,0],[0,0.75,0],[1,0.25,0],[1,0.5,0],[1,0.75,0]];outlineConnect=0;fontColor=#232F3E;gradientColor=#FF4F8B;gradientDirection=north;fillColor=#BC1356;strokeColor=#ffffff;dashed=0;verticalLabelPosition=bottom;verticalAlign=top;align=center;fontSize=11;fontStyle=1;aspect=fixed;shape=mxgraph.aws4.resourceIcon;resIcon=mxgraph.aws4.sqs;fontFamily=Helvetica;" parent="1" vertex="1">
          <mxGeometry x="533.75" y="360.75" width="68" height="68" as="geometry" />
        </mxCell>
        <mxCell id="8wmPjM3-3fpsCXYut9wT-25" style="edgeStyle=orthogonalEdgeStyle;rounded=1;orthogonalLoop=1;jettySize=auto;html=1;exitX=0.5;exitY=0;exitDx=0;exitDy=0;entryX=0.25;entryY=1;entryDx=0;entryDy=0;entryPerimeter=0;startArrow=classic;startFill=1;fontSize=12;fontStyle=0;exitPerimeter=0;" parent="1" source="2N7xK1qPydxSwO77cRyF-1" target="rLQe5xNYfR91RknVfP9o-1" edge="1">
          <mxGeometry relative="1" as="geometry">
            <mxPoint x="700.75" y="360.53999999999996" as="sourcePoint" />
            <mxPoint x="701.1780000000001" y="243.086" as="targetPoint" />
          </mxGeometry>
        </mxCell>
        <mxCell id="8wmPjM3-3fpsCXYut9wT-26" style="edgeStyle=orthogonalEdgeStyle;rounded=1;orthogonalLoop=1;jettySize=auto;html=1;exitX=0;exitY=0.5;exitDx=0;exitDy=0;entryX=1;entryY=0.5;entryDx=0;entryDy=0;entryPerimeter=0;startArrow=none;startFill=0;fontSize=12;fontStyle=0;exitPerimeter=0;" parent="1" source="2N7xK1qPydxSwO77cRyF-1" target="8wmPjM3-3fpsCXYut9wT-22" edge="1">
          <mxGeometry relative="1" as="geometry">
            <mxPoint x="666.75" y="394.53999999999996" as="sourcePoint" />
          </mxGeometry>
        </mxCell>
        <mxCell id="8wmPjM3-3fpsCXYut9wT-29" style="edgeStyle=orthogonalEdgeStyle;rounded=1;orthogonalLoop=1;jettySize=auto;html=1;exitX=0.5;exitY=0;exitDx=0;exitDy=0;exitPerimeter=0;startArrow=classic;startFill=1;fontSize=12;fontStyle=0" parent="1" source="2N7xK1qPydxSwO77cRyF-3" target="8wmPjM3-3fpsCXYut9wT-7" edge="1">
          <mxGeometry relative="1" as="geometry">
            <mxPoint x="434" y="361.25" as="sourcePoint" />
          </mxGeometry>
        </mxCell>
        <mxCell id="8wmPjM3-3fpsCXYut9wT-30" style="edgeStyle=orthogonalEdgeStyle;rounded=1;orthogonalLoop=1;jettySize=auto;html=1;exitX=1;exitY=0.25;exitDx=0;exitDy=0;exitPerimeter=0;entryX=0;entryY=0.75;entryDx=0;entryDy=0;entryPerimeter=0;startArrow=classic;startFill=1;fontSize=12;fontStyle=0" parent="1" source="2N7xK1qPydxSwO77cRyF-3" target="rLQe5xNYfR91RknVfP9o-1" edge="1">
          <mxGeometry relative="1" as="geometry">
            <mxPoint x="468" y="361.25" as="sourcePoint" />
            <Array as="points">
              <mxPoint x="520" y="378" />
              <mxPoint x="520" y="260" />
              <mxPoint x="600" y="260" />
              <mxPoint x="600" y="221" />
            </Array>
            <mxPoint x="664.866" y="240.16200000000003" as="targetPoint" />
          </mxGeometry>
        </mxCell>
        <UserObject label="Message Packer Job&#xa;" link="data:page/id,2QC6JyY3c5nzCO6DgVqq" id="2N7xK1qPydxSwO77cRyF-1">
          <mxCell style="sketch=0;points=[[0,0,0],[0.25,0,0],[0.5,0,0],[0.75,0,0],[1,0,0],[0,1,0],[0.25,1,0],[0.5,1,0],[0.75,1,0],[1,1,0],[0,0.25,0],[0,0.5,0],[0,0.75,0],[1,0.25,0],[1,0.5,0],[1,0.75,0]];outlineConnect=0;fontColor=#1726FF;gradientColor=#F78E04;gradientDirection=north;fillColor=#D05C17;strokeColor=#ffffff;dashed=0;verticalLabelPosition=bottom;verticalAlign=top;align=center;fontSize=11;fontStyle=5;aspect=fixed;shape=mxgraph.aws4.resourceIcon;resIcon=mxgraph.aws4.batch;labelBackgroundColor=none;fontFamily=Helvetica;" parent="1" vertex="1">
            <mxGeometry x="666.75" y="361.25" width="68" height="68" as="geometry" />
          </mxCell>
        </UserObject>
        <UserObject label="Trigger&#xa;WebHook Worker" link="data:page/id,iNKftneDaUB5ciLVsXQg" id="2N7xK1qPydxSwO77cRyF-2">
          <mxCell style="outlineConnect=0;dashed=0;verticalLabelPosition=middle;verticalAlign=middle;align=left;shape=mxgraph.aws3.android;fillColor=#EE472A;gradientColor=none;aspect=fixed;fontStyle=5;labelBorderColor=none;labelBackgroundColor=none;labelPosition=right;whiteSpace=wrap;fontColor=#1726FF;spacing=5;" parent="1" vertex="1">
            <mxGeometry x="829.5" y="60.25" width="68" height="68" as="geometry" />
          </mxCell>
        </UserObject>
        <UserObject label="SendMessage Worker" id="2N7xK1qPydxSwO77cRyF-3">
          <mxCell style="outlineConnect=0;dashed=0;verticalLabelPosition=bottom;verticalAlign=top;align=center;shape=mxgraph.aws3.android;fillColor=#EE472A;gradientColor=none;aspect=fixed;labelBackgroundColor=none;fontStyle=1;fontSize=11;fontColor=default;whiteSpace=wrap;" parent="1" vertex="1">
            <mxGeometry x="399.5" y="360.54" width="68" height="68" as="geometry" />
          </mxCell>
        </UserObject>
        <mxCell id="x14Zy07fM62WLR-MNFAW-1" style="edgeStyle=orthogonalEdgeStyle;rounded=1;orthogonalLoop=1;jettySize=auto;html=1;exitX=1;exitY=0.5;exitDx=0;exitDy=0;entryX=0;entryY=0.5;entryDx=0;entryDy=0;entryPerimeter=0;labelBackgroundColor=none;fontSize=11;fontColor=#FF2908;startArrow=none;startFill=0;" parent="1" source="x14Zy07fM62WLR-MNFAW-2" target="x14Zy07fM62WLR-MNFAW-4" edge="1">
          <mxGeometry relative="1" as="geometry" />
        </mxCell>
        <mxCell id="x14Zy07fM62WLR-MNFAW-2" value="" style="shape=image;verticalLabelPosition=bottom;labelBackgroundColor=none;verticalAlign=top;aspect=fixed;imageAspect=0;image=data:image/png,iVBORw0KGgoAAAANSUhEUgAAAIMAAAAwCAYAAAAyw8m9AAAAAXNSR0IArs4c6QAAAARnQU1BAACxjwv8YQUAAAAJcEhZcwAADsMAAA7DAcdvqGQAAA5ySURBVHhe7ZwLkBTVFYZPz3NndhcUNCIloigPn6iREEQ3PIxbCKKFIphERQuIG7BEVNYYpSwkGjBaoKyokCBqIYIaIcHUYiGWaChLLeWhEipgEAtEXgK7s495dM5/+vZMd0/37C6wi5L+qrpmuvv27e57/3vuOefOrqYz5OPDBNSnj48vBp8cvhh8shw1nyG96T+U2fIVpd7/iNKbt5D+9S6ixkY5p53YnujUkyh04TkU7HsxBbufRYEuneWczw+HIxNDbYIaq1dTctlKyqzbRHQwQRQKEsUixnlNMz5xi1SaKMkbPju2p+BFvShy+038eT5psahRzueYcthiSK39hOoffoIyG7byyC82RGB2flPglnWNpNfUU2jo5RS95w4K9jpbnfQ5VrRcDGwN6qbPomTVa6R1OZEoHFInFGZ1sABWIBbgFEyigfRvD1J0xl0UrbhVHfQ5FrRIDPr+A1Q7djLpG7YQxR2mHdUcqpMpQjvtFKKSGGklJcapmhqivQdJ37Fb9mUasYpCXRscWkaxmVP9aeMY0WwxiBBGV5D+1Q67EPhyffdB7vgiitx9G4X6/ZQCnTuR9pOTVAEuUsejf89eynyzk5LLqym5cDlpRWGi0lhOFKYgBvel+Lw/G8d82pTmiYGnhppb7sy3CGziqX0JRSbcTNExo9TBZsD11T/3IiWfXczTDE8flqlG/+4AhW8dTrHHHlBHDg8IsK0tDO7phfksXmVwvjnXtybNEkPd7x+l1Osr7ULgyCFwxSUUm1552GFi+rONVFf5aL614bojj95D0dHXqQPNA9Yr9el6Sr29hi3Rvja3MGgnhNV51NRRbPY0Sq3+gJJvVssUaoOn0OK/zaeGZxdS6uN16qCd2EN3S+TVmjQpBnRYbdktpHU7WR1huLO0vudT8V9nHbFiM9t3UOLGCaQfPJizEHgknj6K/76gSaFhNKXeeY9SH31K6eq1lNm2U6YgrXsXKqlepEq1DTU38TT6yZeGtbOg76+l4rfmU/Kf71By3tJc6K3Qt++n0m2rqW7qTEqveC/vPELy2MInZApuTQpnIBE58MiVqMGEpwbM604hoFOReNK/26OO5JMtwyPYBJ1dvGweae3a8UunjIPwI/g+9TOrjH0vMH31Lqe6cQ9RatFbpCdq2Vdpn9+YbYk57Vk28Y+KiozziKoc5204z8u+XVytRUExJN/9QPII2QfGiGUfoWjqZNsc2DB3ISVuvou3SVR7Y4XsW+c/dH7dwzPFAkgZdkQb31ihznLfs7NZ9OSDxo5pqHjaSL2+SsTjhR4IktbxRNJOZiFhmnGGrW1NY6NYAUm+WTZ9Dx+rr1eFCoPci+16dqqlzjag4DRRe+tdlPl4Y04M/HCRqRNtziI6vqFytmE9oOJUWsxe9KnKbLnEnX+QjpVOA6pM7M3ZFB50hXGMyfNN+H7hib+mosl3GPsOILjaQaPFItiEwBYG4W1bTxPJd9ZQ5ru9as9OpHyg+ATJBW/Y/SNG37pbpgn4O5mv2X9yIXL1YFuE1hp4igEjMjF6gjFS0dD45E4s/XyVKmGY/doR4401CGdnnNyBipfMpcyOb9kiTMzPLaDMhT1s0w3qq+k7wjD1QHVq8UtP5TUEMqB6HUcllTPy78/PqsWLKXxL0w5ooGc3myBhsfRd9qkOjpt1vpZOd+u0Insnm2iRMIWHXEkNs57zFEO7ne9Tav2XlN62XR21E73mKqLiuNozwGCAT5esZgu64d+yHqSFeEo6oxOFy35OoYH9W5TZ9RRDcsXbVH/nNKJ26gFgFe4ba8sS4kESY+7JCcZE7ccXV7EYdlL9WA4TzXpMPDoaViRd/YHRYKiHzWT8rQV5L3WoxwAxqWJtrPc2UdcWQq9PUqDfeVTy4tPS0PB3aq8dZxODWab45WdEtGKNhvyGMpu3G75AE8j1XU8Vv6jhL4sKiiGb2T2pWJ1RsMWNL59vawNZDnhqvuGwItuLwQbLLCd5v44HSGmMgmV9KDrhtmaJwtNngHeerRwNyzdzerNaxw48hbg3iBaLk8YNjE+pB3U46dBeylgJDbzMeBmgOjnFosuDfRdPIQAchwCxcaNoF/eQBTJJdKnjuF7/dDPp7IiC9JZtpO/dby/DViqz9nNJmoEMj1z9+4PGvVUZqZ+jF+30TrZr5Xqs27RzhJJeRNnZ7GSpFxvqc4inYfGblLieI7D1mw0RoBymcrwzNnzHMQYDKzF8rAzcpvAUA8xO1ovlzsEoRmbRCiKB0NAyyUBKZ6sN+6GR5cZ5ZCT79TZGqbUM+wyRkcPyTF+wW1fjBVEOsJAy674wvh8uPEpC/ftQ4NyzckID3HAYuamNPLoYmFvBITBYgOSqNfI9/QW3Cxw7axnUX14my/S2+lsBCKFh/DRDjKYAvMA5CIn7MTGioklBeEcTO/blLAPAKHZxYGL3TaTw+BHGjWGaIhHZj1bcpkpwmemVsu4gcBnM51iYiowYahyzIIKLW0YSv0hmxy61YyGZbLrhTfFBzFxvsBeLAcvoFpBGT3/IVpBJLa02hOiEj6U/WS9fU6v/ZW8XwPWH+rHYShzm/SgDn6rxifmkncn94CYC832dQDT8zHUzqmxRnhNPMTg9dM8X5ZEde3iK+AfxJXOo+I3nZd+ag4CFiD/9R4q/+oyUiS+p8l6hLC1VX3LIQpcD7QQeGcDt5U0cDRYa0N8I3ayw2NKbtkhDw1q5NjKs04bNRp5kzcd2waj744c7eiMLtJXAdNr48mtEew/kPyM/A9L4Mhh5k+/OdmELoX+4saB1KJhn+CFT8u5SiWxgZfJeHImxKy6l0s+qqXTdSirdukZS2+gwiVSs5bmj9W93S4LLllyzwo2PFVfpDOcUAasDf4Q7S1e/7DrqsF+m791HyVdXGD6EFbwLW+PYy49T6eZ3ZYvNe8QQhrNdWMSNi9iB9cBTDM5GztR4JD6QpURCicNQhJAINbFvNUcYUYgSEqN+J2WQfEJ+wpVDh9SXHOZSuJNCJs8V7rDQkF8YDWWCjt611xjxZj7FDW5I187gusIjr1E7rQPCxZRX8o19sfBNw2zhcXjoLyl0PYei1vcEysJ54W0ZOnOkYJ2T9x1wTTXXPT6Hks+z2iAcmE8eHdhvmLtAleAyD84wcu6Ay2AKQqLKmoU0QV6CEpaQkOf4QOdT1M6RE+h9rv29mgusAd7RahWwz+IItfICkoAUvnOkM3CAgxedp/ZyuL4nhG9ZCnDiKYbgBT1zzhZM6Te7jI6ygBGf4k7Ohnhqwz6cMTnP8XBm7TpjRFnLsEluXPoPsSxW0lu3GYpGOcAvJC92lIgMutxIDzdFMpXf+OYzmWCK4Agl0LWLOtCKxNTahgNEOgh186h3sZr8PmLxPfAUQ6jPxTlloRG4g9CxVjCPiVfvArKDiN/xKfU4GxLsY2vjEIPNW1ed0eKRhwhkDz+bC4iIApcgqlCLYm7wucCl53PMz167y2jMwm0S6tPb5iy3BnqKR3/Ps93bENPXspW2EQ8LnnxlmWGprUC8PU5XO/l4iiFw1plG4sJsDB7ZjXNeNL4rPJNOuCl7+4EOJ/Cm1izcGpXDVWv0IJbkdY71zSQL6uneReppETz3IzPX8MKrkkmFf2IVcmj4YMP6eMHnwtdeRcF+FxUsBwsTZkvT6vCAC5x2KmnndJM2scHvCsubmDRVpl1stRWVxm9EHD4QFrxCQwaqvXy8p4leZ7N57pW7ubIOaGAThIyR20fyjdmXMM0qfyJEC4+5QUYh8vrBcg7prIkpVSY67le2UdXwzAsS92fByCsvc81vZInyCzsbCLCgGqfNkeVt+CeZnbkpTjoQo8ZNoIx08uV9KXLd1fmhqAlfGzivKwV6dlcHWhdY0FjlBEOczufmd8WCYsO9f5JN3/Tf3IAygbXr0UUWzLzwdiCZyI3D7MunsA5VL8kINomMGS0JJCxMIcTBpySURuUWiWLTpkgiSuYrlDntFCp64RGbB4yRm1rOVsFi2uAcha++Uu3lAyEFLuCwzpFIysKWTULJEru5DHbvRlqvM9xFhEbjaUSmE/YFsK7gKhrulGB5v1afIqxgYIXHjXRfc4EVgCU3U9NW8Pz8vNH7xht/0ORBQTGEB/TnxmbThFEPYB0O1FD9tCezYR0aAwmk+EuzeZslK5XYtzYSHkASU0uqjDKL59qyj5jj6idPN3bMeTHRwOHR4CYXWLCW4Tl6veAQM9gjPxspcKOFRw2Tr3ju4IA+xmh0wkISv6qNiU76rfzc0DWx5AasMFtuLDIi5CxEQTFIdnHGA0ZmzoTNT3rVh1R7+yRbnI8pAx1XyKRny1jUCSsjK4XOn73xfYqmsFlsAogKf4gjjQPR4lrnVpPfmeHh5fL3GrZyuB6h4sD+qhSPRnYQRWzWctiY0GU/k08bEJijnA1YI+t5Zxmcx3OYm1legUFWvHA2Re4dY4gUSTC39+ZjaBNY6tgrM7wzvhYKi4ER0zThBhmpWdgUIbWZuGOKbcpoKbIEPvZeY6XQatrYDEburxDxNIf4rGkUfajCMP2wLGhANBR/R0QQGjUobxSLT8RzPqat7MbP4AwV4TvIUrW1HOrty9GGw+RqOIe52loW6yzmD2CjvN+xvVxn27DWwOCnf7L6ye9h2/iZnKu7+MEPlrUxbUgZPIu6p9R5YQ+KPnm//NC2KYtg0qxfR8tvDX8MP5XnetMQZ329WC3xKRx/w2EFQnaGtmh0pwjdfnqHCMdZr1t9JjLd8bnMvu/VETvmPb2yqoV8E1yDJXbz3m7P1hyaJwYGcWyb/BHN0DJZ1PJpe5otBiCC8P+87rilRWIQ2BT5f3h7fNJyMSjkN3j+n+QfVxy2GAS2Ev4/6zh+ODIxWIDH7f8bnx83R00MPj9+mkw6+fz/4IvBJ4svBp8svhh8svhi8Mnii8Eniy8GHwXR/wABvkqZLAA7EgAAAABJRU5ErkJggg==;imageBorder=default;" parent="1" vertex="1">
          <mxGeometry x="80" y="530.72" width="131" height="48" as="geometry" />
        </mxCell>
        <mxCell id="x14Zy07fM62WLR-MNFAW-3" style="edgeStyle=orthogonalEdgeStyle;rounded=1;orthogonalLoop=1;jettySize=auto;html=1;exitX=1;exitY=0.5;exitDx=0;exitDy=0;exitPerimeter=0;entryX=0;entryY=0.5;entryDx=0;entryDy=0;entryPerimeter=0;labelBackgroundColor=none;fontFamily=Verdana;fontSize=11;fontColor=#000000;startArrow=none;startFill=0;" parent="1" source="x14Zy07fM62WLR-MNFAW-4" target="x14Zy07fM62WLR-MNFAW-6" edge="1">
          <mxGeometry relative="1" as="geometry" />
        </mxCell>
        <UserObject label="api_twilio_callback" id="x14Zy07fM62WLR-MNFAW-4">
          <mxCell style="sketch=0;points=[[0,0,0],[0.25,0,0],[0.5,0,0],[0.75,0,0],[1,0,0],[0,1,0],[0.25,1,0],[0.5,1,0],[0.75,1,0],[1,1,0],[0,0.25,0],[0,0.5,0],[0,0.75,0],[1,0.25,0],[1,0.5,0],[1,0.75,0]];outlineConnect=0;fontColor=default;gradientColor=#FF4F8B;gradientDirection=north;fillColor=#BC1356;strokeColor=#ffffff;dashed=0;verticalLabelPosition=bottom;verticalAlign=top;align=center;fontSize=11;fontStyle=1;aspect=fixed;shape=mxgraph.aws4.resourceIcon;resIcon=mxgraph.aws4.api_gateway;" parent="1" vertex="1">
            <mxGeometry x="251.5" y="520.72" width="68" height="68" as="geometry" />
          </mxCell>
        </UserObject>
        <mxCell id="x14Zy07fM62WLR-MNFAW-5" style="edgeStyle=orthogonalEdgeStyle;rounded=1;orthogonalLoop=1;jettySize=auto;html=1;exitX=1;exitY=0.5;exitDx=0;exitDy=0;exitPerimeter=0;entryX=0;entryY=0.5;entryDx=0;entryDy=0;entryPerimeter=0;labelBackgroundColor=none;fontFamily=Verdana;fontSize=11;fontColor=#000000;startArrow=none;startFill=0;" parent="1" source="x14Zy07fM62WLR-MNFAW-6" target="x14Zy07fM62WLR-MNFAW-8" edge="1">
          <mxGeometry relative="1" as="geometry" />
        </mxCell>
        <mxCell id="x14Zy07fM62WLR-MNFAW-6" value="twilio-callback" style="outlineConnect=0;dashed=0;verticalLabelPosition=top;verticalAlign=bottom;align=center;shape=mxgraph.aws3.lambda_function;fillColor=#F58534;gradientColor=none;labelBackgroundColor=none;fontSize=11;fontColor=default;fontFamily=Helvetica;aspect=fixed;fontStyle=1;labelPosition=center;" parent="1" vertex="1">
          <mxGeometry x="535.5" y="520.72" width="68" height="68" as="geometry" />
        </mxCell>
        <mxCell id="x14Zy07fM62WLR-MNFAW-7" style="edgeStyle=orthogonalEdgeStyle;rounded=1;orthogonalLoop=1;jettySize=auto;html=1;exitX=1;exitY=0.5;exitDx=0;exitDy=0;exitPerimeter=0;entryX=0;entryY=0.5;entryDx=0;entryDy=0;entryPerimeter=0;labelBackgroundColor=none;fontFamily=Verdana;fontSize=11;fontColor=#000000;startArrow=none;startFill=0;endArrow=classic;endFill=1;" parent="1" source="x14Zy07fM62WLR-MNFAW-8" target="x14Zy07fM62WLR-MNFAW-9" edge="1">
          <mxGeometry relative="1" as="geometry" />
        </mxCell>
        <mxCell id="x14Zy07fM62WLR-MNFAW-8" value="twilio-callback" style="sketch=0;points=[[0,0,0],[0.25,0,0],[0.5,0,0],[0.75,0,0],[1,0,0],[0,1,0],[0.25,1,0],[0.5,1,0],[0.75,1,0],[1,1,0],[0,0.25,0],[0,0.5,0],[0,0.75,0],[1,0.25,0],[1,0.5,0],[1,0.75,0]];outlineConnect=0;fontColor=default;gradientColor=#FF4F8B;gradientDirection=north;fillColor=#BC1356;strokeColor=#ffffff;dashed=0;verticalLabelPosition=top;verticalAlign=bottom;align=center;fontSize=11;fontStyle=1;aspect=fixed;shape=mxgraph.aws4.resourceIcon;resIcon=mxgraph.aws4.sqs;labelBorderColor=none;labelBackgroundColor=none;labelPosition=center;" parent="1" vertex="1">
          <mxGeometry x="669.13" y="520" width="68" height="68" as="geometry" />
        </mxCell>
        <mxCell id="x14Zy07fM62WLR-MNFAW-10" style="edgeStyle=orthogonalEdgeStyle;rounded=1;orthogonalLoop=1;jettySize=auto;html=1;exitX=1;exitY=0.5;exitDx=0;exitDy=0;exitPerimeter=0;entryX=1;entryY=0.75;entryDx=0;entryDy=0;entryPerimeter=0;labelBackgroundColor=none;labelBorderColor=none;fontSize=11;fontColor=default;" parent="1" source="x14Zy07fM62WLR-MNFAW-9" target="rLQe5xNYfR91RknVfP9o-1" edge="1">
          <mxGeometry relative="1" as="geometry">
            <Array as="points">
              <mxPoint x="930" y="554" />
              <mxPoint x="930" y="220" />
            </Array>
            <mxPoint x="733.4780000000001" y="216.02199999999993" as="targetPoint" />
          </mxGeometry>
        </mxCell>
        <UserObject label="Callback Worker" id="x14Zy07fM62WLR-MNFAW-9">
          <mxCell style="outlineConnect=0;dashed=0;verticalLabelPosition=top;verticalAlign=bottom;align=center;shape=mxgraph.aws3.android;fillColor=#EE472A;gradientColor=none;aspect=fixed;labelBackgroundColor=none;fontColor=default;fontStyle=1;fontSize=11;labelPosition=center;" parent="1" vertex="1">
            <mxGeometry x="796.75" y="520" width="68" height="68" as="geometry" />
          </mxCell>
        </UserObject>
        <mxCell id="rLQe5xNYfR91RknVfP9o-1" value="Database" style="sketch=0;points=[[0,0,0],[0.25,0,0],[0.5,0,0],[0.75,0,0],[1,0,0],[0,1,0],[0.25,1,0],[0.5,1,0],[0.75,1,0],[1,1,0],[0,0.25,0],[0,0.5,0],[0,0.75,0],[1,0.25,0],[1,0.5,0],[1,0.75,0]];outlineConnect=0;fontColor=#232F3E;gradientColor=#4D72F3;gradientDirection=north;fillColor=#3334B9;strokeColor=#ffffff;dashed=0;verticalLabelPosition=top;verticalAlign=bottom;align=center;fontSize=11;fontStyle=1;aspect=fixed;shape=mxgraph.aws4.resourceIcon;resIcon=mxgraph.aws4.rds;labelBackgroundColor=none;labelBorderColor=none;fontFamily=Helvetica;labelPosition=center;" parent="1" vertex="1">
          <mxGeometry x="734.75" y="170" width="68" height="68" as="geometry" />
        </mxCell>
      </root>
    </mxGraphModel>
  </diagram>
  <diagram id="hDu2jMvQzBfxw5Cf4ebL" name="User actions">
    <mxGraphModel dx="1341" dy="802" grid="1" gridSize="10" guides="1" tooltips="1" connect="1" arrows="1" fold="1" page="1" pageScale="1" pageWidth="1100" pageHeight="850" math="0" shadow="0">
      <root>
        <mxCell id="0" />
        <mxCell id="1" parent="0" />
        <mxCell id="1Kavnhy9d_unkwdZq6Hp-1" value="&lt;h1&gt;Environments&lt;/h1&gt;&lt;p&gt;&lt;b&gt;{env}&lt;/b&gt; = [dev,&amp;nbsp;&lt;span style=&quot;background-color: initial;&quot;&gt;qa]&lt;/span&gt;&lt;/p&gt;&lt;p&gt;for&amp;nbsp;&lt;b&gt;prod &lt;/b&gt;{env} is not used&lt;/p&gt;" style="text;html=1;strokeColor=#d6b656;fillColor=#fff2cc;spacing=5;spacingTop=-20;whiteSpace=wrap;overflow=hidden;rounded=0;" vertex="1" parent="1">
          <mxGeometry x="920" y="10" width="170" height="100" as="geometry" />
        </mxCell>
        <mxCell id="JKCkF7Gh0FQH5l83bfCf-5" style="edgeStyle=orthogonalEdgeStyle;rounded=1;orthogonalLoop=1;jettySize=auto;html=1;exitX=1;exitY=0.5;exitDx=0;exitDy=0;exitPerimeter=0;entryX=0;entryY=0.5;entryDx=0;entryDy=0;fontSize=14;" edge="1" parent="1" source="enBXVZd6Rh-vrk_y9_wr-1" target="JKCkF7Gh0FQH5l83bfCf-1">
          <mxGeometry relative="1" as="geometry" />
        </mxCell>
        <mxCell id="enBXVZd6Rh-vrk_y9_wr-1" value="https://{env}.callloop.com" style="sketch=0;points=[[0,0,0],[0.25,0,0],[0.5,0,0],[0.75,0,0],[1,0,0],[0,1,0],[0.25,1,0],[0.5,1,0],[0.75,1,0],[1,1,0],[0,0.25,0],[0,0.5,0],[0,0.75,0],[1,0.25,0],[1,0.5,0],[1,0.75,0]];outlineConnect=0;fontColor=#232F3E;gradientColor=#945DF2;gradientDirection=north;fillColor=#5A30B5;strokeColor=#ffffff;dashed=0;verticalLabelPosition=bottom;verticalAlign=top;align=center;html=1;fontSize=14;fontStyle=1;aspect=fixed;shape=mxgraph.aws4.resourceIcon;resIcon=mxgraph.aws4.cloudfront;" vertex="1" parent="1">
          <mxGeometry x="130" y="40" width="80" height="80" as="geometry" />
        </mxCell>
        <mxCell id="KvJEF60NvhNmNptdvNRv-2" style="edgeStyle=orthogonalEdgeStyle;rounded=0;orthogonalLoop=1;jettySize=auto;html=1;exitX=1;exitY=0.5;exitDx=0;exitDy=0;entryX=0;entryY=0.5;entryDx=0;entryDy=0;entryPerimeter=0;fontSize=14;" edge="1" parent="1" source="JKCkF7Gh0FQH5l83bfCf-1" target="KvJEF60NvhNmNptdvNRv-1">
          <mxGeometry relative="1" as="geometry" />
        </mxCell>
        <mxCell id="JKCkF7Gh0FQH5l83bfCf-1" value="React Fronttend&#xa;Application" style="shape=image;verticalLabelPosition=top;labelBackgroundColor=none;verticalAlign=bottom;imageAspect=0;image=data:image/png,iVBORw0KGgoAAAANSUhEUgAAAPEAAADSCAYAAACb8yaRAAAAAXNSR0IArs4c6QAAAARnQU1BAACxjwv8YQUAAAAJcEhZcwAADsMAAA7DAcdvqGQAAC+zSURBVHhe7Z0NkF1FlcfvmxkSkkA+SCAhgRACJFpEBVdrwS8QLWWV1SrRRdlChBUQSYmKWoKiWUBYUVQs/GQF0VoXV7FKxc9SEVFhSwrYBWpNgJCEJEz4SEhCEj4yM3t+703Hm5f33j19b997u3vmXzU1X+/e27fP+fc5ffr06caIIBmDeOL5keRnTw4nt24dSbYOt/62b1/ruxbmuhn9SbJkUiN51dS+5IVTGskky/uMBeyQvrpHOuwvT48k9+0YSTYNtf6et8+57rh9G8mbZ/Yls/ZqtP44BtFoNJIxR+KtojzXDw4lt4kyAVsl6gWjYK/ep5G8YUZf8oLJY1e5DP66fST59abh0vv7jDn9yb4ymI41jDkS3yyW99tPDCdiMEsHCobCvm2/vuR1QuixZJ3FyUl+J8S9aeNw0+K6JG43bJH+fs+svuQkscxjCWOGxLhyl60ZSlY8O1KJQqVhrMVJ0+J3/fByfiXE/flTw7sGsSrBMxdNbCSfnN8/ZgbNMUFi5r4fWzU6AasRhswnTm0kp86OS8mwvN/bMJTcvLmlSlWTtxOuXNA/JubK0ZMYAp+7csgLpUoD1++d4ma/Vdy/0PXsh48PJ98X6wt86mcGza8tjJ/IUZPYFwvcDcbdPOuAvuTYaeGZ5bu2jiRfF+tb1Zw3L2K3yFGTeOlDO5Ptoy6sz4DMR+7dSJbODWO+zLz3qrVDyf3PVB9fyIPJ0sZrDhsY/S0+REviL69rLSHlUTIzdwXp67v93RWMi/32/f1lRlnR/XTfApf9zvUsQX1gXpzrT1GS+H+FvJcIiW0VDWFjEV8mAj98UiOZN7GR7C33wDgSuHlG/v/s8EjywPaRZMUO+XomaUa7gStS04bZYjQuPKi/+XxfwNTki+uGnUb3DTnp8yWTpb8nJMl8+XnqwJ79vk6e+6D0+Z0i2zweAAPkp4TELxbZxoYoSXz2gzuTnRZvZMh71pw+a+KgZPeKYt2yeTi5Y5s7Qvu05smS0b8/PuzkvehreuloGSRPmNZIjpKb2kbpIfS1g8PWZJaxIfnm4fG51dGR2ERKtcJFqd5/QF/y2hluyHLLaILDhp3FyUzbWPP8+MH1ZCKxtv7ZR9zMfXkXPIyTZbrwquluIvL09Vcfs5P1KZ5PV/IgKhJjFc8RK6wFQr1UCFJGaiQu/Y9k/uiKABfO7U9eum91riCpklfKlKQo8CgWy0B0sngUZbSfdl4sA41NH39DrHFMweqoSGzj9qFcF1VAjFVCYly/5eICFgkGVRn0wpu5UfqySHuN5V16YDmDZBosdV2+XhcDoV3vlT58o/RlLIiKxNolJQRJCuTpc6rzUbHM39wwVMjNpt3M3T8xv78US4Inc6VYtXt25PceDHnPPKBaz+GGwVa2mKbdsS05RUNiLN5HVusj0tcdUY8QWaK54YliQSICNJ+WaYDL6DXBon8VAtsEBNsBgU+vMRh35gO6qRTt/Nwh/ckCGRBjACSup8cd47ebdO4fAiRDqi6g4NfJnOwwISBtyQOI9sFVQ03r7gLch/vlJTCuPu/De9UZTT9NBhBNnzKAoi8xIQpL/I7lO1XWzadlBuZy14gbmBculqGKJm9AmqqDbr2gXV6k3T9YHIdLHYUlxhXUAMG9xdFSkgug+F+RudmRk/JZZYgHAb/1aL6BgOvyEpj2zp/Qsr6+EBggX01fojFavQkBwZP4bgu38pipfs2DSHS44KD+5lo1ltUWEPCXW0aSz6yxIzKf57o8BKadRHiXybzSt0oaWvnyKRu98R3Bk/h/tumikiRO+LrBgGSTry/sb0ZOba0y705Emeg8EeZeIIGDz+WJQNMupiO009clGuSLnLPAu6M3scBPaVhg9XPZwkABj57iJ4ENUECWPkjWz0NkltfOE4KS59wJ/P38la1luDwEPkb6j3iC7zutkLOm/zR6EwqCJjGKaaomZmGJ5yQ2YLcN7moe95qgDnuo24nM7/w9TwTauM+4/SFAK2f0ptuAFxqCJvH6Z0d/yACiOmxSGCQGuKuflzlnXlDNxARu+M7veUE7QspwQs5aamr1x3cETeJHlS4R+buee4F7gGSEqxcO5J4ns/ZLKirf87jPPJfnh5YUgZznKFePtPrjO4Im8VqxMhoFnb3X6A+Bgegv8+SjcixD0S95thDyHJ7Hc0Ot47xIMfDQL+hPDAiaxIPPj/7QAyjl3AmBmeE2kC9NvnceItuA+/McnhcykLemrzT6EwKCJrG2hhZVI0IHGzYIMNkSWQvuy/2r3BhSFrTyDqEGmwZBk/hxZbh1RmgT4i4gwPThOfki173A/bhvLFv0tPLW6o/vCFZqrA5ol5diOqOH8raXHdzvzCJzH+4XYtncbtDKGw7HsMoUtOQ0/c9nKL4WE9hoz3a6okTmeu4T28FvyFujG64GwroRLIkZRTWqx2ci43ATLP18aUF/7nfjOk5IiGVfbRq8m/atYvCogyZxBP1fCPsVnOtP6Y+PwDZAf8ZJXCOoAa2B7TJLKGAu99GH7crzpsF1XB9J5mFuaPXIZ0Sq4rsjRnd62eqhwkskXM99YkSsg3cnRP+qBC9icJnSYD+wOX2iKLiP7X7kEKANWk3sC3+ED5bEdP5YnNFRkaNIRcp2cB/ul7dCSMiIRX+CJTEu8libzrGhgYocrl1F7sd9uX8s0OgGn4lhqhU0iTX9j6C2DYVPdwrruToTqRO477Vyf54TOrTyRn/GSVwjWF3RKDQyejpwT5E9wVest9tSyJzwTdPtcq2pucVzQi8ih7w13KQ/Y8jIDZbEgD2vGnA8ZqjgUO+L19gRmFxoiu9x7IttET6ew/OoxxUqtiiP5NLqj+8I+jWmKZMVtgdsif/tEbvGY3k5t8mc9Mh3frexyOCygCPWWndaqz++I2gSa0fSxwPNaPjyOrulJIh64tTGHgev8Tt/tyEyz+X5IWKLstnjltgDaHar4B4OBliGhdMZbntaH4mGoFTk+JcDO3cKf7epEMJzeT7tCA3IW9NvsexuC5rE2goOmwMzKJyPxOkMWgIDTiPMqsjB//mcFjyfdrg696kqaOSN3oRe8cUgaBLPVCrkhoDKsFBG9VJxY21PZ7higa4ztJ8zoB20J6Tyrlp5a/XHd4RNYuX6gKsUxSqwzDISjUW5VCys1jXkc3xe61YD2kO7QoFW3lr98R1Bk3juxNEfMoBIWarxHQSSOIhcC4jIqYS2ZxXzea6zITLtCiHQhZy1Q7ZWf3xH0CRmP6zGaqHiT3ruDt6yaTj5g2Ug65T9+nKfSsh1XK8lMu2ifb6nZiJnTY/wPrHspw6axJwqqE2be9Rjl5oMqa8+pj9mFOIRaW5fSrIF13MfLWgfqZ+rnvG3L7VyZnkJ/YkBwb/GXMW8hlF3xQ4/FQ8H4V8fsZsHayLRWnAfm/VS2nmJtNdXxwY5a/pyVgxJ06OwEJ+fWDJZt8y04pnRHzzDlUIIm/3OvOsyRwQ24H5at9qAdvsIjZx5V/QmFgRPYm2h8Ec9NB3ML9nLqwU50ASkXB8vyv24r02ONe32cX6slXMMBwoYBE/i+cpqjYy+Pq11Mg+22VpI+/9xWiN3ICsL3Jf7ay0y7ab9Pu14Qr7a9mv1JgSEb4kn6o+yXOORS33FWrt58JGidGUfscL9eY4WtJ/5vC9jo1a+NNd2Wc5nNEYEoz8Hi6UPtU7A7wVGaJZUikZ0XYBSOLYVOkjQmCiff1bew5DGbLF8Tr6bebWp3ti+/XLv0WeZmlImrjNB/s7/8NC5P3txCVxpQb++ep9G83D0uvFD8Qy+Ly5+Vr8SyOPUxxjQaDTiIDFJCPdsz36N+RMaybICh3cXBeS7UyaeVw3ql5MMtG6iC9gMLoC59HkH9CUvk5eqc1MBlTvXKDa7HDXZj0HHBaIhMYkSrLNqlO8bhw84r+YAObF8W8QcbniutfWRnTRP7EySjfLFwV2cG0VH82hbkoQABhmjSAxQWLsDpaMhNRsNCCRx0NmsvVpJFq7XaJHBOQ9mp7vRTgolmP3WoSMaEhNcOX9V9qYBLMbnxRLnPbqElL6Hd4w0T5iHpGuFsLjxhqRpxEjUvEh7EWYgY60bks8RUh8k89MDheikQeaNvJOA8lGxxFn9jg5cvcA+VdVXRENi8I7lOzMFiDJxBm/WEZ6UplktSsEXZGXtkaWLtDKOk9Qd2vsVK85p/wvla76Q7dBJLYveCyx3aaP91x0RyfYlQVQkpgD6Q4rljiNFIS446G8aYawrmT6r5frlQtyN8jczTo+TtT60k/swIfRikV+T3HvvbrWvWjuU3K9Yc+cerrLdfEBUJNZGJonKvmtmX3LXtpHkYSFtetfQOGH9hyE2SrufcPEQccNfMqWR/GTTcGbmG9f6skLhClGRmOoTbF7XEBFhjhM2HmjlyecuntefvHifOObDABJHo8ovlNFYS8xxAscFG7mjJ7EheEvMnPa+p4eTP28dUc2JxjG2wZz4Ffs2kheJNXadg14HgnWnyZG9Y8tIcrsQ15RiCd26mrleFnjP9NbBdO1ko5PmO5lYJnOLdVS+wOZUXWZyI5hLap8PYulrlrmOn9qXHDu1EeySU1AkZi34diHu77cMJ4M7pfHyt9CVKY237deXTJH3mTbQSCb3754KWUZyRDdAdEjNFymcJs2TUxWomrFNfv+Rh7uX8gJCQwCCZG+Y1pe8TKx03jyCOuA9idMWd7mQ2Dfipq0XnUj7GN1tDv/mHh+eI9ZAFCgU3L55OPnCoH4HFiCxg7V2ki3SFPFNnshxzqiFPn66/y63tyQmjfI3m/1xldNkBRCVZIT2dEIEbpN0ANrXrUOBdl0W0H8m1ZFEmg3iw1NGZ91zSbK+mUyz+1If8EXmi8TNfv20hrdpml6RGHf5N0Lem4W8oC4hpglrUgNJMICs7EHtNXciyHbmg9mZYwY863uL3OdyVwFc7FNX2L3rdYcPdM284n6PCaHJPV9JtpzoA+v4eDVGJnXrxElC5tcLmX2aP3tBYs7DvenJ4aa7nJX7XAYQEB2AC4V1xTLOGyWr7Y4cG+uEW3lBYG50O3CrbXZk5cmWwnJvFIav2D7SJPfd8r3OmAhyWyzvcfLM/JVGXaI2EjPq/k6s7k3ierJxoK4RluytpXP6kyMmFw8ckWxyyTr9yQ2xpP9p010BAyZlgIoqP/qD5/Z56W+b+INL8C4zRHwn75edi18mKicxo+rPxOqSHgnqIq8Bo+r1PVw8G5wtbnRW2p8BCtDLtQwJtlMIBs6vHFZ8CsFzz5Dn1uG9pWFcbdI53zqrr/KpESSupAsYOcltPu+hnbvym8siMJ1qOjYL9Deb9IvihsGhPbYidgNtI8gTA4EB78HOMG2f00/f26DsrB5Ablq+2OiELYwuo9fsZ0bP0fcqUTqJiTTzcmVZ37SAqNiAu/adIwZUReVpy61bivU4bt1PN+tL7RDtjGVDugHuJO+lAf1Ef9FvRcDqhabP0QOCh+RMv3I0Z7oMUpu2GDKj91WhNHf6r9tHkmsebZ0tpFVwLYwATMZNpwV66lj9SXEkJ4b4u0L6vHPiT6waUpdJpd1fW+i+5KwPYE3/3JX64n9E/T+zIJ87wrTstAd0rjTEbT+zmQICd25tJQ6Zpa0ydBT9XCrPfkGJNa5LcaeZqxCl/eQjraCDy86BcKQcni5zD8hAsTO2lXXKsHm5PFgz2nLlHZsVH+wARlvtCXy0hXlTjAQGvJfN2U70W15rhbw0vUhb0IN2oC/oDfqDHqFP6JWDmdUu8Fj0Hx7AB3hRFpxaYttEBw2MUpw4tZG8TtxQm5Q4TbUPkMcqYHw1NZ0MUJJYKiz2gqbyaBp5ap5pvR905weL9X2Ohf6tDCxUIgWu9VhTVcYWziwxowwd65LAvDTkIiURQeAS2ea0QnwNsAq2heUJzpgBJgt8DrdqLID3tOkX2yAXctJ6P1r5G6Bf6Bn6ht6hf9p3yQK8gB/wxLVVLkw5FvxZYmBkLEpgOoyv42SO+yWxjFjHIskQr5RrtUIgR1sL22AWdZnLnBf5BN6T99WA/qMfbQZQrZyQO/LPC/QO/UMP0Uejm0XA+8IT+AJvXKGQO03w6BfSqUXX6ugcXpCdPLjMLnfsnPmAzuW1cXe19Y0B70a0vKpdSD4AS2OzdmxTD9zGXXdZEI9gGq72j2TKaPS1CJh//4N4Cu1BN1vkdqcREp3J3KEIgekMyMO6KR1+0ky3BAaMohoQpdScu0tm1n2KzwHej3nQWCIwsF07pj9ZzcgC8mnfKNENWrlrgQzRT/QUfUVvte/XCfAG/uBeM0AUgbUlxvW5SCyRNjupE3h5wu//PKv83GEE/xFpr2awQfBZ5x3ZWIKqg1kmz5hNBOwFpiAA+5I5umX2hCTZT+Z4VQ4orvuKpJpbt2YrHlauSH1xLXCJ/+OJ1jJVEcvMWvbl0t48KxfWaZcQQlOguxvMyFVGlK4XtMpE+3pFM1kS0Z40gSJddnC5a4SA+TnFEu7epgv4kJRx9JRGJdUssK4ssWgGUPo+a1+1drWh6sHTrMqAItz4XI6Bx4rENgLpBBrJVq6yT/brhJufHE5ukBEzq4NpY7cEfWIvNktKZe8TTlsBYKM8vCeowhuy2dkFus1j2e12xfpsA8K7se6L61s18BTYSpuXyHkGfvWcGAt8cU4C06mE6ony1UFgcIxyqYHO/0WXBIQfC2GM8meBz51d0pISgymeBZU18C5os63SmGu4nvtwP82cNA/oB20SBf1G7nEnIBftex433bJDHAH9Rs/zLk3BL3imic2kkfm2uGt5XWiERxCAUH2dG6mZa2jP3eUE/PYlD+aaN4rLpOkDhEfmUhkbHFgNcJ0JZ8jMfbm/a9AP2sPLaQv93B7oQR7IRQPkXOfmEvQcfWfKqB280qAP4JtNbnlPVaAzL15jT2AExmj09YX93iT7v3G6fnT8/VO7dyAJCVovhL5iS5pLuFoN6AXuy/15jutkhFNn96t1iHa0J4C0y6MbkO9bKoy19AIxH/Q/j1Wmr+CdNmrd840vkxvZggaTKcNo5FOesHbeRwf+/Km/9R5WwKThZYF3P00I7PK1ef75K1uBOdvB1Bbcn+fwvHZvpAjoj1NkjqpVZvo7bYmQh/bdfai2YYD+wwP4YEtk8FnxjjTo2jXMTbTpbQa4D0QYiy5glwVtGh4dbjJqbtigVyACRS49Dyzix1Y5NotK8FyXFhnLRCUMDejvb0u/A+SgJYBtmmVVgA9MK23d6/tlbtwtRpBGR41jYq2dAxrQ0UTWyl73LYITRZE0Hcl737ypZQ1u36a3wq7zoy9cpY+GlwHXz6cUklaR7x6NTSAHjR5yX+TrKxjc4YeNRea94WHW/LjjW1O7yGbuRcOIyvmeH0zQgSJnGpDjesVafT8QUHH5/l8WGWizk8oCz6cdrsBBZtr+p9+XyXROu1d7ifR/ncFTDdAPeGJDZPoBPeyFPVQU98VGeQyBfe9Ag5Nm6OcnzA81wAq8Z7bFqJcBUjtvky8bT6gM8HzaQXtc4SyZbmmtsbb/kacvAa0swBNbIsNHM73rhD3e/HrxwbXKQ0MuFRchFAID3H3X5HiNWBiXKX7XDObPinMN2kF7XIF+or9cgjb6FNDKAnyBN1oi837wsht2UxXYblvwzXcXuhPeNF0fKc0C9zlV+sEVbGRQFWhPL0tgC/rLZf8jz9AAb+CPth96yWC3t9cGEcAxU8It+Eak1JWDSETU5VIaqZS+WGED2kO7XIH+0u45zgJyrDIP3yXgDzzSABn8qst6+a63JxLIKQwaMHq8f66fy0gakNFzrIPDppnb/dMB7vqBVQFON/ARtMs2HbAXsMbauXEvIMc6M7SKAh5prTFbNjut3+8i8b1Pt04dzAIPjGGP7Jtl9NZ2XidwLemELhXo1qf0R6JUDdpF+1wBa8ym+CJgEECOIQMesWFDo4v0Fjxtx64euGubzpXmMycE6kanwZyE5IwieNv+bk3AX5Rr0nXBdftITy0ykHJ+VogxmXYwHdByD562Y9el2u1ibJx3OAWsFZyjk0eJuIZtlS6tMHmyvrrSBrRPm8+rAdY4b5YVMkB+MQA+mcL2WejE02YvIBjN/ISO+3tf/b0cILCgGQE7wbUV5sxe38dG2kc7XYKYQp6BFLmFGljtBG2ddHjaPpA2e4GSLloFCmlNWAPb5SY+69oKAw7dDgEbnx/9wRHoR1trjAwoqhgTDp2k6wM+BV/TaPaEMrOtOfqFHAnshDzbBl1GpA2ohxUCNhcprtYFbFW0tcahLit1A7zSeoXtfG1eFooClQHmI9q1OsBny4jMO/ZSS0MZ7aQ/bWUQS1wmD9r52lRHKiKOVTC/uMMi6spnXQZ3DCYEopRltJMtjz7IIBS087X5q3ZUw+VxXfWhbnDouS3+6zH3nRDKQFpGO+lP2wBjHrn5DHilnVK087XZdVMHGuo0RJvaPyHApmoE4LNUNHRtCQ4MJGDoup0or7ZyigEyQG7aWE4I0PKKT1E/PI2m+jKp1qwc0Xn/7SJXzhNQR9o2oGLg2hrPDsSfdt3OPFYYILffdalMGiLglaYf4Gl7TGbXr4cpR1gq8McyAt5kWb3EgGuwxi6nFgimaAZZ2aB9LoN65AHbWmEDZPDTSEgMnzQnWwDqmbdjl0hesa9us3wsIyAb3YtWzvjR426t8cun5CuoVgVoF+1zie8pT9PoBuTnsmBBXYBPWu69tIMMdnXhi/bRzYvpdI6sCN0a/zSnFTZoWgLH1pii5z53q8ui7FjhPxQkYFMGIseQQWxFe643vQVP27HrUvJYqVOkAQ90WXupaqBAFGIrCuYnLufGVL0gqd9H4Eq7rF6CFXaRwYscQ14x+ariaBoD+Nlp7/pul1OnSOvOsVZHYChEUIzclToyp+u0xzMv8m7KKBO0hzObXMGFFTZAjhxoFiLgj3Z9HBlwAEIn7CYZ6hTZ1AbmhMCyzvApE7bLSr3AfbAqrkBSv1YGVYH2uCxF7MoKA/o/Xew/FMAb7QmboJcM9vjrGRaHQ9MADoAKae2YOkWuLR1WxWXVC+oz+2KNaQftcQX6yZUVNqCNLmuAlQ34Am+0BOb94GU37PEf2G6z1EFDPrgqHCLb1BHjHB0NsCrmxAIXoD4zNajqJjLPpx20xxWuHdRbYW3/I0/kGgLgCXzR6iCAj708oY7/ufAgfaV+YIjsu2tNB2rriKFAH5qnrwPFkRsu3/8D8/prXzfm+bTDFVgO0vY//U7/a4nMfX03JOiHLYHpB/jYCx1vx57hd1oGWGgYx2P6HOz65UadFeC9KTJPJFBbI5n3v8bx0aBXLKiXxa6fT/1qrRWm3+l/bbF/7ot8fQW8gB82BOa94WHWHv6ut3y7+OCLLPNk6Ugm62Wcc+sC2uwgOtq4LzY1kkk+cDmIkQ575QJ3ltAGPNfl3nEiyDY1zU0tb+SgVfy82V9lAz7AC+0AZgD/4GEWen7ik/PtpUiH05mfELfB5dJLUWgDHyhQuhi5qQOlITLv/t0n3CbC8PyrFw4kk+Xe2sEkL7g/z/nKYQMd1yPzgv74/pO6SCxtaK/lbVN9xacAF/oPD+CDdiBKQ8u/nrcmT/ZSuZGt8tBgDsJ638ohb9bwKLyt7cjj29bjqDyh5SV99WOHhdYBFvEaIRbKbROrsAH35f48x2V+NODQcBsdendbNLxdHt2AfLsVWK8a6D36Dw9sCUxfwTutHDI/hj/+uUPyLXngPpBSxmhUZ9CBEZHAkwZHTdozK4bO1MYIENj3RYBlZBFxzi3HY7q0ytyH+3HfMs6Vpu9JT9UoMm2hBnO7E4A8kIsGyLlODxA9R9/Re1v3GdAH8M2mlp3qMaTbcQBUHiuA8BiNiMrd4PBgLhuQoaUBHXjCtM6dRy0u7YjK575ZUlyAOstYSw5zN2TmywZ8HllyPffhfmXVb+aQdq0yk9Bw0szOH0Yu2vfUyts10G/0PI/1Bcjk4nn91umtjRHB6M+ZYKH+o6vtImxpIASuPUUEVWWhs6UP7VQdk0n7frC4e0SWoJU2ywaBYN3KLm7OyH+7zLl+Lw/U7Mpi2eh4YdWx4jqXXbmUJRUishoS0/cMKL3WQ9+xfKeq7xmcGJiqAq4zlhcU4QYW2JrAjYYdiQGuykVC5CJFD2kwykQ+bi+huQADz0ekvRpFooB3lkupHRBA1crEjhjKmW54LkmeHR5pFlSjnM7EvkYye0KrIoTr+W4v2PQV68GfyYjEE+X9kyLbiwH08zkIYQuCaBw0x+CZl7xgQJp5ubQ3TzAREls/mgcRLaXTIWMe8MII9wuDw01BlxlR1J5vhOBfpyhGfvZs/bQC4VYZ2IOgWFdy4BkcycPmO7/z9yoJfPOT+sPq6c/TRpeUegH5aPoeebs8N6od6Ct6i/6ix0WsLzyCT3kIbJDr8SgDo2bRaGmazGc+sLMpeNe1q7QVE9gCqBm5SUG02bKJmxXyVrk84H1vsDii9ehJDdW0A/lot2pq5a4Feol+oqdFyQvgDYcQwKOig2uhy3E9L5B5TFGYzkDw75ZOIkDgIppNmp/GW+AzJ1pseD9L3lk7ePFuZQW5fAXvq1Vw+vGcA/V9j5y0MnWRBoseoo9NvRxdOixCXoOL5vYnpzvaWFK4ObhruAPzJxRP2Kdz+GIUJcpHqL6Iq/0XaZC2w48Rr0ILXFOONdW+L3tGfc8rdwXe02aPLP1o40pq5YTc/1RAd9A79A89RB+NbhYB7wtP4AtTHFewDmz1gk30VgtDFFz3V8qAYRPt1UYz6dhlh9iNiixFnvOgctInqDrIVRdsglngG4cPWJ/msGz1ULJGcRQFutNrtaEdDEAQ36Rvutbj98u83/UhcLkCW71AA79zxEBylBCtyFw5DTMCEpVkueJsIc4PZZ6Z5W5rC6jRucdZWGEDFO8sy7xq5lQxwyaYRb/Rf3niOchL2+9ZeoAeoU/oFfqFnhmdcwF4AB/gRVmnODq1xGkwqrGrp2j4vROMAM2a58vENWkPStksR1wv1iBvsj8uF4v7GtDury3Mt5TgO1h6PHelfi6sWVLqBgJnZwjp8i4bsux4p7jI6bX1MnQU/Vwqzy4zVyDXOrEtcLHZFMBLue4oYAjNvREY57y+cEojOU/cOs1adhFlAozk5wuRNQoFij7PV9gMZgycV0sfFEk20T6PNVg2dPyfzNOJkTCwp3XGNbg3mWdU4ig7BwJUQmID1kvZyVIWmQ1sBMRnXcxTsPranSqunukTbGIhvD9LK0Ujs78Vffq6uMHaZ4Ky9Y77V52NWCmJDaoiswZFXWkD2yAX736dg+f6AFzbM+XdbWSZJ5jVDhuXukzURV4D54EtDXjR62SSn07grwskDuAOF00wQSFtitsh9FjWjqk/riUw/ZM3mJUG8kJuddbo5l3MBhL0uc5Dzyu3xO0gAHaTzJkpAo5sq7bOhngEIRbt3WiedTNPvjNfs7WUn1kzlDyUETU3wAtgwd/lemHVuGvrSHL5en08gPO+PmFZaAKLC2Efla97RVdWPDOSDIrTU5euIF0yzE6eZbfcWRZqcae7gegmZ85yUBmoWkAGaWsKsQ8VxTtEvhYKsdlEcMCE7qfU1+Va1gGmEKeu0L8r/dprCsH9HnuutXljpRB1uQzqBK7SS1Z16wRz+TeL2+zT6oJXJE6DbBlKkK4YtWp1Cc8gTWxA9HGJjMZzhdAzheic2Ttrr9bmELMtTdtmLP8FGdUMfcRVa4eS+5VH4dB/JpiHK7xByIplXSeEXS8/Y13b15d9kTl1rijWV0WkOQ+8JbEB1pkN3qzn1eVC9UKa3HQi7cN622QscY+sfbS+gUGWTQA2smBpDcvKNCJtx3yTJ3Jkrk3+AWWBfF/T957EaZgF+l+LAm0Ut9U3QhcF0U0x7Mm0gUZzbXOqKBL6M1HecUp/tdsIcW3Zi8ye5GflO79vkUF025CQUPqe1YVYYAZikzhURbEElwiKxGkQ6GivZhE6odNWvRd4T6KiBtOE4AbGaJjvFASAjGlAyPR3sFnIifdg04aQETpx0wiWxGngct/79EjyZ7HS2sjwOMYuiJBzoD7n/MaQ/hoFiQ2wLDbR0nGMTYS6GtANkDgalSc3Vgut2ziOMKCVJ5+z0ZNQEA2JVyiXOwgavXf/vqZbxc9ESxHuOLHDgJEVckN+yJFa1fysgVZPQkI07rR2ozh7O9Mn/TGnfmB7a82SBAPm1WlCj7vn9aF9YD1y70Zy6MQkedGUvmT+3q11eQPtunWeAhA+I5o5sXY+jFJghbPyXMm8elgUYo0QmsSElc+2CuCPk7sctJPVpMCSJTdfLO1cIW5WEEqbZMOzbKp9+I5oSKwtao8LVqQeMVZ7PYQWYg/K11qx3pCb5RmfkxjqRpqkKBv9BFFniQ988IQkOUiIeqBYSA1Zu0GrA7QlT5F2XxENiW32s5YRncQTYD2W9etN8guu+eadQvTndyc54NExEhxyGEViQwRr2WRpkStNeuo8IesM+Z301DKSV5CBZjso7YxpP3c0JGY73D0yr81C3fMh3PQ/b7bLrTZIW7OykadtTFP+bt9GM+PM9SCphTYuojnpIxREQ2KKnGWV4kHRTpG5sObQ5rLBoHPbaEE2LT51cH+THAwEz6UIbd6bFEmD9iytNMjiSoMjXojsTpC/YzWxaJc8Ig9Rgn59tZAiHSysCxS840TKrH6NqfJoFCRG6d61IrvCA8rGiXOc4FA3aLO2BphBnr24eWCzJxowAFDDqi7rmwaVLS9VFClgavOfi+JI+oDEGa/rP5iHamVB4MQHoDyfFstq4yLfs6NVWrVMcH+eowXt5z18IYNWvjQXvYkFwZOYpSANGJ19ypUl4Z55pJbItP9GcRW19bRtwX25v9bFp92036eNA8hX236t3oSA4EnMWq5GcAS1fAPr1doT8AFTBtxFlrpcgvtx36wpSRq0u866Ut2gkTP6gt7EAv+kYImHnx39oQewGks8qIfUCR8Td9QGKOAymbe64jH34X5aC2Zg2+6qQEaXBhq9CQXBk3i9UptZp/QRePhEnm3mx6w7X2kRQe4F7mNbicREyn3EIvEQNH2p1ZsQEDSJqdekjfBSB8tXkD3E/NIkhGhAAIojN4uA620CWbSPRAmfs520ckZvipYq9gVBk5hyMZpRFzWd6avpGAXzy9fsoz8oDPf3p5tHch/92ixGKNdr3WjaRft8z3RCzpphifdBf2JA0CQmj1kD6BvCaQskTJBTrAWBKArWkTdsAz5vW+iOdvmQ0JEF5KwdrrX64zuCJvGTynkNZUdDwbL5dvNjiEiGFZlcGvA5Pm9DYNpDu0KBVt5a/fEdYZM4O9+9idl7jf4QAFjrJLPMZn4MLlyl6wzt5wxoB+3xaY09C1p5a/XHdwRNYgqPayzKtHCMSBOkhr5nlj4RBBBhZgNAL/B/20g07fAhVdUGGnmjN+hPDAiaxBsVIymKOMfDRI8snDSzr7mxwIbI98tcl80VncDf+b8WPJfn047QgLw1/aadgviOoEmsndLsH5ArmAaBJJv5PNaF3VHtS0/8brtriueGEMjqhKnKZtt4JT4jaBJT9FyDyWHqYhMfz5HRxdIR5WoA322Wkgxsn+sTKDqggVZ/fEfQJNaOpO17aEMCSyZkSNkEuiAshQewwLYFCHBDL53fH8SSXDdwBI4G45a4ZuBKa+Y9jLX7BKyQgAwpzjK2mR9D3Fu32llg7n+hPCfUI00MkLfGxvK+MawyBUti0ua0/a91r3wGh5FTX9mGyDbgvqR+hnzouYFW3uiPTWEGXxE0iTUIXyX/BiLFJ061i1hrwP24r49bC/NCI3c+M07iGpGuKTWWQIE39vK6IjL34X6xFI6zQSwaFM/Q2wXMCbVHfIQCam25SiXlPlXU7qoa2lhADMYgehKDGFymdlB6N31OcR5wfUxHmoxVBEtiSq1q4Hr+6AvIX/ncoQO5vQyu4/pA82AyoZW7Vo98RtCWOFL9U4NzovJ6GVy3MZJdPHmB/sQw1QqWxCRwaFSQz8ToTv91e+vsoSL44Kqh5n1iA/LW6sY4iWuGpv/5zJbIWEx52Yst9wR3Atdzn7LK4NYF5K3VjRgQLImZy81QxmRi2a0CODzuEsUpB1pwH+7HfWOBVt7oTwwxgWBJDPZX+kKcVBgDOKGB0x9t6kNrwP24b9knTFQFrby1+uM7giaxdomFo0ZDx7ceHVIdFpYX3Jf785zQoZV30SU6XxD0a8xRlGFBOUOv4EBFjl9usd9OaLu8xv15DoeqhQxtxReN/oSAoEnMCfMaRd3w/OgPgYG53dKHdjbP3M1DYJuzngx4Dqci8txQYwkaedMv6E8MCJrE2oody0UpQ5sWU1b2/JU7c+15RUG/tKC/uaGB77ZEBjyX59uWw60byBl5a3BggGWbOiFoEs/fe/SHDCCqhwI6BY9I8UcKrAF/beHf9gTznd/zgnaYKiEhADlrqenLUbdFETSJbY6yvG9bGCSmoF3eCDTB1ivF8raXl+V3/p4nGEs7qA7SrQCfb9DKmeWlkMrw9kLQJAacoJ8FiH635yTmeFHmobYF7QDuMpFWTuzvppj8/eqFA83P5Zkn0y7a5/pYVddAzpr+OyQSVxpYqot/eMkUXXBrhcyTfFVA3Of3rWzVhM5DYPYDXyMEzjIsk+TefC7PfmTaRfvOlXb6mhiCfJFzFnh39CYWBE/io/fRHaAF7tjiF4k5le+qtfndZ5SRihy2+4H5fN4KIZCZ9rIM5dupglr58in0JhYET2ICNxoCoHw/8ciC3LV1JDlP3NP7d9i7z4Dql9TcyluRg+u43va4GEB7WYai/byHL0C+mr5EX0IvBphGDvXxD8cpi7ttGmq5rnWCtVes7xXr8weKsKCfmtdf+HQGruc+eSyyAe+BVa57TRm5Il8NtPoSCuIg8XRdUgOj9HefqI/ELNWc+WB+6wuIMLNk5Op8JO7DWnLeNGJjlXmvm5+sr2+Rq6ZP0RP0JSZE8TbUZdae64sQi56wbwu2+hHZtS3kngbtJhLfKwKdF7iW3Jf757XKvNcNQiTes+qtjeR7a9uNnqAvMaExIhj9OWhg5bQkYR54wZy+5Nhp5Y5hZDtdOzjczCDKE7gyoL2cTljF4WbsZLpR+rJoexfLgHDaAX3JCyaXS5jbNw8nV0kfa9oL0d8vbXrtjPL7sSo0Go14SMzq0Tni0mmBQDl3t4xjO6mWcaOQgVMI81reND4m7SybDGnQ/isdJHcYMp8sg08ZRemx+Jda7q2+7gilyxYIoiIxYE6GS6cVKkp21v59ToqmM4j88anh5CaxYhtkLClKXgYZ1nM/fFB/c323arB89NlHWsehungXMqROln5+jcxHXbwPnte1MlBqPQbaQDQ+xKNaeyE6EoOzxRrbVONBuEfKHOksca9tlx0g7r1iDW4Rl+72ba2cXReWlzaxA8mHExlspilZ4L0QzdEyOJ0wrZEcJTe1JfQ6mZowRbEdXAjcffPwuKwwiJLEuIKfFAtiO6fDKi8RMh83tZEsEtd1v70aTcETQ4Ksz8j/KTS+5pnWftU7hbzm0G4XCg5Qcoq5f2hen1d5vWRCfXHdcDMbyuW7AgbQJdLfi4TYbEiYJp1uXp1+Z0CmKucKkeutW0aS+6TP88j2soOrnZJUhShJDIhW5tlED4xygfT16b8DV8ps4NK1Lwu2LqwW3foc9PqfBlxPdlqsx9RES2LAUkcI58+iZMx9OZU/hDOBSepgR9M9Bda6qwQbPsgXjxVRkxhlY1O7r4C8BHuWziknQl42iAxfMzjUzJLymczs3Ar5wPQsRE1iwFyOXTc+KZlxD30JXBWFWREAvvUzmW2x7BnuhuhJDCDyRauHaj8FwpD3FCHu24XAMYEA1I+FyFTLBHWTmYDk5YfET2AwJkgMUDKS9F0lX9gA8vLMN03vS948080aqa9gbflnYpl//tTwrveuEjyTaDdbLccAf5sYMyQ2KCu62glEm+cMtBIcXiUEHitKBRg0f7eplfhS1Zw5hOh+GRhzJAYEvK4fHGqWmwEuFcxYn1fu00heN6MvukT7PGDd/tdC6Hvku2vrzP3Aq6W/z5gTRnTfNcYkiQ2YK+P63bq1pVzAVsG4js7Dsh81uZEcP60vyEhzFcA6k932RzGZEBrLSU/l6XPAdUxRjp/eGBNz324Y0yROg91GVElcvkO+5OdeQTCCJhRZWzypkcybQNlc+W6ZrjmOVvrkGulrjlyh31dnnLVMvy+Wvqbfl0xpjHs5o2iSWL6PeRKPYxwhw+EMZRzjGEf1SJL/B3szrFc4d3biAAAAAElFTkSuQmCC;fontSize=14;fontStyle=1;aspect=fixed;fontColor=default;labelBorderColor=none;labelPosition=center;align=center;" vertex="1" parent="1">
          <mxGeometry x="320" y="40" width="80" height="80" as="geometry" />
        </mxCell>
        <mxCell id="JKCkF7Gh0FQH5l83bfCf-4" style="edgeStyle=orthogonalEdgeStyle;rounded=0;orthogonalLoop=1;jettySize=auto;html=1;exitX=0.87;exitY=0.65;exitDx=0;exitDy=0;exitPerimeter=0;entryX=0;entryY=0.5;entryDx=0;entryDy=0;entryPerimeter=0;fontSize=14;" edge="1" parent="1" source="JKCkF7Gh0FQH5l83bfCf-3" target="enBXVZd6Rh-vrk_y9_wr-1">
          <mxGeometry relative="1" as="geometry" />
        </mxCell>
        <mxCell id="JKCkF7Gh0FQH5l83bfCf-3" value="" style="verticalLabelPosition=bottom;html=1;verticalAlign=top;align=center;strokeColor=none;fillColor=#00BEF2;shape=mxgraph.azure.user;fontSize=14;" vertex="1" parent="1">
          <mxGeometry x="10" y="48" width="47.5" height="50" as="geometry" />
        </mxCell>
        <mxCell id="VRYah3EjvfzrCM_-gziz-5" style="edgeStyle=orthogonalEdgeStyle;rounded=1;orthogonalLoop=1;jettySize=auto;html=1;exitX=0.5;exitY=1;exitDx=0;exitDy=0;exitPerimeter=0;fontSize=14;" edge="1" parent="1" source="KvJEF60NvhNmNptdvNRv-1" target="VRYah3EjvfzrCM_-gziz-3">
          <mxGeometry relative="1" as="geometry" />
        </mxCell>
        <UserObject label="https://api.{env}.callloop.com" link="https://app.diagrams.net/#HCallLoop%2FCL2-diagrams%2Fmain%2FApiGW.drawio" linkTarget="_blank" id="KvJEF60NvhNmNptdvNRv-1">
          <mxCell style="sketch=0;points=[[0,0,0],[0.25,0,0],[0.5,0,0],[0.75,0,0],[1,0,0],[0,1,0],[0.25,1,0],[0.5,1,0],[0.75,1,0],[1,1,0],[0,0.25,0],[0,0.5,0],[0,0.75,0],[1,0.25,0],[1,0.5,0],[1,0.75,0]];outlineConnect=0;fontColor=#232F3E;gradientColor=#FF4F8B;gradientDirection=north;fillColor=#BC1356;strokeColor=#ffffff;dashed=0;verticalLabelPosition=bottom;verticalAlign=top;align=center;html=1;fontSize=14;fontStyle=1;aspect=fixed;shape=mxgraph.aws4.resourceIcon;resIcon=mxgraph.aws4.api_gateway;" vertex="1" parent="1">
            <mxGeometry x="500" y="40" width="80" height="80" as="geometry" />
          </mxCell>
        </UserObject>
        <mxCell id="KvJEF60NvhNmNptdvNRv-9" style="edgeStyle=orthogonalEdgeStyle;rounded=1;orthogonalLoop=1;jettySize=auto;html=1;exitX=1;exitY=0.5;exitDx=0;exitDy=0;exitPerimeter=0;entryX=0;entryY=0.5;entryDx=0;entryDy=0;fontSize=14;" edge="1" parent="1" source="KvJEF60NvhNmNptdvNRv-3" target="JKCkF7Gh0FQH5l83bfCf-1">
          <mxGeometry relative="1" as="geometry" />
        </mxCell>
        <mxCell id="KvJEF60NvhNmNptdvNRv-3" value="https://{env}.callloop.com" style="sketch=0;points=[[0,0,0],[0.25,0,0],[0.5,0,0],[0.75,0,0],[1,0,0],[0,1,0],[0.25,1,0],[0.5,1,0],[0.75,1,0],[1,1,0],[0,0.25,0],[0,0.5,0],[0,0.75,0],[1,0.25,0],[1,0.5,0],[1,0.75,0]];outlineConnect=0;fontColor=#232F3E;gradientColor=#945DF2;gradientDirection=north;fillColor=#5A30B5;strokeColor=#ffffff;dashed=0;verticalLabelPosition=bottom;verticalAlign=top;align=center;html=1;fontSize=14;fontStyle=1;aspect=fixed;shape=mxgraph.aws4.resourceIcon;resIcon=mxgraph.aws4.cloudfront;" vertex="1" parent="1">
          <mxGeometry x="130" y="160" width="80" height="80" as="geometry" />
        </mxCell>
        <mxCell id="KvJEF60NvhNmNptdvNRv-4" style="edgeStyle=orthogonalEdgeStyle;rounded=0;orthogonalLoop=1;jettySize=auto;html=1;exitX=0.87;exitY=0.65;exitDx=0;exitDy=0;exitPerimeter=0;entryX=0;entryY=0.5;entryDx=0;entryDy=0;entryPerimeter=0;fontSize=14;" edge="1" parent="1" source="KvJEF60NvhNmNptdvNRv-5" target="KvJEF60NvhNmNptdvNRv-3">
          <mxGeometry relative="1" as="geometry" />
        </mxCell>
        <mxCell id="KvJEF60NvhNmNptdvNRv-5" value="" style="verticalLabelPosition=bottom;html=1;verticalAlign=top;align=center;strokeColor=none;fillColor=#00BEF2;shape=mxgraph.azure.user;fontSize=14;" vertex="1" parent="1">
          <mxGeometry x="10" y="168" width="47.5" height="50" as="geometry" />
        </mxCell>
        <mxCell id="KvJEF60NvhNmNptdvNRv-10" style="edgeStyle=orthogonalEdgeStyle;rounded=1;orthogonalLoop=1;jettySize=auto;html=1;exitX=1;exitY=0.5;exitDx=0;exitDy=0;exitPerimeter=0;entryX=0;entryY=0.5;entryDx=0;entryDy=0;fontSize=14;" edge="1" parent="1" source="KvJEF60NvhNmNptdvNRv-6" target="JKCkF7Gh0FQH5l83bfCf-1">
          <mxGeometry relative="1" as="geometry" />
        </mxCell>
        <mxCell id="KvJEF60NvhNmNptdvNRv-6" value="https://{env}.callloop.com" style="sketch=0;points=[[0,0,0],[0.25,0,0],[0.5,0,0],[0.75,0,0],[1,0,0],[0,1,0],[0.25,1,0],[0.5,1,0],[0.75,1,0],[1,1,0],[0,0.25,0],[0,0.5,0],[0,0.75,0],[1,0.25,0],[1,0.5,0],[1,0.75,0]];outlineConnect=0;fontColor=#232F3E;gradientColor=#945DF2;gradientDirection=north;fillColor=#5A30B5;strokeColor=#ffffff;dashed=0;verticalLabelPosition=bottom;verticalAlign=top;align=center;html=1;fontSize=14;fontStyle=1;aspect=fixed;shape=mxgraph.aws4.resourceIcon;resIcon=mxgraph.aws4.cloudfront;" vertex="1" parent="1">
          <mxGeometry x="130" y="280" width="80" height="80" as="geometry" />
        </mxCell>
        <mxCell id="KvJEF60NvhNmNptdvNRv-7" style="edgeStyle=orthogonalEdgeStyle;rounded=0;orthogonalLoop=1;jettySize=auto;html=1;exitX=0.87;exitY=0.65;exitDx=0;exitDy=0;exitPerimeter=0;entryX=0;entryY=0.5;entryDx=0;entryDy=0;entryPerimeter=0;fontSize=14;" edge="1" parent="1" source="KvJEF60NvhNmNptdvNRv-8" target="KvJEF60NvhNmNptdvNRv-6">
          <mxGeometry relative="1" as="geometry" />
        </mxCell>
        <mxCell id="KvJEF60NvhNmNptdvNRv-8" value="" style="verticalLabelPosition=bottom;html=1;verticalAlign=top;align=center;strokeColor=none;fillColor=#00BEF2;shape=mxgraph.azure.user;fontSize=14;" vertex="1" parent="1">
          <mxGeometry x="10" y="288" width="47.5" height="50" as="geometry" />
        </mxCell>
        <mxCell id="NWOrLwlLgG2YIq6RtZkn-3" style="edgeStyle=orthogonalEdgeStyle;rounded=1;orthogonalLoop=1;jettySize=auto;html=1;exitX=1;exitY=0.5;exitDx=0;exitDy=0;entryX=0;entryY=0.5;entryDx=0;entryDy=0;fontSize=14;startArrow=none;startFill=0;" edge="1" parent="1" source="XVXjPDOLn_KU066pgajj-3" target="NWOrLwlLgG2YIq6RtZkn-1">
          <mxGeometry relative="1" as="geometry" />
        </mxCell>
        <mxCell id="XVXjPDOLn_KU066pgajj-3" value="Billing service" style="swimlane;horizontal=0;fontSize=14;fillColor=#dae8fc;strokeColor=#6c8ebf;" vertex="1" parent="1">
          <mxGeometry x="340" y="480" width="440" height="340" as="geometry">
            <mxRectangle x="340" y="502" width="40" height="170" as="alternateBounds" />
          </mxGeometry>
        </mxCell>
        <mxCell id="XVXjPDOLn_KU066pgajj-5" value="internal balancer" style="sketch=0;outlineConnect=0;fontColor=#232F3E;gradientColor=none;fillColor=#4D27AA;strokeColor=none;dashed=0;verticalLabelPosition=bottom;verticalAlign=top;align=center;html=1;fontSize=12;fontStyle=1;aspect=fixed;pointerEvents=1;shape=mxgraph.aws4.gateway_load_balancer;rotation=90;" vertex="1" parent="XVXjPDOLn_KU066pgajj-3">
          <mxGeometry x="115" y="20" width="80" height="80" as="geometry" />
        </mxCell>
        <mxCell id="XVXjPDOLn_KU066pgajj-17" style="edgeStyle=orthogonalEdgeStyle;rounded=1;orthogonalLoop=1;jettySize=auto;html=1;entryX=1.038;entryY=0.488;entryDx=0;entryDy=0;entryPerimeter=0;fontSize=14;startArrow=classic;startFill=1;" edge="1" parent="XVXjPDOLn_KU066pgajj-3" source="XVXjPDOLn_KU066pgajj-6" target="XVXjPDOLn_KU066pgajj-1">
          <mxGeometry relative="1" as="geometry" />
        </mxCell>
        <mxCell id="XVXjPDOLn_KU066pgajj-6" value="Billing Service" style="aspect=fixed;html=1;points=[];align=center;image;fontSize=14;image=img/lib/azure2/general/Cost_Management_and_Billing.svg;fontStyle=1" vertex="1" parent="XVXjPDOLn_KU066pgajj-3">
          <mxGeometry x="350" y="150" width="80" height="80" as="geometry" />
        </mxCell>
        <mxCell id="XVXjPDOLn_KU066pgajj-4" style="edgeStyle=orthogonalEdgeStyle;rounded=1;orthogonalLoop=1;jettySize=auto;html=1;entryX=0.45;entryY=0;entryDx=0;entryDy=0;entryPerimeter=0;fontSize=14;" edge="1" parent="XVXjPDOLn_KU066pgajj-3" source="XVXjPDOLn_KU066pgajj-5" target="XVXjPDOLn_KU066pgajj-6">
          <mxGeometry relative="1" as="geometry" />
        </mxCell>
        <mxCell id="XVXjPDOLn_KU066pgajj-7" style="edgeStyle=orthogonalEdgeStyle;rounded=1;orthogonalLoop=1;jettySize=auto;html=1;fontSize=14;" edge="1" parent="XVXjPDOLn_KU066pgajj-3" source="XVXjPDOLn_KU066pgajj-5" target="XVXjPDOLn_KU066pgajj-8">
          <mxGeometry relative="1" as="geometry" />
        </mxCell>
        <mxCell id="XVXjPDOLn_KU066pgajj-16" style="edgeStyle=orthogonalEdgeStyle;rounded=1;orthogonalLoop=1;jettySize=auto;html=1;entryX=0;entryY=0.5;entryDx=0;entryDy=0;entryPerimeter=0;fontSize=14;startArrow=classic;startFill=1;" edge="1" parent="XVXjPDOLn_KU066pgajj-3" source="XVXjPDOLn_KU066pgajj-8" target="XVXjPDOLn_KU066pgajj-1">
          <mxGeometry relative="1" as="geometry" />
        </mxCell>
        <mxCell id="XVXjPDOLn_KU066pgajj-8" value="Billing Service" style="aspect=fixed;html=1;points=[];align=center;image;fontSize=14;image=img/lib/azure2/general/Cost_Management_and_Billing.svg;fontStyle=1" vertex="1" parent="XVXjPDOLn_KU066pgajj-3">
          <mxGeometry x="40" y="150" width="80" height="80" as="geometry" />
        </mxCell>
        <mxCell id="XVXjPDOLn_KU066pgajj-14" style="edgeStyle=orthogonalEdgeStyle;rounded=1;orthogonalLoop=1;jettySize=auto;html=1;exitX=1;exitY=0.5;exitDx=0;exitDy=0;exitPerimeter=0;entryX=-0.062;entryY=0.2;entryDx=0;entryDy=0;entryPerimeter=0;fontSize=14;startArrow=classic;startFill=1;" edge="1" parent="XVXjPDOLn_KU066pgajj-3" source="XVXjPDOLn_KU066pgajj-10" target="XVXjPDOLn_KU066pgajj-6">
          <mxGeometry relative="1" as="geometry" />
        </mxCell>
        <mxCell id="XVXjPDOLn_KU066pgajj-15" style="edgeStyle=orthogonalEdgeStyle;rounded=1;orthogonalLoop=1;jettySize=auto;html=1;exitX=0;exitY=0.5;exitDx=0;exitDy=0;exitPerimeter=0;entryX=1.038;entryY=0.15;entryDx=0;entryDy=0;entryPerimeter=0;fontSize=14;startArrow=classic;startFill=1;" edge="1" parent="XVXjPDOLn_KU066pgajj-3" source="XVXjPDOLn_KU066pgajj-10" target="XVXjPDOLn_KU066pgajj-8">
          <mxGeometry relative="1" as="geometry" />
        </mxCell>
        <mxCell id="XVXjPDOLn_KU066pgajj-10" value="Database" style="sketch=0;points=[[0,0,0],[0.25,0,0],[0.5,0,0],[0.75,0,0],[1,0,0],[0,1,0],[0.25,1,0],[0.5,1,0],[0.75,1,0],[1,1,0],[0,0.25,0],[0,0.5,0],[0,0.75,0],[1,0.25,0],[1,0.5,0],[1,0.75,0]];outlineConnect=0;fontColor=#232F3E;gradientColor=#4D72F3;gradientDirection=north;fillColor=#3334B9;strokeColor=#ffffff;dashed=0;verticalLabelPosition=top;verticalAlign=bottom;align=center;fontSize=14;fontStyle=1;aspect=fixed;shape=mxgraph.aws4.resourceIcon;resIcon=mxgraph.aws4.rds;labelBackgroundColor=none;labelBorderColor=none;fontFamily=Helvetica;labelPosition=center;" vertex="1" parent="XVXjPDOLn_KU066pgajj-3">
          <mxGeometry x="195.0000000000001" y="100" width="80" height="80" as="geometry" />
        </mxCell>
        <mxCell id="XVXjPDOLn_KU066pgajj-1" value="Distributed Cache" style="sketch=0;points=[];align=center;image;fontSize=14;image=img/lib/mscae/Cache_Redis_Product.svg;fontStyle=1;labelBackgroundColor=none;aspect=fixed;fontColor=#000000;labelPosition=center;verticalLabelPosition=bottom;verticalAlign=top;whiteSpace=wrap;spacing=5;" vertex="1" parent="XVXjPDOLn_KU066pgajj-3">
          <mxGeometry x="195" y="210" width="80" height="80" as="geometry" />
        </mxCell>
        <mxCell id="NWOrLwlLgG2YIq6RtZkn-2" style="edgeStyle=orthogonalEdgeStyle;rounded=1;orthogonalLoop=1;jettySize=auto;html=1;exitX=0.5;exitY=1;exitDx=0;exitDy=0;entryX=0.5;entryY=0;entryDx=0;entryDy=0;fontSize=14;startArrow=none;startFill=0;" edge="1" parent="1" source="XVXjPDOLn_KU066pgajj-9" target="XVXjPDOLn_KU066pgajj-3">
          <mxGeometry relative="1" as="geometry" />
        </mxCell>
        <mxCell id="NWOrLwlLgG2YIq6RtZkn-4" style="edgeStyle=orthogonalEdgeStyle;rounded=1;orthogonalLoop=1;jettySize=auto;html=1;exitX=1;exitY=0.5;exitDx=0;exitDy=0;entryX=0;entryY=0.5;entryDx=0;entryDy=0;fontSize=14;startArrow=none;startFill=0;" edge="1" parent="1" source="XVXjPDOLn_KU066pgajj-9" target="vnhiXVCFl-J1-bnZWNb9-1">
          <mxGeometry relative="1" as="geometry" />
        </mxCell>
        <mxCell id="XVXjPDOLn_KU066pgajj-9" value="Config Service" style="swimlane;horizontal=0;fontSize=14;fillColor=#d5e8d4;strokeColor=#82b366;" vertex="1" parent="1">
          <mxGeometry x="340" y="160" width="440" height="290" as="geometry">
            <mxRectangle x="-70" y="470" width="40" height="130" as="alternateBounds" />
          </mxGeometry>
        </mxCell>
        <mxCell id="XVXjPDOLn_KU066pgajj-11" style="edgeStyle=orthogonalEdgeStyle;rounded=1;orthogonalLoop=1;jettySize=auto;html=1;exitX=1;exitY=0.5;exitDx=0;exitDy=0;entryX=0;entryY=0.5;entryDx=0;entryDy=0;entryPerimeter=0;fontSize=14;startArrow=classic;startFill=1;" edge="1" parent="XVXjPDOLn_KU066pgajj-9" source="VRYah3EjvfzrCM_-gziz-1" target="XVXjPDOLn_KU066pgajj-2">
          <mxGeometry relative="1" as="geometry" />
        </mxCell>
        <UserObject label="Config Service" id="VRYah3EjvfzrCM_-gziz-1">
          <mxCell style="shape=image;verticalLabelPosition=bottom;labelBackgroundColor=none;verticalAlign=top;imageAspect=0;image=data:image/png,iVBORw0KGgoAAAANSUhEUgAAASEAAAD4CAYAAACjW1BIAAAAAXNSR0IArs4c6QAAAARnQU1BAACxjwv8YQUAAAAJcEhZcwAADsMAAA7DAcdvqGQAAC4oSURBVHhe7Z0HeB3Vmfdf9a6r3mU1F1nuuGJsUwzGYGNqaCGAQ0hdSGMhm2TzJfvtZkny5UlzQkhYwhJ6NR1jwGCwcS+4y5Ks3ovVu/TN//iIxyGSVe6Ze2fOvD8/QvcckTx4NPOf97zVZ9CAGIZhvISv/M4wDOMVWIQYhvEqLEIMw3gVFiGGYbwKixDDMF6FRYhhGK/CIsQwjFdhEWIYxqtwsqKX6R/oo+6BLqrrqKSGrmrq7OugvsFe+VPGavj7BFCIfyjFBidRfGgKBfkGk5+vv/wpMxFYhDxM70A3NXc3UV1nJR1r3EsFzYeorLWQ+gZYeOyGv28ApYXniK/cmHmUETGVIgKjKMgvWP4bzFhgEfIAg8aftp5mOtF0gI407KbC5iN0urveEKQe+W8wdifAN5CiguIoMzKXJkfNpFmxiykqOI58jD/MuWER8gDbKt+m98teotrOCrZ4HICfj78hSLF0Sfp1tCJ1rbCYmJFhETKJ9t5Wyjcsn3dKnzeOWwXUP9gnf8I4iYTQVFqdcQvNiltM4QEuucucDYuQCZS0nBDic7xxH3X0tcldxqnAR5TtmkGrJt1I06LnkI8PB6XPhkVIIThqba/aRC8W/IV6+rvkLsOcwd83kK7MvJVWTrqeAn2D5C7DIqQAOJ4bO2vo3bIX6RNDhLpZgJgRgBCdF7+MVhtilBSWzo5rAxYhBcDn82z+H6mo5RgNDg7IXYYZHhzH0sNz6Map36Qc45jmdPhw6iaNXTX09Ik/iLA7CxAzFnCflLaepMeP/ZrK24qEJe1k2BKaILhxSltOGgL0eyppzZe7DDM+IgOj6c68Byg3eq5jHdZsCU2Q+s4qeiZ/AwsQ4xYtPU30UsFfqaqjVO44DxahCYB6r82lLxgmNQsQ4z7lbYW0sfBR6urvkDvOgkVonOA8v63qbREFG2AfEKOIIw276M1TTzoyqZVFaJxUtpfQywWPcPkFoxS80D4sf5Xymz6VO86BRWgc9Ax005byl6m7v1PuMIw6cH99VPEGdfU561jGIjQOkA90sO4Tx4dUGfM43rSP8k87yxpiERojaLvxatFj1NbbLHcYRj2dfe30YsHDjsq6ZxEaA7B89tR8YJzXD8odhjGP2o4KeqfkWccEPliExkBNRzm9XfKMXDGM+SD6iuO/E2ARGoX+wX5hBTV0VssdhjGf090N9En1O46IwrIIjUJdZ4V4K3FTMsaTnHEBbBE1ZrrDInQOYAW9ceoJauyqlTsM4znQnfOFk3+mnv5uuaMnLEIjMkgH67aLL4bxFqdajhvHsk1ad2hgERqBpu56kZjIEzEYb/NxxVtU11klV/rBIjQCRxr2UHHLCbliGO9R2X6K9tZ+KFf6wSI0DJgJ9kH5Rq4PYywB8oW2VcIaqpQ7esEiNAyvFD1GlW3FcsUw3gfBEbQQ1jGBkUXoc5w8/SntqHpHhEgZxirgfsT0XhzLdLs3WYTOAiHR98s2yhXDWA8cy1q6G+VKD1iEzqKo+SidaNovVwxjPXCPHmvU6x5lEZKgR9BbxU+KKmaGsSpIGXmz+Alq1aibA4uQATKjt1a8LhLDGMbqIEr2auHftInesggZVLWX0Dslz8kVw1gfOKgLmg/Llb1xvAjBvEVLzfbeFrnDMNans6+DtlW+rUWrYceLUEVbEe2v+0i7sCejO4N0tGG3Fo3xHS1CQy1bW3tOyx2GsQ8dfW30UsFfbN8K1rEiBMtnR9VmOta4T+4wjP2o7iijt0ueFsEVu+JYEcIY5w/KX5ErxgzCAiLFl1NnrHsKdP5EcMWu+AwayM+OAfU3bxY/SW8XP2XrN4iV8PPxp+jgeJoaPYfOT7qM0iMmU5BfiPgZulKWtpwUEZ2jjXtFiJmLg9UBkV+Rupa+MOUbxu/BT+7aB0eKUH1XNf123/3UYHxn3AfWzkVpV9P8hBWUHJYhd/8Z3GqN3bWibemH5a9RU3ed/AnjLpGB0fSN2f9BmZHT5I59cJwIDRiWzyOHf0776z42VhwRc5eE0FRaP/0BSo+cMua3MH4HZW2F9MeDP+aggEJyXDPo3nkPUqBvkNyxB446rMMZ/Wn9DhGSZwFyn+igeLpxyrco0zVtXMcAX+PfzYiYSvfO/e9zWk7M+ChsPkI7q961XbsPR4kQqo8/LH9Vrhh38PcNoFUZN1JuzFxj5XNmc5ykhmfTlZlfpBD/cLnDuAvKj+zmZnCUCB1tdN6cb7OYEjVb+IHgkJ4oPsafufEXGP9fs+QO4y6V7cW0vxauBvvgGBFC1fG7pc8LfwTjHkF+wbRq0o1y5R6wqC5Jv874Hih3GHfA/f2RYQ3V22hYpyNECGfk14r+l6o6SuUO4w5JYZMoOVydLyfHlUcp7BtSBqK/T+f/wTZpEI4QoWLMbqrSe3aTJ4EzOVShHwfW0NTo2XLFqOBE43461LDT+GT9AIz2IoQmZVvKN1L/AI9xVgH8OKH+EeSrOAs6MSRNfmJUgARRVNm32CAFQnsRQqOyQ/U7RXieUYCPjwixqyYqOF5+YlRxsukgHW3YI1fWRWsR6unvElXyOvRc0R07lhtYnZ6Bbnrt1OOWTwjVVoRQE/Ze2UtU1logdxjGeTR21dCmkmcs7aTWVoRqO8pF4haH5Bmns7P6PUv3T9dShKD6H2M+U49e85k+T6BfMKWEZdK06Lk0O+58mhm7mCZHzaS4kCRT/DZ2BBXm4QEuynJNp3kJy+mStGvp0vTraUHCRZTjmkmuoBjhbNcZtC7GvDKrNj/TsoAVxZEbDvzQEKEmuaMXyFKel7CM5sYvo/SIHIoIiBJtMwaMP1197XS6u4FKWvNFiUp5W5HS1AQ81CuNh/ianPVuZUt/nmONe+n3B/5NrtSABMiFiRfTIuMrJTzTEKOoz6J6uCbtfa1U01FGe2u20vaqTVr7DtHp4Pbp9xkvqyVyxzpoJ0Jo2frwoZ+Jkbk6gpYN6BuzIPEiuTMySE94qeCv4gFTdSy1iwjB+rll2j10XsIKuTMyuDYFpw/T347+gpoNAdc1kor8rn+d/1sK8Q+TO9ZAq+MYbh6cf3UUILzBs1159OUZPxjTgwVws9009Vu0JutLFOwfKnf1B0esL+Z+Rxy/xgKOrmjGds+cn9MsC1oKqkD3xa0Vr1nOT6qVCDV21YrxPbqB8PXSlNV098wfGw/L3M+OFGMB2ciXTrqeliavHtf/zs6sybzNEJPF4/b1oBTlttzv0rpstVaelUACY0XbKbmyBtrclbCC0GsXI3x0ItAvSFSr3zD56xQVFDchJyqaXK1IXUMxwQlyR19mxi6i5alrJyQiuLYRgVG0OvNmun7KVyk0IEL+RB9QV7az5j3R5dIqaCNCp7vrRQQA6eq64AqKpWty7hJvZlSuu0NCaBotTrpUrvQE1wiC7S4Qo+Upa+nGKd+g2JAkuasHcMjvqn6Pytut87LWRoReLPgr1XVWyZX9QbTrupy7DQvmKmENuQserCVJq+RKT2KDk0WFvwr8ff1pUeIldNeMHxr/v3oJETKonzz+GxHEsQK2FyEcww7Wbae9xlEMK7sDsYBj9c68+2lR0iXCH6QK5A/Fh6TIlX7EhiQqre5HJDArchrdPv37lBSaLnf1oKQln3ZWv2uJzhK2F6G2nmaRmKgLeJBunvovouOgGcDnoSshfqFKRfsMPjQ5ahbdkfevlBqeJff0AO4LK0w8sb0IHWvaR8carV8pPBbw5v3ClG+KJESzcNe3ZGXMmiGHqGJmZC6tz3vAsCaT5a79QV3lwfpP5Mp72FqE2npbaFPxM6bdfJ4kMjCG7ph+n4jumAVM75r2crnSD2RA95jo50CJDBJFXYGxcsfe4LnZXPqCmEbsTWwrQmdatj6mRctWJBWuy76DFiWuNDWXp6Grhpp66uVKP/Aw4XhuFrBUZxkvidumf0+8NHSgqauWXih4mPq82PTPtiKElq27qt+3hGPNHXBjL0y8hBYlrTQ+m1dICQf+J1Xv2P56nQs8UKVtJ+XKHPD7mhm7UJStDI25tjvHGvfRUeHS8E5gx5YihELDjyvftH3BIayehYkXCSsowORpE5j/frB+u1zpieghVfoidRjHMrOZF7+clqeukSt7g+Z/mNAB94Y3sKUIFbfkizHOdi80zHHNFJnQqHA2E9HapOJNqm7Xf9oInK0bCx81/XiBWjzU5KGFig4cb9rvtZpL24kQrJ83Tv2duvo65I49wQjltcZNbHbIHAlpu2repw8rXtPCgT8aeDHtqHqX3i97SbzhzSTYOI7dmvttyoicJvK77AxeVK97qRWsrUQI1b9byl+hkzafooq6ptWZt4j8EzPBDfXGqSfo2fwNpj+QVqJ3oJveKX1OWETNJje2Q2sVjLI225r1BBiYiOvm6UxqW4lQdUeZOFbYHfgSlqVcaWokDG+2x47+gjYbN1VPf7fcdQ7oJvhBxav0yOH/ElFBs4AFhIjZBSmr5Y69QbCnuOWEXHkG24gQjhI7qt+1RIanO2RETqXLJt1gmgDBWsw/fZB+tvMrdLRxr0hlcCqIBBacPkR//vSndKLpgGnHUUTMrsi81RCj8bcPsRqtPU3Gc7ZZvMQ8hW1EqLKtmHYaZ32rNWQaDwG+QYYAfYGigsybsXWgbjs9fuzXXk9AsxLlbYX06JEHRYqCWV0WEK6HozomOFHu2BP41PbVbKWThnh7CluI0JDTzO6N62fELqR58ctMsYLQH2ZPzRZxBGswzvbMP4J757n8P9Hu6i3iQTOD9IjJ4lhm9yEDXf0d9GLBwx4L/lhehGBS76n9gD61QI2LO6DFBHoem3GDQqS3Vb1FT5/4g2XaM1gROKyfP/mQiJyZcZ3wcjk/+XJK06DQFd0XPyh/xSPHecuLUFN3PW0tf12u7AlG8+AYhkiKGaCjJCbNdvS1yR1mJHCNXi963LQGeFFBsXST8bJBW127Ax8sppGYjeVF6EDdNiprs/cU1ezI6SKCohq8pdBL6akTv7P8qF8r0dXfKUT7cP0uU45m+H2ji6XdndR1nRVicITZScGWFiGMX3m/7GWPeurNACH5cMVJibgxkOX6TP4GPoJNAIxDeuL4b+hYw15THjL8ztEbys7gJQeLEVM6zMSyIoQo2LMn/0QNXfZ2smLqw0QmP4wGLJ+XCx4RvbWZidHW22zcY38UpR6qSQvP1qKkA9fo6RO/N/VFZ0kRwpvpSMMecdSwM8iiXZd9pwjNqwQC9Mjh/xShZ8Y9ajsqREuY9l61Ra/Iil+WskaLSvui5qO0u8a8qKIlRQg3xMeVb9g6JwigRWuq8UZUCbKfN5U869E8Dt05Zhxr3yp+UvmxH32pL0m/Vq7sC45ln1RtEu4RM7CkCGEkLywhO4OZVefFL1d+DDthPDC4IRh19A/0Cd/jvrqtckcN6A8FETIrKupJzHwmLSdCZ4ouHzcts9VTZERMoSxXrlyp4bTxJnr91N85FG8COGq8deopqmwvljtqwJF8SdJlyl9G3gDHVhxfVWMpEUJi4qaSZ5TfCN4AIVq0bVUFjgqvFv2NytgPZBq1nRXKx4hDfPJiF1B4oEvu2Bd0JHjNBAPBUiJU2log8hLsXnQJXwDKM3ALqmGQjjTu1qKdrZXBfYfxUar9bZMiplJKmB7jgg7X7xT5VSqxjAih383Witc80prTTJC6f1HaNSJLWhUtxhF1S9lG2x9R7UDfQI9I/lSZ+hDiHyoGWeoAmgqiyr5ToUvAMiJU1HxMtGy1uxWEKQwwv1WCRuRwDDKeoaajnHZUbVYanUWQIjooTq7sy5n0md3inlSFJUQIjtZNpc+ILFa7MyVqNrkUjoPBtYFDkK0gzzFUNN3QVSt33Ac9qecnXiRX9gaJi+haqaoxvtdFaCg1/HjjfrljXzAxY2r0HArwUzM5A+050EnSzM6AzPBgKMCh+h1ypYbzElaIo5kOYHoLWsGqyK3yugjVdpYLEdKBEP9wmuyaoSwcW99VRR9WvCpXjCdBF0a0slCZDpEQkkrJYZlyZX/2VG9REq31qgjhTY9oWJ0mXQATQlIoPjRFrtwD1+Zow16ujvcieNtjvp2qcoVg/xDKceWZ0tTOG8B5r6IlilevRlVHie1btp4NzvyoGVIButuhkRtXyHsX3J8t3Wo6euLeyIzMVV5L6C0gzvtrP6aTTe5Nv/GaCCFVHi1b7d64fgiE5GfGqesZVN9VTYXNR+SK8Rb4PeQrHDGVFp4jnNS6gJSaFwv+6tY0ZK+IEBR0T+2HQkV1Id24uWIUNrDfpsGYax3o7e+m/KaDyizSeOPInhiSKld6gG4OWyten3B6jVdEqNkwb3HW1omZcYuV9Y9GF4GdVe/JFeNN8MKERdqhqNUHilpzY+bLlT6gFWx9Z6VcjQ+viNDB+u2iR4ku4CiWZZz1VfGpcX3gE2KsAYo2VUSBhpgRu8AQI6+6Y5WDlIZdNVuMT+N34nv8SsCj/l7pi9o4owEqpVUlKMLst3sbE91A9Ge7wvYpCaFpFGvz+WSfB8/zB+Ubqbz1lNwZOx4VIZwZn8t/SIQ+dSI+JFnZLHK066hsH/8vkjEXRCpVjdMO9guhxNB0udIHuBFeKvzLuBMYPSZCOFujIdeRRrUVuFYgKihOWcSjobOKWnua5YqxCojmHmvaK1fuo/L4biXQgWBv7VbxvI8Vj4kQ6sLQq6W3X6+8F2RHxwQlkL+PmjlTle0lSrN0GXWgtGg8D9e5SA7PUJZTZiVgBW2vepvaxvEi9ZgIIcx5qGGnsl+iVUC0Iy4kSXx3F1wbjFfRyV+mExVtRcpGI8cHJ1Ognx5Ji58HyYv76z6Sq9HxiAhhDvhbxU8pKXazGj7GJYwJTpAr90CpRgX7gywLjsntiirHcXzXoff0cOBlurn0hTG3gjVdhNAW4b3Sl7QdT4NQa6xhCakAyYn1mtTR6Uh7X4uyDP9A3yBlwQwrgvv4zTFOMDFdhMrbTtGuGvu3bB0JvM2C/RQ5pbtquGDVwiA6hkRbFWAeWUSA/ftOn4vDDbvG1CrXVBGC8KAnC9qT6goESFVDezMmgTLqQAtiNHtXgb9vAAVpVEM2HAiwILWhb+DcVfamihB+aYcadmjtaHUFxVCAcUOpQIcpIzoDX0dTV5347i4o8Qnzx3HM/qOARgKuGBghnaP0jTdVhOAHKmvVe0RNeECE8U81N1JlG4uQ1WnpacLTJVfuER4QSQqCqpYGLoaTo/RHN1WEdlS/p31v5JhgNU5pdPJr6+UkRavTaoiQCglCSgdC9DoMRRyNjyrPPcvNNBHCQ7WvVu1YXSsSoSjMipoxVU5PxjzOhOjdlyGIj8rhmFYmv+kAtZ7jBWuaCFW2nVI6m8iqoA5IBQhl6pbIqSPdA13KfktnKun1t4QQoCpuOS5X/4xpIlTSelJ+Yhh9QA2ZKpCwqL8EnaH0HHpgmgjVdpTLTwzDDIefoiZ4dqCuo4J6R0hcNEWEcLRQOUaX0R9VbTIYa4KoYr9HRWiwV/QWYTRkcNA446uPeKpKAmSsSWdfB/UMDP+iMUWE+gf6qavf/iOdx4YaN6VdfANwnjd3NygvRkaFuh1QGVJv62kR19MJ9BoChK/hMM0n5BQ6FfWC9vP1J3/jyw7UdlaIN5squvo7Kd/N2VWeIjQgQpEMQX6cEw1Fys5I5RssQm4ynuZN58LXx1+m8VsfZHar7IqA/jMYB24HgvzVpGRAfpw0zABtakYSXRYhN2nsqpGf3CPQN9B4y4bLlbXBW21z6fOiNtBdkPz3btkLtumyEOavpkwHDyUapOG7E/D1Qeet4eWGRchNVDpUVc2x9wQFpw8L8XDHN4QCx/11H1NJS77csT6uoFhRcqECtDx2CpCgka6baSLkr8m87dFo7KodMf9hvGRETJOfrA86I6BZ3cH6Tybs2yhvK6KNhY/aatKsqm6IuGZodeEUv5C/YeljPt9wmCJCKMxDhbATgLOtS9EbLTlskkzltwd4iF44+WfaVf3euPwb3cYxDhbQhoM/UtYu1RMEGA8S5oWpiJAhL0rVVFc7EOwfIrpJDocpdzwaNsFsdQIdfa3KzOqEkLQRf1FWBUmpz+RvoGdObKCKttH7Y2Pm3CtFj9LTJ/5wpi2GjUA3RFegmvu6d6DLUSIUGRgjdGE4TBEhvClSwjLkSm9QS6Sq73BYQLiypvmeBA7WndXv0oN77qENB34kuifUdFYIfxm+6ruq6XjTfnrk8H/R//lkPW0p2yhaYtgNVL2rernCEmofpdmXTkQGRAlLcjhMs/1Tw7LkJ73BmR6Nm1QA592kiClyZT/6MMK6cTf9z5Gf06/23Eu/3H3m6+e7vkm/2/8A7a390NY+EPiDXEFqfEKwnu1mCbpDpmvkYY+miVBKeJahfPo7pxHhgQjhu7sgepAanm0rv9BwINyOsp3G7lrxpUtLl4TQVMMaUpNG0dBVq2yGmR3IiJwqP/0zpt3tQX7BNC/hArnSF7zZMd4EuTMqSA5Ld0yzK7sxI3ahEqc0qO/CPaN319Eh0owXa0JIqlz9M6a+chcmrhQNvXUHtVSdimrl4kNSHBNZtBMY2Tw5apZcuU9B0+ijcHTh/OTL5afhMVWEJkVMpqTQdLnSl/rOamWRjujgBMf40+xEZmQuuQJj5Mo9UE1ul4Jdd8E1mxm7SK6Gx1QRwoTJvNgFykxYq9Lc00CNXeomc06PnS9XjBXA/bs05dxv8/FQ01EuIoZOYFrMPOPFGi9Xw2OqCKFzHFRQ53G3AKULRc1H5cp9ZscuGTGngvE8eIimRc+VK/c51rBHftIb+DbnxJ0/6r1sqgiBKVGzlf4CrUph87lnK40H5KIsSLxIrhhvg7QJlX465Ew5AUR6p8eMfhIyXYR8fXxpbfbtFKtoPpdVKW0tUGpin5+0ynbZ0zqCNJNZsYtHrHsaL4ikVraXyJW+wAq6OvtO4/voo65NFyGQGJpGl066XutIGWqgjjXukyv3wVskI9I+Ba26gvYqU6LnjPo2HyuYOuGE/KAVqWsp2zVDrs6NR0QIv8DzElYY/1F5ckdP9tRsUZK0CEKNN8nc+AvYN+RlliRdRvEhyXLlHsgLKmw+oqQPk5VJCp1Eyw0RwiloLHhEhEBEgIuWpVyh9UNV3V4mIh8qQNZ0Xsx847pFyR3G06BMA/esKtA9oLTlpK1LV0YDwailKaspOihO7oyOx0QID9Xc+GW2ro0aDVTUnzyNJDQ1NxmOsfMTL5QrxtMsT11DsSHqfJlN3fVU2lYgV3qSFDaJFieNL0nZYyIEUMpx+/T7tC1LQEX9qZbjhLnyKoBwr8q40TFtUawEAikLEi9W5gsCe6q3aH0Uwynn6uz142785lERAni7X5R2te2LNIcDZnZ+00E63a2u5SuOY1dk3GL8gu0xiUMHUEiMFIk4hRFdVMzvqnlPrvQDz/PCxEtoxijZ0cPhFSWAsy85VM9+Q2h8XyCOZOqYE7+U0jU+xlqNUP8IEd1R6b/cV/uRaAWsK1GBMcJ/NlZn9Nl4RYTiQpKNc+MlcqUXsIbeL3tZad9k1N/o7tS3CihUvTpnvdLmcmhedqh+h1zpybyEFRP293pFhKCW8KDr6qSubD9FB+q2yZX7wNSdn3ARzYhZKHcYM8B1nh13vkgUVUl5a6HID9IV+CwvSls34Zek1xwz4QEuumHK10VTfN1AU6+d1e8rTUqDU//OvPuNN3Si3GFUg7DypZNuUGpxwjI+0rCb2nrVDMm0GnDcX5tzl2hBM1G8JkIgxzXDeMNfqKWTusx486ksagXB/qG0LvsOMYqYUQuOYUiwO1cHwIlwurtBTBbREQgQGr0hEdkdvPr041iGhkeqZjlZCbz5DtZvF29ClSDX6rz45XLFqAL5WHBGI9lOJe+UPEsNnXq27UCqzbKUK0dsYD9WvG6CTDasoQWGNaQjmDqBgkWV4Fi2LvtOSg3PEm8ixl18hG/y5qnfolBF/aOHwAikD8pfUf4isgroezU95jy5mjheFyEcxVamX0+JGnZgbOttoedOPqQ8QS0iMEr4h1LCMuUOM1GigmLpmpwvG0ddtQm0SFj9uPJNudIPnF6uyLhVSXcBSzhj0DRqTdZt4lyuG0cbdtPhxt1ypQ5U2cMi4n7U7nH95K/StOh5yq3KqvZircPycODDGleBZTzC6MCYZ5h3uh0xECnbVvGW8uiIcArGLaTVmbdSsN/oPVuYfwTX7AtTvi4yoyeSYHcucPz6oPxVZfPorMbkqJm0JOlSuXIfy4gQIj8Xpq4T33WjqOUoHazbLlfqgOWIEph12espjCNmYwYhePS3WpayRu6o5VPDAtpds0Wu9AKN9hYbAhQW4JI77mMZEcKbHU4ulWNVrALyhd449YToRa0aRHNWpK2lS9Nv0PI4awa4VlcYFqQZOWqoEXv2xAZTftdWICU8U4iQSuvRMiIEUP6PM7od57GPBubVP3nit0rLOYaAEK003uxrs25XHuHRCVjZa7K+RFdl3y7uNdVAeOCMbulRV8BsJXD9rsm5y+2Q/OexlAgBVNmvnHSDKTeJt9lf+xEdqt9pSsgWNwachchC1326yURAr+g1mbfRZSbeWxVtxbS1/DVl03itxoWpV9EUE04qlhMhgGS8rMiRB+jbFXTWe7fsBTrdVS931IJ2H0uSL6Nbpt0jezZxHhGO+SgRWp93vxDpIL8Q+RO1wMJ9qfAv1KypFYRmZaj3NEPALSlCqBpfmny58Re25H+eW5S1FtDm0udFAzQzwEOHUph75vycpkXP0fIajgf0Nb9r5g9pXoJ5Wea9A930VvFTopeUjiCXD36gWJPqFi15h6KpFNLoMzS0hhCy/6jyDdpa+brcMYcs13TRxXJR0kq54zwWJV1Cd+Y9YOrcOxytEQ3bWvGG3NGPhJAUUZ5hVuDDsq9JmM1fNm6gYJPMZ28CB+am4mdE8zMzU/rh4P9S7vfo1mnfFm8x3XKwRiI6KF4EOL6Uex/FhSSZ+vdu6qoTv8vOvja5oxdIZ7hl2r2mJsVa2lZH8zNUNqsuKrQCCOW+UvQYtXQ3yR1zwBkeb7GvzPwxLTQsA53D+HhxIflw/Ywf0MXp1wgfmZkgAfXJ47+lsrZCuaMXEG/4ZzFF2Uws7zA4P3mVIUYT71ViVWABFZ4+TE+e+J3p0RQcbzMjpwmr6BuzfybEXTeQmgCH/Jdyvy8iOGaLbU9/N20sfJSONu6VO/oRERg9rvlhE8XvpwbysyVBuLl7oItOaDq/u7ajXDg2syKnK22mNRywiuJDU2h+wgohTO29rcYxot3UI6GZ4O8TG5JIy1LX0B1594tyAj8PDAQYHByk7VVv0ZbyjcbRWs1kFSsCZ/QFE+wbPR58jAtq+Tuwtec0/enTn1Bxy3G5oxc4RqCSGyUYngKTYqs6SkUb2u2Vm6hB4Rx9T4CWohckrxZDAFDM66kjOwILe2s/pOfy/6Rtt0QAH+K98x6khJBUuWMethAhALP3z5/+VFgNOuLvG0h3z/wRzYpbYqojdThwtNha8ZooukRmNx40HBitBiyfEP9Q0QgPpReuoBj5E88AixGtWh8yXohnrpGeIPH1pqnfElaQJ7CNCCGi9MTx34jZTTb5Tx43KA68Pe8+MYPeGw5klBtA7I837hetaVEFPuDl7F8IMlq9oPEYOi3MjFss8si8AVwCzxoWUFV7idzRk9yY8+hrM3/isWJy24gQQEj7r4f/U0SWdCU6OEE4WGfFLpY7nmZQZHajN3Jl2ynRHxnC1N7bIn9uPvBBwBcIP9k8Q5AzIqeJsHuQf4jHrcQhMN77b0ceNK5LvbCIdCXEP5xun/5940W41Fh55lrbSoRgAj+Tv4E+qjA30c/bhAaEG0ezf/dIlGcsdPV3UuHpI3SkcTcVnT5KzT0NolskugcisjdRawnHK/hycBTFEQBdDrNd02lq9BzKcc20RO9x3HP5TQfosWO/omZDmHUHKQ635X7XtPKW4bCVCAEkh/32wP1U21Ehd/QED+BV2XeIGVieiPiMlV7jWNxqWKJ1nZXiuIagQVNXrRjw19HbRj0D3YYl1SEeXogXCPINFtYD6tlQSBpmiCzeuJj37gqKFlYOLMCooDhLJafi73DUEN6XCh4xjmClxo6+FhCICHDRd+b9SrTr8CS2EyGwq/o9evzYr423sDn1V1YBuS/XTb7bYw7CiQBx6R84Yw3BKhqkgc8soyHnrRjpZNxmsHrwecgCwncr17Ztq3ybXit6TNui1M+Dl96Vmbcanzx75LWlCME/8bejv6CjDXvEQ6A7l2fcRJdN+gK36PAQOGYiWvj6qb8rHWBpZZDM+tWZPxFBAE9j+Yzp4cDwvxWpV1GAhtNbh2NL2UZ64eTDWjvkrQIcz8gBev3UE44RICTJIjHR0ykPQ9hShBAhweRHM6ujrQT8LDuq36UH9/yLmGvOmAP8XP9z5L9Fd8Suvna5qz8JoWm0NNmcXkFjwZYiBOBTuC7nK8KZ6QwGhVP+z4d+Rp9UvaN8lpmTQUoCMseRDIs0ECcBv+NNU75pSr/tsWJLn9DZbC59gTYWPvKZE9QJIMqExD1M2UCrCmbitPU005vFTxqW5jvU6ZDj19mg2+R1OXeLWkJvYVtLaAgUY06KmCpXzgBFp7trPhDlA/mnP9W2p7GZ4Joh8/k3B+4XhahOFCD0c0f9nTcFCNhehHAcQytY5zFIle3F9KeDPxZh5Or2UkdEClUA5/Prpx6nX+/7vsgKdyoLEy+m+FDzC1RHw/bHMYAoxgbjYSxsPix3nAX8YzHBibQq40ZanLRSJAQy/wwc/PtqtorjV2NXrfZ5ZucCVfIPLPgDRQRGyR3voYUIgcq2YvFm6+hrlTvOJC9mAV2Z9UVKD5/sVWejlYD41HdU0RuG+Bys32bakAG7gJD8N2b/h3GvzJc73kUbEcJR5Ln8h0SSmbcrv71NeEAUzYpbLMxtNPpSPazOLiBYcarlGO2o2myIzyei3MTpiJatiRfS+rwHhAVtBbQRIVDeVkQPH/oZ1XdWyR3ngpstyD+UcqPnitKPeA1b5J6L6o4yerngETrRdECkM7C/7Axo2XrXjH+zVI6dViKEvwrmP7126n/lDgNQiX9ewgo6P/kySgnPEsWx3mqJYSYopsWL6FD9DtpZ/a5xNG+TP2GGQEO4W6fda3or4fGglQgB3IgbDv6ISltPyh1mCNSeJYdliByjefHLRMN7uw9HxJELlu++2o/oeNN+Q4QKPdr7yE6gLuw7c39JCRaIiJ2NdiIEYIIjWqZzE3IVoHcMKvTRtwgp+3axjnDL9g32UnlrEb1d8rT4fWMMMzMysHxunnaPyAuyGlqKEHwAaAW7p+YD9gWMAo5qCaEpND1mgaikTgxNNyykRNHvxyqihFu0s79dzPCv6iihU83HhNWDnlKoeGdGw4dyY+bRV2b8yLCGI+SeddBShADmgv/l8P9l03wcoMd1eKBLOLEnRUymLFeeIUy5FO2l+jz08SlpyRf5XwWnj4ge2OhuyMIzPtAlEd0SMVrditautiKExvhPnfidCM+yNTRxgv1CRWLblOhZotl8miFOof5h4sbGEQ5mvi/++PieucF98M+Rb3T8LuDHwW13phFan/jCcQqlE5jDVnDaEB1DeGqMz1yo6z5z4s6nO2dgpLpnGtePF21FCMBJ/f/2fVf7VrCeBKIDkz4iIEo4ujH/K8gv2FhHiza0IYY4oWc0Pg85vZEciDlnvYO9omK9u69TDLRsM34/sFRb8L3P+N7d5OgsZjPADPlvz/sFpYXnyB3robUIAYRq/y5awXKRp5kMCY6PYRWhIPJsa2jIEsWtduaz8c/PPjNmcnX2elqdebPxyXrHsCFsX8A6GtNj5htHCXMH+jNnQuX4giWDozD8NkNfWOMLP8MRTBzHWIBMB349RECtLEBAexFCgR5awVphdA7DeAr465CYGBOcIHesi/YihGPB7NglbA0xjgJdFdDixlstW8eD9iIE4CTFVFPntIJlnAw6b9414wcU6Bcsd6yNI0QIJISkGseytZ85UBlGR3B/wwLKiJgmd6yPo55IOOlSwrLkimH0Az6gJcmXeb1l63hwlAgh6c7K00wZxl0WJF4sipTthKNECE66pcmrKNuVJ3cYRh9iguPp4rRrbBcJdpyDBM66W6bdK+YtMYwuIJP9ttzviV5RdsORXlqYq/APsZOa0QGkoaBH1JQoe6ahOPIpRG9d+IZQ98Qwdgc1fEjItVK3xPHgWFMgPTyHFideKlcMY19mxC2inKgZcmU/HCtCPsZR7OL0aygtwrrVxQwzGkjAXZP5RdELyq442ikCJx6qjO1qxjLOBvftOuP+tfskFcd7ZjGXa07cUuHcYxg7keOaQbPjFsuVfXG8CKHb3LKUKyjIP0TuMIz1wXRdBFdCLdgzerw4XoTA1Oi5tCSJndSMfZjsmkVz4vWw4FmEDJAvdHnGzZQYmiZ3GMa6oL3u1Tnrbe2MPhsWIQmiDKsybnLs3HbGPlycdi2lR0yWK/vDInQWeXL2FsNYldTwLMuO7pkoLEJn4QqKoeWpa+WKYazH4qTLRG8snWAROgu8XRYkXEg5UTPlDsNYB5QZXZy2TruaRxahz4FMakyrdAXGyB2G8T4Yy/3Vmf8uZrrpBovQMCSFptOy1Ct5QgdjCfBiXJx0CWVF5sodvWARGgF0qIsPtXc6PKMHUcYxbFHSpUKMdIRFaASQM4TG+Gj7wTDeZFHiStH1QVdYhEYATuqlyatFbRnDeAsUp6Jlq85F1ixC5yDIL5iuzrlLzHFiGE8D4blhytdE6ojOsAiNQlp4NreCZTwOLPFZsUsoN3qe3NEXfrJGAWUcy1PWiJn2DOMpYH0vTVllmymq7sAiNAZgDZ2fdLlcMYz5zIhdRNNj5suV3rAIjYGhVrAp4Zlyh2HMA5nRV2Xf7pg8NRahMYJWsNfmfIUTGBlTwf2FlsN2b9k6HliExgEmt86IXShXDKOeLFeucQw7T66cAYvQOAj1D6ML09ZxzyHGFPx8/UVumivQWfPwWITGhQ/lRs+l5alryMeHG+Mz6kBIfoprlkgHcdq9xSI0Tnx9/Ght1u00LXqeuHEYRgVoVnZ73n2OtLJZhCYAcjjgPIwLSZY7DDNxYoIT6PrJX6PooHi54yxYhCZIRuRU48b5KoUHuOQOw4wfjO5ZnXELTY2eLXech8+ggfzMjBNcuiONu+n5kw9RbUeF3GWYsYHGeVdl30FLklc5ulsDi5CbDBp/jjfuo8eO/pJaeprkLsOcm7CASLp12rdpXsIyx/sWWYQUgEtY3HKcXip8hIqaj9LAYL/8CcP8IwhsJIdNomsn30150fM5ymrAIqSQxq5a2lz6An1c+Qb1DfTKXYY5A45ci5JW8qDNz8EiZAKH6nfQUyd+T83dDeK4xjgbHLfQqH5d9p0ix4zbwvwjLEImUddZSVsrXqf9tR9TU3etcUQbkD9hnALEBr6f+QkX0kVpV7P1MwIsQiaCIxmiZntqt9C2yk3U0tMof8LoTrB/KC1OupQuSF5NiWHp2syNNwMWIQ+ASwzLaEf1Ztpb8yE1G2LUO9DN1pFGwOoJMIQG3RamRM2myzNuEpXw7HgeHRYhDwMBKmo+QhVtxVTSkk81HWXU2FVD/RxRsx1wNMcEJ4qM5/SIKWIuWJZruhjRwyU9Y4dFyEvACoI11NbbQp19HUKM6g1rqbOvnSNrFgbN51G2E2dYOYmh6cbnUAr1DxeZz9xramKwCDEM41U4VsgwjFdhEWIYxquwCDEM40WI/j9tuXbUaTsl7wAAAABJRU5ErkJggg==;fontSize=12;fontStyle=1;aspect=fixed;spacingLeft=0;spacing=5;labelPosition=center;align=center;whiteSpace=wrap;" vertex="1" parent="XVXjPDOLn_KU066pgajj-9">
            <mxGeometry x="30" y="172" width="80" height="80" as="geometry" />
          </mxCell>
        </UserObject>
        <UserObject label="Config Service" id="VRYah3EjvfzrCM_-gziz-2">
          <mxCell style="shape=image;verticalLabelPosition=bottom;labelBackgroundColor=none;verticalAlign=top;imageAspect=0;image=data:image/png,iVBORw0KGgoAAAANSUhEUgAAASEAAAD4CAYAAACjW1BIAAAAAXNSR0IArs4c6QAAAARnQU1BAACxjwv8YQUAAAAJcEhZcwAADsMAAA7DAcdvqGQAAC4oSURBVHhe7Z0HeB3Vmfdf9a6r3mU1F1nuuGJsUwzGYGNqaCGAQ0hdSGMhm2TzJfvtZkny5UlzQkhYwhJ6NR1jwGCwcS+4y5Ks3ovVu/TN//iIxyGSVe6Ze2fOvD8/QvcckTx4NPOf97zVZ9CAGIZhvISv/M4wDOMVWIQYhvEqLEIMw3gVFiGGYbwKixDDMF6FRYhhGK/CIsQwjFdhEWIYxqtwsqKX6R/oo+6BLqrrqKSGrmrq7OugvsFe+VPGavj7BFCIfyjFBidRfGgKBfkGk5+vv/wpMxFYhDxM70A3NXc3UV1nJR1r3EsFzYeorLWQ+gZYeOyGv28ApYXniK/cmHmUETGVIgKjKMgvWP4bzFhgEfIAg8aftp5mOtF0gI407KbC5iN0urveEKQe+W8wdifAN5CiguIoMzKXJkfNpFmxiykqOI58jD/MuWER8gDbKt+m98teotrOCrZ4HICfj78hSLF0Sfp1tCJ1rbCYmJFhETKJ9t5Wyjcsn3dKnzeOWwXUP9gnf8I4iYTQVFqdcQvNiltM4QEuucucDYuQCZS0nBDic7xxH3X0tcldxqnAR5TtmkGrJt1I06LnkI8PB6XPhkVIIThqba/aRC8W/IV6+rvkLsOcwd83kK7MvJVWTrqeAn2D5C7DIqQAOJ4bO2vo3bIX6RNDhLpZgJgRgBCdF7+MVhtilBSWzo5rAxYhBcDn82z+H6mo5RgNDg7IXYYZHhzH0sNz6Map36Qc45jmdPhw6iaNXTX09Ik/iLA7CxAzFnCflLaepMeP/ZrK24qEJe1k2BKaILhxSltOGgL0eyppzZe7DDM+IgOj6c68Byg3eq5jHdZsCU2Q+s4qeiZ/AwsQ4xYtPU30UsFfqaqjVO44DxahCYB6r82lLxgmNQsQ4z7lbYW0sfBR6urvkDvOgkVonOA8v63qbREFG2AfEKOIIw276M1TTzoyqZVFaJxUtpfQywWPcPkFoxS80D4sf5Xymz6VO86BRWgc9Ax005byl6m7v1PuMIw6cH99VPEGdfU561jGIjQOkA90sO4Tx4dUGfM43rSP8k87yxpiERojaLvxatFj1NbbLHcYRj2dfe30YsHDjsq6ZxEaA7B89tR8YJzXD8odhjGP2o4KeqfkWccEPliExkBNRzm9XfKMXDGM+SD6iuO/E2ARGoX+wX5hBTV0VssdhjGf090N9En1O46IwrIIjUJdZ4V4K3FTMsaTnHEBbBE1ZrrDInQOYAW9ceoJauyqlTsM4znQnfOFk3+mnv5uuaMnLEIjMkgH67aLL4bxFqdajhvHsk1ad2hgERqBpu56kZjIEzEYb/NxxVtU11klV/rBIjQCRxr2UHHLCbliGO9R2X6K9tZ+KFf6wSI0DJgJ9kH5Rq4PYywB8oW2VcIaqpQ7esEiNAyvFD1GlW3FcsUw3gfBEbQQ1jGBkUXoc5w8/SntqHpHhEgZxirgfsT0XhzLdLs3WYTOAiHR98s2yhXDWA8cy1q6G+VKD1iEzqKo+SidaNovVwxjPXCPHmvU6x5lEZKgR9BbxU+KKmaGsSpIGXmz+Alq1aibA4uQATKjt1a8LhLDGMbqIEr2auHftInesggZVLWX0Dslz8kVw1gfOKgLmg/Llb1xvAjBvEVLzfbeFrnDMNans6+DtlW+rUWrYceLUEVbEe2v+0i7sCejO4N0tGG3Fo3xHS1CQy1bW3tOyx2GsQ8dfW30UsFfbN8K1rEiBMtnR9VmOta4T+4wjP2o7iijt0ueFsEVu+JYEcIY5w/KX5ErxgzCAiLFl1NnrHsKdP5EcMWu+AwayM+OAfU3bxY/SW8XP2XrN4iV8PPxp+jgeJoaPYfOT7qM0iMmU5BfiPgZulKWtpwUEZ2jjXtFiJmLg9UBkV+Rupa+MOUbxu/BT+7aB0eKUH1XNf123/3UYHxn3AfWzkVpV9P8hBWUHJYhd/8Z3GqN3bWibemH5a9RU3ed/AnjLpGB0fSN2f9BmZHT5I59cJwIDRiWzyOHf0776z42VhwRc5eE0FRaP/0BSo+cMua3MH4HZW2F9MeDP+aggEJyXDPo3nkPUqBvkNyxB446rMMZ/Wn9DhGSZwFyn+igeLpxyrco0zVtXMcAX+PfzYiYSvfO/e9zWk7M+ChsPkI7q961XbsPR4kQqo8/LH9Vrhh38PcNoFUZN1JuzFxj5XNmc5ykhmfTlZlfpBD/cLnDuAvKj+zmZnCUCB1tdN6cb7OYEjVb+IHgkJ4oPsafufEXGP9fs+QO4y6V7cW0vxauBvvgGBFC1fG7pc8LfwTjHkF+wbRq0o1y5R6wqC5Jv874Hih3GHfA/f2RYQ3V22hYpyNECGfk14r+l6o6SuUO4w5JYZMoOVydLyfHlUcp7BtSBqK/T+f/wTZpEI4QoWLMbqrSe3aTJ4EzOVShHwfW0NTo2XLFqOBE43461LDT+GT9AIz2IoQmZVvKN1L/AI9xVgH8OKH+EeSrOAs6MSRNfmJUgARRVNm32CAFQnsRQqOyQ/U7RXieUYCPjwixqyYqOF5+YlRxsukgHW3YI1fWRWsR6unvElXyOvRc0R07lhtYnZ6Bbnrt1OOWTwjVVoRQE/Ze2UtU1logdxjGeTR21dCmkmcs7aTWVoRqO8pF4haH5Bmns7P6PUv3T9dShKD6H2M+U49e85k+T6BfMKWEZdK06Lk0O+58mhm7mCZHzaS4kCRT/DZ2BBXm4QEuynJNp3kJy+mStGvp0vTraUHCRZTjmkmuoBjhbNcZtC7GvDKrNj/TsoAVxZEbDvzQEKEmuaMXyFKel7CM5sYvo/SIHIoIiBJtMwaMP1197XS6u4FKWvNFiUp5W5HS1AQ81CuNh/ianPVuZUt/nmONe+n3B/5NrtSABMiFiRfTIuMrJTzTEKOoz6J6uCbtfa1U01FGe2u20vaqTVr7DtHp4Pbp9xkvqyVyxzpoJ0Jo2frwoZ+Jkbk6gpYN6BuzIPEiuTMySE94qeCv4gFTdSy1iwjB+rll2j10XsIKuTMyuDYFpw/T347+gpoNAdc1kor8rn+d/1sK8Q+TO9ZAq+MYbh6cf3UUILzBs1159OUZPxjTgwVws9009Vu0JutLFOwfKnf1B0esL+Z+Rxy/xgKOrmjGds+cn9MsC1oKqkD3xa0Vr1nOT6qVCDV21YrxPbqB8PXSlNV098wfGw/L3M+OFGMB2ciXTrqeliavHtf/zs6sybzNEJPF4/b1oBTlttzv0rpstVaelUACY0XbKbmyBtrclbCC0GsXI3x0ItAvSFSr3zD56xQVFDchJyqaXK1IXUMxwQlyR19mxi6i5alrJyQiuLYRgVG0OvNmun7KVyk0IEL+RB9QV7az5j3R5dIqaCNCp7vrRQQA6eq64AqKpWty7hJvZlSuu0NCaBotTrpUrvQE1wiC7S4Qo+Upa+nGKd+g2JAkuasHcMjvqn6Pytut87LWRoReLPgr1XVWyZX9QbTrupy7DQvmKmENuQserCVJq+RKT2KDk0WFvwr8ff1pUeIldNeMHxr/v3oJETKonzz+GxHEsQK2FyEcww7Wbae9xlEMK7sDsYBj9c68+2lR0iXCH6QK5A/Fh6TIlX7EhiQqre5HJDArchrdPv37lBSaLnf1oKQln3ZWv2uJzhK2F6G2nmaRmKgLeJBunvovouOgGcDnoSshfqFKRfsMPjQ5ahbdkfevlBqeJff0AO4LK0w8sb0IHWvaR8carV8pPBbw5v3ClG+KJESzcNe3ZGXMmiGHqGJmZC6tz3vAsCaT5a79QV3lwfpP5Mp72FqE2npbaFPxM6bdfJ4kMjCG7ph+n4jumAVM75r2crnSD2RA95jo50CJDBJFXYGxcsfe4LnZXPqCmEbsTWwrQmdatj6mRctWJBWuy76DFiWuNDWXp6Grhpp66uVKP/Aw4XhuFrBUZxkvidumf0+8NHSgqauWXih4mPq82PTPtiKElq27qt+3hGPNHXBjL0y8hBYlrTQ+m1dICQf+J1Xv2P56nQs8UKVtJ+XKHPD7mhm7UJStDI25tjvHGvfRUeHS8E5gx5YihELDjyvftH3BIayehYkXCSsowORpE5j/frB+u1zpieghVfoidRjHMrOZF7+clqeukSt7g+Z/mNAB94Y3sKUIFbfkizHOdi80zHHNFJnQqHA2E9HapOJNqm7Xf9oInK0bCx81/XiBWjzU5KGFig4cb9rvtZpL24kQrJ83Tv2duvo65I49wQjltcZNbHbIHAlpu2repw8rXtPCgT8aeDHtqHqX3i97SbzhzSTYOI7dmvttyoicJvK77AxeVK97qRWsrUQI1b9byl+hkzafooq6ptWZt4j8EzPBDfXGqSfo2fwNpj+QVqJ3oJveKX1OWETNJje2Q2sVjLI225r1BBiYiOvm6UxqW4lQdUeZOFbYHfgSlqVcaWokDG+2x47+gjYbN1VPf7fcdQ7oJvhBxav0yOH/ElFBs4AFhIjZBSmr5Y69QbCnuOWEXHkG24gQjhI7qt+1RIanO2RETqXLJt1gmgDBWsw/fZB+tvMrdLRxr0hlcCqIBBacPkR//vSndKLpgGnHUUTMrsi81RCj8bcPsRqtPU3Gc7ZZvMQ8hW1EqLKtmHYaZ32rNWQaDwG+QYYAfYGigsybsXWgbjs9fuzXXk9AsxLlbYX06JEHRYqCWV0WEK6HozomOFHu2BP41PbVbKWThnh7CluI0JDTzO6N62fELqR58ctMsYLQH2ZPzRZxBGswzvbMP4J757n8P9Hu6i3iQTOD9IjJ4lhm9yEDXf0d9GLBwx4L/lhehGBS76n9gD61QI2LO6DFBHoem3GDQqS3Vb1FT5/4g2XaM1gROKyfP/mQiJyZcZ3wcjk/+XJK06DQFd0XPyh/xSPHecuLUFN3PW0tf12u7AlG8+AYhkiKGaCjJCbNdvS1yR1mJHCNXi963LQGeFFBsXST8bJBW127Ax8sppGYjeVF6EDdNiprs/cU1ezI6SKCohq8pdBL6akTv7P8qF8r0dXfKUT7cP0uU45m+H2ji6XdndR1nRVicITZScGWFiGMX3m/7GWPeurNACH5cMVJibgxkOX6TP4GPoJNAIxDeuL4b+hYw15THjL8ztEbys7gJQeLEVM6zMSyIoQo2LMn/0QNXfZ2smLqw0QmP4wGLJ+XCx4RvbWZidHW22zcY38UpR6qSQvP1qKkA9fo6RO/N/VFZ0kRwpvpSMMecdSwM8iiXZd9pwjNqwQC9Mjh/xShZ8Y9ajsqREuY9l61Ra/Iil+WskaLSvui5qO0u8a8qKIlRQg3xMeVb9g6JwigRWuq8UZUCbKfN5U869E8Dt05Zhxr3yp+UvmxH32pL0m/Vq7sC45ln1RtEu4RM7CkCGEkLywhO4OZVefFL1d+DDthPDC4IRh19A/0Cd/jvrqtckcN6A8FETIrKupJzHwmLSdCZ4ouHzcts9VTZERMoSxXrlyp4bTxJnr91N85FG8COGq8deopqmwvljtqwJF8SdJlyl9G3gDHVhxfVWMpEUJi4qaSZ5TfCN4AIVq0bVUFjgqvFv2NytgPZBq1nRXKx4hDfPJiF1B4oEvu2Bd0JHjNBAPBUiJU2log8hLsXnQJXwDKM3ALqmGQjjTu1qKdrZXBfYfxUar9bZMiplJKmB7jgg7X7xT5VSqxjAih383Witc80prTTJC6f1HaNSJLWhUtxhF1S9lG2x9R7UDfQI9I/lSZ+hDiHyoGWeoAmgqiyr5ToUvAMiJU1HxMtGy1uxWEKQwwv1WCRuRwDDKeoaajnHZUbVYanUWQIjooTq7sy5n0md3inlSFJUQIjtZNpc+ILFa7MyVqNrkUjoPBtYFDkK0gzzFUNN3QVSt33Ac9qecnXiRX9gaJi+haqaoxvtdFaCg1/HjjfrljXzAxY2r0HArwUzM5A+050EnSzM6AzPBgKMCh+h1ypYbzElaIo5kOYHoLWsGqyK3yugjVdpYLEdKBEP9wmuyaoSwcW99VRR9WvCpXjCdBF0a0slCZDpEQkkrJYZlyZX/2VG9REq31qgjhTY9oWJ0mXQATQlIoPjRFrtwD1+Zow16ujvcieNtjvp2qcoVg/xDKceWZ0tTOG8B5r6IlilevRlVHie1btp4NzvyoGVIButuhkRtXyHsX3J8t3Wo6euLeyIzMVV5L6C0gzvtrP6aTTe5Nv/GaCCFVHi1b7d64fgiE5GfGqesZVN9VTYXNR+SK8Rb4PeQrHDGVFp4jnNS6gJSaFwv+6tY0ZK+IEBR0T+2HQkV1Id24uWIUNrDfpsGYax3o7e+m/KaDyizSeOPInhiSKld6gG4OWyten3B6jVdEqNkwb3HW1omZcYuV9Y9GF4GdVe/JFeNN8MKERdqhqNUHilpzY+bLlT6gFWx9Z6VcjQ+viNDB+u2iR4ku4CiWZZz1VfGpcX3gE2KsAYo2VUSBhpgRu8AQI6+6Y5WDlIZdNVuMT+N34nv8SsCj/l7pi9o4owEqpVUlKMLst3sbE91A9Ge7wvYpCaFpFGvz+WSfB8/zB+Ubqbz1lNwZOx4VIZwZn8t/SIQ+dSI+JFnZLHK066hsH/8vkjEXRCpVjdMO9guhxNB0udIHuBFeKvzLuBMYPSZCOFujIdeRRrUVuFYgKihOWcSjobOKWnua5YqxCojmHmvaK1fuo/L4biXQgWBv7VbxvI8Vj4kQ6sLQq6W3X6+8F2RHxwQlkL+PmjlTle0lSrN0GXWgtGg8D9e5SA7PUJZTZiVgBW2vepvaxvEi9ZgIIcx5qGGnsl+iVUC0Iy4kSXx3F1wbjFfRyV+mExVtRcpGI8cHJ1Ognx5Ji58HyYv76z6Sq9HxiAhhDvhbxU8pKXazGj7GJYwJTpAr90CpRgX7gywLjsntiirHcXzXoff0cOBlurn0hTG3gjVdhNAW4b3Sl7QdT4NQa6xhCakAyYn1mtTR6Uh7X4uyDP9A3yBlwQwrgvv4zTFOMDFdhMrbTtGuGvu3bB0JvM2C/RQ5pbtquGDVwiA6hkRbFWAeWUSA/ftOn4vDDbvG1CrXVBGC8KAnC9qT6goESFVDezMmgTLqQAtiNHtXgb9vAAVpVEM2HAiwILWhb+DcVfamihB+aYcadmjtaHUFxVCAcUOpQIcpIzoDX0dTV5347i4o8Qnzx3HM/qOARgKuGBghnaP0jTdVhOAHKmvVe0RNeECE8U81N1JlG4uQ1WnpacLTJVfuER4QSQqCqpYGLoaTo/RHN1WEdlS/p31v5JhgNU5pdPJr6+UkRavTaoiQCglCSgdC9DoMRRyNjyrPPcvNNBHCQ7WvVu1YXSsSoSjMipoxVU5PxjzOhOjdlyGIj8rhmFYmv+kAtZ7jBWuaCFW2nVI6m8iqoA5IBQhl6pbIqSPdA13KfktnKun1t4QQoCpuOS5X/4xpIlTSelJ+Yhh9QA2ZKpCwqL8EnaH0HHpgmgjVdpTLTwzDDIefoiZ4dqCuo4J6R0hcNEWEcLRQOUaX0R9VbTIYa4KoYr9HRWiwV/QWYTRkcNA446uPeKpKAmSsSWdfB/UMDP+iMUWE+gf6qavf/iOdx4YaN6VdfANwnjd3NygvRkaFuh1QGVJv62kR19MJ9BoChK/hMM0n5BQ6FfWC9vP1J3/jyw7UdlaIN5squvo7Kd/N2VWeIjQgQpEMQX6cEw1Fys5I5RssQm4ynuZN58LXx1+m8VsfZHar7IqA/jMYB24HgvzVpGRAfpw0zABtakYSXRYhN2nsqpGf3CPQN9B4y4bLlbXBW21z6fOiNtBdkPz3btkLtumyEOavpkwHDyUapOG7E/D1Qeet4eWGRchNVDpUVc2x9wQFpw8L8XDHN4QCx/11H1NJS77csT6uoFhRcqECtDx2CpCgka6baSLkr8m87dFo7KodMf9hvGRETJOfrA86I6BZ3cH6Tybs2yhvK6KNhY/aatKsqm6IuGZodeEUv5C/YeljPt9wmCJCKMxDhbATgLOtS9EbLTlskkzltwd4iF44+WfaVf3euPwb3cYxDhbQhoM/UtYu1RMEGA8S5oWpiJAhL0rVVFc7EOwfIrpJDocpdzwaNsFsdQIdfa3KzOqEkLQRf1FWBUmpz+RvoGdObKCKttH7Y2Pm3CtFj9LTJ/5wpi2GjUA3RFegmvu6d6DLUSIUGRgjdGE4TBEhvClSwjLkSm9QS6Sq73BYQLiypvmeBA7WndXv0oN77qENB34kuifUdFYIfxm+6ruq6XjTfnrk8H/R//lkPW0p2yhaYtgNVL2rernCEmofpdmXTkQGRAlLcjhMs/1Tw7LkJ73BmR6Nm1QA592kiClyZT/6MMK6cTf9z5Gf06/23Eu/3H3m6+e7vkm/2/8A7a390NY+EPiDXEFqfEKwnu1mCbpDpmvkYY+miVBKeJahfPo7pxHhgQjhu7sgepAanm0rv9BwINyOsp3G7lrxpUtLl4TQVMMaUpNG0dBVq2yGmR3IiJwqP/0zpt3tQX7BNC/hArnSF7zZMd4EuTMqSA5Ld0yzK7sxI3ahEqc0qO/CPaN319Eh0owXa0JIqlz9M6a+chcmrhQNvXUHtVSdimrl4kNSHBNZtBMY2Tw5apZcuU9B0+ijcHTh/OTL5afhMVWEJkVMpqTQdLnSl/rOamWRjujgBMf40+xEZmQuuQJj5Mo9UE1ul4Jdd8E1mxm7SK6Gx1QRwoTJvNgFykxYq9Lc00CNXeomc06PnS9XjBXA/bs05dxv8/FQ01EuIoZOYFrMPOPFGi9Xw2OqCKFzHFRQ53G3AKULRc1H5cp9ZscuGTGngvE8eIimRc+VK/c51rBHftIb+DbnxJ0/6r1sqgiBKVGzlf4CrUph87lnK40H5KIsSLxIrhhvg7QJlX465Ew5AUR6p8eMfhIyXYR8fXxpbfbtFKtoPpdVKW0tUGpin5+0ynbZ0zqCNJNZsYtHrHsaL4ikVraXyJW+wAq6OvtO4/voo65NFyGQGJpGl066XutIGWqgjjXukyv3wVskI9I+Ba26gvYqU6LnjPo2HyuYOuGE/KAVqWsp2zVDrs6NR0QIv8DzElYY/1F5ckdP9tRsUZK0CEKNN8nc+AvYN+RlliRdRvEhyXLlHsgLKmw+oqQPk5VJCp1Eyw0RwiloLHhEhEBEgIuWpVyh9UNV3V4mIh8qQNZ0Xsx847pFyR3G06BMA/esKtA9oLTlpK1LV0YDwailKaspOihO7oyOx0QID9Xc+GW2ro0aDVTUnzyNJDQ1NxmOsfMTL5QrxtMsT11DsSHqfJlN3fVU2lYgV3qSFDaJFieNL0nZYyIEUMpx+/T7tC1LQEX9qZbjhLnyKoBwr8q40TFtUawEAikLEi9W5gsCe6q3aH0Uwynn6uz142785lERAni7X5R2te2LNIcDZnZ+00E63a2u5SuOY1dk3GL8gu0xiUMHUEiMFIk4hRFdVMzvqnlPrvQDz/PCxEtoxijZ0cPhFSWAsy85VM9+Q2h8XyCOZOqYE7+U0jU+xlqNUP8IEd1R6b/cV/uRaAWsK1GBMcJ/NlZn9Nl4RYTiQpKNc+MlcqUXsIbeL3tZad9k1N/o7tS3CihUvTpnvdLmcmhedqh+h1zpybyEFRP293pFhKCW8KDr6qSubD9FB+q2yZX7wNSdn3ARzYhZKHcYM8B1nh13vkgUVUl5a6HID9IV+CwvSls34Zek1xwz4QEuumHK10VTfN1AU6+d1e8rTUqDU//OvPuNN3Si3GFUg7DypZNuUGpxwjI+0rCb2nrVDMm0GnDcX5tzl2hBM1G8JkIgxzXDeMNfqKWTusx486ksagXB/qG0LvsOMYqYUQuOYUiwO1cHwIlwurtBTBbREQgQGr0hEdkdvPr041iGhkeqZjlZCbz5DtZvF29ClSDX6rz45XLFqAL5WHBGI9lOJe+UPEsNnXq27UCqzbKUK0dsYD9WvG6CTDasoQWGNaQjmDqBgkWV4Fi2LvtOSg3PEm8ixl18hG/y5qnfolBF/aOHwAikD8pfUf4isgroezU95jy5mjheFyEcxVamX0+JGnZgbOttoedOPqQ8QS0iMEr4h1LCMuUOM1GigmLpmpwvG0ddtQm0SFj9uPJNudIPnF6uyLhVSXcBSzhj0DRqTdZt4lyuG0cbdtPhxt1ypQ5U2cMi4n7U7nH95K/StOh5yq3KqvZircPycODDGleBZTzC6MCYZ5h3uh0xECnbVvGW8uiIcArGLaTVmbdSsN/oPVuYfwTX7AtTvi4yoyeSYHcucPz6oPxVZfPorMbkqJm0JOlSuXIfy4gQIj8Xpq4T33WjqOUoHazbLlfqgOWIEph12espjCNmYwYhePS3WpayRu6o5VPDAtpds0Wu9AKN9hYbAhQW4JI77mMZEcKbHU4ulWNVrALyhd449YToRa0aRHNWpK2lS9Nv0PI4awa4VlcYFqQZOWqoEXv2xAZTftdWICU8U4iQSuvRMiIEUP6PM7od57GPBubVP3nit0rLOYaAEK003uxrs25XHuHRCVjZa7K+RFdl3y7uNdVAeOCMbulRV8BsJXD9rsm5y+2Q/OexlAgBVNmvnHSDKTeJt9lf+xEdqt9pSsgWNwachchC1326yURAr+g1mbfRZSbeWxVtxbS1/DVl03itxoWpV9EUE04qlhMhgGS8rMiRB+jbFXTWe7fsBTrdVS931IJ2H0uSL6Nbpt0jezZxHhGO+SgRWp93vxDpIL8Q+RO1wMJ9qfAv1KypFYRmZaj3NEPALSlCqBpfmny58Re25H+eW5S1FtDm0udFAzQzwEOHUph75vycpkXP0fIajgf0Nb9r5g9pXoJ5Wea9A930VvFTopeUjiCXD36gWJPqFi15h6KpFNLoMzS0hhCy/6jyDdpa+brcMYcs13TRxXJR0kq54zwWJV1Cd+Y9YOrcOxytEQ3bWvGG3NGPhJAUUZ5hVuDDsq9JmM1fNm6gYJPMZ28CB+am4mdE8zMzU/rh4P9S7vfo1mnfFm8x3XKwRiI6KF4EOL6Uex/FhSSZ+vdu6qoTv8vOvja5oxdIZ7hl2r2mJsVa2lZH8zNUNqsuKrQCCOW+UvQYtXQ3yR1zwBkeb7GvzPwxLTQsA53D+HhxIflw/Ywf0MXp1wgfmZkgAfXJ47+lsrZCuaMXEG/4ZzFF2Uws7zA4P3mVIUYT71ViVWABFZ4+TE+e+J3p0RQcbzMjpwmr6BuzfybEXTeQmgCH/Jdyvy8iOGaLbU9/N20sfJSONu6VO/oRERg9rvlhE8XvpwbysyVBuLl7oItOaDq/u7ajXDg2syKnK22mNRywiuJDU2h+wgohTO29rcYxot3UI6GZ4O8TG5JIy1LX0B1594tyAj8PDAQYHByk7VVv0ZbyjcbRWs1kFSsCZ/QFE+wbPR58jAtq+Tuwtec0/enTn1Bxy3G5oxc4RqCSGyUYngKTYqs6SkUb2u2Vm6hB4Rx9T4CWohckrxZDAFDM66kjOwILe2s/pOfy/6Rtt0QAH+K98x6khJBUuWMethAhALP3z5/+VFgNOuLvG0h3z/wRzYpbYqojdThwtNha8ZooukRmNx40HBitBiyfEP9Q0QgPpReuoBj5E88AixGtWh8yXohnrpGeIPH1pqnfElaQJ7CNCCGi9MTx34jZTTb5Tx43KA68Pe8+MYPeGw5klBtA7I837hetaVEFPuDl7F8IMlq9oPEYOi3MjFss8si8AVwCzxoWUFV7idzRk9yY8+hrM3/isWJy24gQQEj7r4f/U0SWdCU6OEE4WGfFLpY7nmZQZHajN3Jl2ynRHxnC1N7bIn9uPvBBwBcIP9k8Q5AzIqeJsHuQf4jHrcQhMN77b0ceNK5LvbCIdCXEP5xun/5940W41Fh55lrbSoRgAj+Tv4E+qjA30c/bhAaEG0ezf/dIlGcsdPV3UuHpI3SkcTcVnT5KzT0NolskugcisjdRawnHK/hycBTFEQBdDrNd02lq9BzKcc20RO9x3HP5TQfosWO/omZDmHUHKQ635X7XtPKW4bCVCAEkh/32wP1U21Ehd/QED+BV2XeIGVieiPiMlV7jWNxqWKJ1nZXiuIagQVNXrRjw19HbRj0D3YYl1SEeXogXCPINFtYD6tlQSBpmiCzeuJj37gqKFlYOLMCooDhLJafi73DUEN6XCh4xjmClxo6+FhCICHDRd+b9SrTr8CS2EyGwq/o9evzYr423sDn1V1YBuS/XTb7bYw7CiQBx6R84Yw3BKhqkgc8soyHnrRjpZNxmsHrwecgCwncr17Ztq3ybXit6TNui1M+Dl96Vmbcanzx75LWlCME/8bejv6CjDXvEQ6A7l2fcRJdN+gK36PAQOGYiWvj6qb8rHWBpZZDM+tWZPxFBAE9j+Yzp4cDwvxWpV1GAhtNbh2NL2UZ64eTDWjvkrQIcz8gBev3UE44RICTJIjHR0ykPQ9hShBAhweRHM6ujrQT8LDuq36UH9/yLmGvOmAP8XP9z5L9Fd8Suvna5qz8JoWm0NNmcXkFjwZYiBOBTuC7nK8KZ6QwGhVP+z4d+Rp9UvaN8lpmTQUoCMseRDIs0ECcBv+NNU75pSr/tsWJLn9DZbC59gTYWPvKZE9QJIMqExD1M2UCrCmbitPU005vFTxqW5jvU6ZDj19mg2+R1OXeLWkJvYVtLaAgUY06KmCpXzgBFp7trPhDlA/mnP9W2p7GZ4Joh8/k3B+4XhahOFCD0c0f9nTcFCNhehHAcQytY5zFIle3F9KeDPxZh5Or2UkdEClUA5/Prpx6nX+/7vsgKdyoLEy+m+FDzC1RHw/bHMYAoxgbjYSxsPix3nAX8YzHBibQq40ZanLRSJAQy/wwc/PtqtorjV2NXrfZ5ZucCVfIPLPgDRQRGyR3voYUIgcq2YvFm6+hrlTvOJC9mAV2Z9UVKD5/sVWejlYD41HdU0RuG+Bys32bakAG7gJD8N2b/h3GvzJc73kUbEcJR5Ln8h0SSmbcrv71NeEAUzYpbLMxtNPpSPazOLiBYcarlGO2o2myIzyei3MTpiJatiRfS+rwHhAVtBbQRIVDeVkQPH/oZ1XdWyR3ngpstyD+UcqPnitKPeA1b5J6L6o4yerngETrRdECkM7C/7Axo2XrXjH+zVI6dViKEvwrmP7126n/lDgNQiX9ewgo6P/kySgnPEsWx3mqJYSYopsWL6FD9DtpZ/a5xNG+TP2GGQEO4W6fda3or4fGglQgB3IgbDv6ISltPyh1mCNSeJYdliByjefHLRMN7uw9HxJELlu++2o/oeNN+Q4QKPdr7yE6gLuw7c39JCRaIiJ2NdiIEYIIjWqZzE3IVoHcMKvTRtwgp+3axjnDL9g32UnlrEb1d8rT4fWMMMzMysHxunnaPyAuyGlqKEHwAaAW7p+YD9gWMAo5qCaEpND1mgaikTgxNNyykRNHvxyqihFu0s79dzPCv6iihU83HhNWDnlKoeGdGw4dyY+bRV2b8yLCGI+SeddBShADmgv/l8P9l03wcoMd1eKBLOLEnRUymLFeeIUy5FO2l+jz08SlpyRf5XwWnj4ge2OhuyMIzPtAlEd0SMVrditautiKExvhPnfidCM+yNTRxgv1CRWLblOhZotl8miFOof5h4sbGEQ5mvi/++PieucF98M+Rb3T8LuDHwW13phFan/jCcQqlE5jDVnDaEB1DeGqMz1yo6z5z4s6nO2dgpLpnGtePF21FCMBJ/f/2fVf7VrCeBKIDkz4iIEo4ujH/K8gv2FhHiza0IYY4oWc0Pg85vZEciDlnvYO9omK9u69TDLRsM34/sFRb8L3P+N7d5OgsZjPADPlvz/sFpYXnyB3robUIAYRq/y5awXKRp5kMCY6PYRWhIPJsa2jIEsWtduaz8c/PPjNmcnX2elqdebPxyXrHsCFsX8A6GtNj5htHCXMH+jNnQuX4giWDozD8NkNfWOMLP8MRTBzHWIBMB349RECtLEBAexFCgR5awVphdA7DeAr465CYGBOcIHesi/YihGPB7NglbA0xjgJdFdDixlstW8eD9iIE4CTFVFPntIJlnAw6b9414wcU6Bcsd6yNI0QIJISkGseytZ85UBlGR3B/wwLKiJgmd6yPo55IOOlSwrLkimH0Az6gJcmXeb1l63hwlAgh6c7K00wZxl0WJF4sipTthKNECE66pcmrKNuVJ3cYRh9iguPp4rRrbBcJdpyDBM66W6bdK+YtMYwuIJP9ttzviV5RdsORXlqYq/APsZOa0QGkoaBH1JQoe6ahOPIpRG9d+IZQ98Qwdgc1fEjItVK3xPHgWFMgPTyHFideKlcMY19mxC2inKgZcmU/HCtCPsZR7OL0aygtwrrVxQwzGkjAXZP5RdELyq442ikCJx6qjO1qxjLOBvftOuP+tfskFcd7ZjGXa07cUuHcYxg7keOaQbPjFsuVfXG8CKHb3LKUKyjIP0TuMIz1wXRdBFdCLdgzerw4XoTA1Oi5tCSJndSMfZjsmkVz4vWw4FmEDJAvdHnGzZQYmiZ3GMa6oL3u1Tnrbe2MPhsWIQmiDKsybnLs3HbGPlycdi2lR0yWK/vDInQWeXL2FsNYldTwLMuO7pkoLEJn4QqKoeWpa+WKYazH4qTLRG8snWAROgu8XRYkXEg5UTPlDsNYB5QZXZy2TruaRxahz4FMakyrdAXGyB2G8T4Yy/3Vmf8uZrrpBovQMCSFptOy1Ct5QgdjCfBiXJx0CWVF5sodvWARGgF0qIsPtXc6PKMHUcYxbFHSpUKMdIRFaASQM4TG+Gj7wTDeZFHiStH1QVdYhEYATuqlyatFbRnDeAsUp6Jlq85F1ixC5yDIL5iuzrlLzHFiGE8D4blhytdE6ojOsAiNQlp4NreCZTwOLPFZsUsoN3qe3NEXfrJGAWUcy1PWiJn2DOMpYH0vTVllmymq7sAiNAZgDZ2fdLlcMYz5zIhdRNNj5suV3rAIjYGhVrAp4Zlyh2HMA5nRV2Xf7pg8NRahMYJWsNfmfIUTGBlTwf2FlsN2b9k6HliExgEmt86IXShXDKOeLFeucQw7T66cAYvQOAj1D6ML09ZxzyHGFPx8/UVumivQWfPwWITGhQ/lRs+l5alryMeHG+Mz6kBIfoprlkgHcdq9xSI0Tnx9/Ght1u00LXqeuHEYRgVoVnZ73n2OtLJZhCYAcjjgPIwLSZY7DDNxYoIT6PrJX6PooHi54yxYhCZIRuRU48b5KoUHuOQOw4wfjO5ZnXELTY2eLXech8+ggfzMjBNcuiONu+n5kw9RbUeF3GWYsYHGeVdl30FLklc5ulsDi5CbDBp/jjfuo8eO/pJaeprkLsOcm7CASLp12rdpXsIyx/sWWYQUgEtY3HKcXip8hIqaj9LAYL/8CcP8IwhsJIdNomsn30150fM5ymrAIqSQxq5a2lz6An1c+Qb1DfTKXYY5A45ci5JW8qDNz8EiZAKH6nfQUyd+T83dDeK4xjgbHLfQqH5d9p0ix4zbwvwjLEImUddZSVsrXqf9tR9TU3etcUQbkD9hnALEBr6f+QkX0kVpV7P1MwIsQiaCIxmiZntqt9C2yk3U0tMof8LoTrB/KC1OupQuSF5NiWHp2syNNwMWIQ+ASwzLaEf1Ztpb8yE1G2LUO9DN1pFGwOoJMIQG3RamRM2myzNuEpXw7HgeHRYhDwMBKmo+QhVtxVTSkk81HWXU2FVD/RxRsx1wNMcEJ4qM5/SIKWIuWJZruhjRwyU9Y4dFyEvACoI11NbbQp19HUKM6g1rqbOvnSNrFgbN51G2E2dYOYmh6cbnUAr1DxeZz9xramKwCDEM41U4VsgwjFdhEWIYxquwCDEM40WI/j9tuXbUaTsl7wAAAABJRU5ErkJggg==;fontSize=12;fontStyle=1;aspect=fixed;spacingLeft=0;spacing=5;labelPosition=center;align=center;whiteSpace=wrap;" vertex="1" parent="XVXjPDOLn_KU066pgajj-9">
            <mxGeometry x="355" y="172" width="80" height="80" as="geometry" />
          </mxCell>
        </UserObject>
        <mxCell id="VRYah3EjvfzrCM_-gziz-6" style="edgeStyle=orthogonalEdgeStyle;rounded=1;orthogonalLoop=1;jettySize=auto;html=1;entryX=0.5;entryY=0;entryDx=0;entryDy=0;fontSize=14;" edge="1" parent="XVXjPDOLn_KU066pgajj-9" source="VRYah3EjvfzrCM_-gziz-3" target="VRYah3EjvfzrCM_-gziz-2">
          <mxGeometry relative="1" as="geometry" />
        </mxCell>
        <mxCell id="VRYah3EjvfzrCM_-gziz-3" value="internal balancer" style="sketch=0;outlineConnect=0;fontColor=#232F3E;gradientColor=none;fillColor=#4D27AA;strokeColor=none;dashed=0;verticalLabelPosition=bottom;verticalAlign=top;align=center;html=1;fontSize=12;fontStyle=1;aspect=fixed;pointerEvents=1;shape=mxgraph.aws4.gateway_load_balancer;rotation=90;" vertex="1" parent="XVXjPDOLn_KU066pgajj-9">
          <mxGeometry x="105" y="20" width="80" height="80" as="geometry" />
        </mxCell>
        <mxCell id="VRYah3EjvfzrCM_-gziz-7" style="edgeStyle=orthogonalEdgeStyle;rounded=1;orthogonalLoop=1;jettySize=auto;html=1;fontSize=14;entryX=0.5;entryY=0;entryDx=0;entryDy=0;" edge="1" parent="XVXjPDOLn_KU066pgajj-9" source="VRYah3EjvfzrCM_-gziz-3" target="VRYah3EjvfzrCM_-gziz-1">
          <mxGeometry relative="1" as="geometry" />
        </mxCell>
        <mxCell id="XVXjPDOLn_KU066pgajj-12" style="edgeStyle=orthogonalEdgeStyle;rounded=1;orthogonalLoop=1;jettySize=auto;html=1;exitX=1;exitY=0.5;exitDx=0;exitDy=0;exitPerimeter=0;fontSize=14;startArrow=classic;startFill=1;" edge="1" parent="XVXjPDOLn_KU066pgajj-9" source="XVXjPDOLn_KU066pgajj-2" target="VRYah3EjvfzrCM_-gziz-2">
          <mxGeometry relative="1" as="geometry" />
        </mxCell>
        <mxCell id="XVXjPDOLn_KU066pgajj-2" value="Database" style="sketch=0;points=[[0,0,0],[0.25,0,0],[0.5,0,0],[0.75,0,0],[1,0,0],[0,1,0],[0.25,1,0],[0.5,1,0],[0.75,1,0],[1,1,0],[0,0.25,0],[0,0.5,0],[0,0.75,0],[1,0.25,0],[1,0.5,0],[1,0.75,0]];outlineConnect=0;fontColor=#232F3E;gradientColor=#4D72F3;gradientDirection=north;fillColor=#3334B9;strokeColor=#ffffff;dashed=0;verticalLabelPosition=top;verticalAlign=bottom;align=center;fontSize=14;fontStyle=1;aspect=fixed;shape=mxgraph.aws4.resourceIcon;resIcon=mxgraph.aws4.rds;labelBackgroundColor=none;labelBorderColor=none;fontFamily=Helvetica;labelPosition=center;" vertex="1" parent="XVXjPDOLn_KU066pgajj-9">
          <mxGeometry x="195.0000000000001" y="172" width="80" height="80" as="geometry" />
        </mxCell>
        <mxCell id="vnhiXVCFl-J1-bnZWNb9-1" value="" style="shape=image;verticalLabelPosition=bottom;labelBackgroundColor=none;verticalAlign=top;aspect=fixed;imageAspect=0;image=data:image/png,iVBORw0KGgoAAAANSUhEUgAAAIMAAAAwCAYAAAAyw8m9AAAAAXNSR0IArs4c6QAAAARnQU1BAACxjwv8YQUAAAAJcEhZcwAADsMAAA7DAcdvqGQAAA5ySURBVHhe7ZwLkBTVFYZPz3NndhcUNCIloigPn6iREEQ3PIxbCKKFIphERQuIG7BEVNYYpSwkGjBaoKyokCBqIYIaIcHUYiGWaChLLeWhEipgEAtEXgK7s495dM5/+vZMd0/37C6wi5L+qrpmuvv27e57/3vuOefOrqYz5OPDBNSnj48vBp8cvhh8shw1nyG96T+U2fIVpd7/iNKbt5D+9S6ixkY5p53YnujUkyh04TkU7HsxBbufRYEuneWczw+HIxNDbYIaq1dTctlKyqzbRHQwQRQKEsUixnlNMz5xi1SaKMkbPju2p+BFvShy+038eT5psahRzueYcthiSK39hOoffoIyG7byyC82RGB2flPglnWNpNfUU2jo5RS95w4K9jpbnfQ5VrRcDGwN6qbPomTVa6R1OZEoHFInFGZ1sABWIBbgFEyigfRvD1J0xl0UrbhVHfQ5FrRIDPr+A1Q7djLpG7YQxR2mHdUcqpMpQjvtFKKSGGklJcapmhqivQdJ37Fb9mUasYpCXRscWkaxmVP9aeMY0WwxiBBGV5D+1Q67EPhyffdB7vgiitx9G4X6/ZQCnTuR9pOTVAEuUsejf89eynyzk5LLqym5cDlpRWGi0lhOFKYgBvel+Lw/G8d82pTmiYGnhppb7sy3CGziqX0JRSbcTNExo9TBZsD11T/3IiWfXczTDE8flqlG/+4AhW8dTrHHHlBHDg8IsK0tDO7phfksXmVwvjnXtybNEkPd7x+l1Osr7ULgyCFwxSUUm1552GFi+rONVFf5aL614bojj95D0dHXqQPNA9Yr9el6Sr29hi3Rvja3MGgnhNV51NRRbPY0Sq3+gJJvVssUaoOn0OK/zaeGZxdS6uN16qCd2EN3S+TVmjQpBnRYbdktpHU7WR1huLO0vudT8V9nHbFiM9t3UOLGCaQfPJizEHgknj6K/76gSaFhNKXeeY9SH31K6eq1lNm2U6YgrXsXKqlepEq1DTU38TT6yZeGtbOg76+l4rfmU/Kf71By3tJc6K3Qt++n0m2rqW7qTEqveC/vPELy2MInZApuTQpnIBE58MiVqMGEpwbM604hoFOReNK/26OO5JMtwyPYBJ1dvGweae3a8UunjIPwI/g+9TOrjH0vMH31Lqe6cQ9RatFbpCdq2Vdpn9+YbYk57Vk28Y+KiozziKoc5204z8u+XVytRUExJN/9QPII2QfGiGUfoWjqZNsc2DB3ISVuvou3SVR7Y4XsW+c/dH7dwzPFAkgZdkQb31ihznLfs7NZ9OSDxo5pqHjaSL2+SsTjhR4IktbxRNJOZiFhmnGGrW1NY6NYAUm+WTZ9Dx+rr1eFCoPci+16dqqlzjag4DRRe+tdlPl4Y04M/HCRqRNtziI6vqFytmE9oOJUWsxe9KnKbLnEnX+QjpVOA6pM7M3ZFB50hXGMyfNN+H7hib+mosl3GPsOILjaQaPFItiEwBYG4W1bTxPJd9ZQ5ru9as9OpHyg+ATJBW/Y/SNG37pbpgn4O5mv2X9yIXL1YFuE1hp4igEjMjF6gjFS0dD45E4s/XyVKmGY/doR4401CGdnnNyBipfMpcyOb9kiTMzPLaDMhT1s0w3qq+k7wjD1QHVq8UtP5TUEMqB6HUcllTPy78/PqsWLKXxL0w5ooGc3myBhsfRd9qkOjpt1vpZOd+u0Insnm2iRMIWHXEkNs57zFEO7ne9Tav2XlN62XR21E73mKqLiuNozwGCAT5esZgu64d+yHqSFeEo6oxOFy35OoYH9W5TZ9RRDcsXbVH/nNKJ26gFgFe4ba8sS4kESY+7JCcZE7ccXV7EYdlL9WA4TzXpMPDoaViRd/YHRYKiHzWT8rQV5L3WoxwAxqWJtrPc2UdcWQq9PUqDfeVTy4tPS0PB3aq8dZxODWab45WdEtGKNhvyGMpu3G75AE8j1XU8Vv6jhL4sKiiGb2T2pWJ1RsMWNL59vawNZDnhqvuGwItuLwQbLLCd5v44HSGmMgmV9KDrhtmaJwtNngHeerRwNyzdzerNaxw48hbg3iBaLk8YNjE+pB3U46dBeylgJDbzMeBmgOjnFosuDfRdPIQAchwCxcaNoF/eQBTJJdKnjuF7/dDPp7IiC9JZtpO/dby/DViqz9nNJmoEMj1z9+4PGvVUZqZ+jF+30TrZr5Xqs27RzhJJeRNnZ7GSpFxvqc4inYfGblLieI7D1mw0RoBymcrwzNnzHMQYDKzF8rAzcpvAUA8xO1ovlzsEoRmbRCiKB0NAyyUBKZ6sN+6GR5cZ5ZCT79TZGqbUM+wyRkcPyTF+wW1fjBVEOsJAy674wvh8uPEpC/ftQ4NyzckID3HAYuamNPLoYmFvBITBYgOSqNfI9/QW3Cxw7axnUX14my/S2+lsBCKFh/DRDjKYAvMA5CIn7MTGioklBeEcTO/blLAPAKHZxYGL3TaTw+BHGjWGaIhHZj1bcpkpwmemVsu4gcBnM51iYiowYahyzIIKLW0YSv0hmxy61YyGZbLrhTfFBzFxvsBeLAcvoFpBGT3/IVpBJLa02hOiEj6U/WS9fU6v/ZW8XwPWH+rHYShzm/SgDn6rxifmkncn94CYC832dQDT8zHUzqmxRnhNPMTg9dM8X5ZEde3iK+AfxJXOo+I3nZd+ag4CFiD/9R4q/+oyUiS+p8l6hLC1VX3LIQpcD7QQeGcDt5U0cDRYa0N8I3ayw2NKbtkhDw1q5NjKs04bNRp5kzcd2waj744c7eiMLtJXAdNr48mtEew/kPyM/A9L4Mhh5k+/OdmELoX+4saB1KJhn+CFT8u5SiWxgZfJeHImxKy6l0s+qqXTdSirdukZS2+gwiVSs5bmj9W93S4LLllyzwo2PFVfpDOcUAasDf4Q7S1e/7DrqsF+m791HyVdXGD6EFbwLW+PYy49T6eZ3ZYvNe8QQhrNdWMSNi9iB9cBTDM5GztR4JD6QpURCicNQhJAINbFvNUcYUYgSEqN+J2WQfEJ+wpVDh9SXHOZSuJNCJs8V7rDQkF8YDWWCjt611xjxZj7FDW5I187gusIjr1E7rQPCxZRX8o19sfBNw2zhcXjoLyl0PYei1vcEysJ54W0ZOnOkYJ2T9x1wTTXXPT6Hks+z2iAcmE8eHdhvmLtAleAyD84wcu6Ay2AKQqLKmoU0QV6CEpaQkOf4QOdT1M6RE+h9rv29mgusAd7RahWwz+IItfICkoAUvnOkM3CAgxedp/ZyuL4nhG9ZCnDiKYbgBT1zzhZM6Te7jI6ygBGf4k7Ohnhqwz6cMTnP8XBm7TpjRFnLsEluXPoPsSxW0lu3GYpGOcAvJC92lIgMutxIDzdFMpXf+OYzmWCK4Agl0LWLOtCKxNTahgNEOgh186h3sZr8PmLxPfAUQ6jPxTlloRG4g9CxVjCPiVfvArKDiN/xKfU4GxLsY2vjEIPNW1ed0eKRhwhkDz+bC4iIApcgqlCLYm7wucCl53PMz167y2jMwm0S6tPb5iy3BnqKR3/Ps93bENPXspW2EQ8LnnxlmWGprUC8PU5XO/l4iiFw1plG4sJsDB7ZjXNeNL4rPJNOuCl7+4EOJ/Cm1izcGpXDVWv0IJbkdY71zSQL6uneReppETz3IzPX8MKrkkmFf2IVcmj4YMP6eMHnwtdeRcF+FxUsBwsTZkvT6vCAC5x2KmnndJM2scHvCsubmDRVpl1stRWVxm9EHD4QFrxCQwaqvXy8p4leZ7N57pW7ubIOaGAThIyR20fyjdmXMM0qfyJEC4+5QUYh8vrBcg7prIkpVSY67le2UdXwzAsS92fByCsvc81vZInyCzsbCLCgGqfNkeVt+CeZnbkpTjoQo8ZNoIx08uV9KXLd1fmhqAlfGzivKwV6dlcHWhdY0FjlBEOczufmd8WCYsO9f5JN3/Tf3IAygbXr0UUWzLzwdiCZyI3D7MunsA5VL8kINomMGS0JJCxMIcTBpySURuUWiWLTpkgiSuYrlDntFCp64RGbB4yRm1rOVsFi2uAcha++Uu3lAyEFLuCwzpFIysKWTULJEru5DHbvRlqvM9xFhEbjaUSmE/YFsK7gKhrulGB5v1afIqxgYIXHjXRfc4EVgCU3U9NW8Pz8vNH7xht/0ORBQTGEB/TnxmbThFEPYB0O1FD9tCezYR0aAwmk+EuzeZslK5XYtzYSHkASU0uqjDKL59qyj5jj6idPN3bMeTHRwOHR4CYXWLCW4Tl6veAQM9gjPxspcKOFRw2Tr3ju4IA+xmh0wkISv6qNiU76rfzc0DWx5AasMFtuLDIi5CxEQTFIdnHGA0ZmzoTNT3rVh1R7+yRbnI8pAx1XyKRny1jUCSsjK4XOn73xfYqmsFlsAogKf4gjjQPR4lrnVpPfmeHh5fL3GrZyuB6h4sD+qhSPRnYQRWzWctiY0GU/k08bEJijnA1YI+t5Zxmcx3OYm1legUFWvHA2Re4dY4gUSTC39+ZjaBNY6tgrM7wzvhYKi4ER0zThBhmpWdgUIbWZuGOKbcpoKbIEPvZeY6XQatrYDEburxDxNIf4rGkUfajCMP2wLGhANBR/R0QQGjUobxSLT8RzPqat7MbP4AwV4TvIUrW1HOrty9GGw+RqOIe52loW6yzmD2CjvN+xvVxn27DWwOCnf7L6ye9h2/iZnKu7+MEPlrUxbUgZPIu6p9R5YQ+KPnm//NC2KYtg0qxfR8tvDX8MP5XnetMQZ329WC3xKRx/w2EFQnaGtmh0pwjdfnqHCMdZr1t9JjLd8bnMvu/VETvmPb2yqoV8E1yDJXbz3m7P1hyaJwYGcWyb/BHN0DJZ1PJpe5otBiCC8P+87rilRWIQ2BT5f3h7fNJyMSjkN3j+n+QfVxy2GAS2Ev4/6zh+ODIxWIDH7f8bnx83R00MPj9+mkw6+fz/4IvBJ4svBp8svhh8svhi8Mnii8Eniy8GHwXR/wABvkqZLAA7EgAAAABJRU5ErkJggg==;imageBorder=default;" vertex="1" parent="1">
          <mxGeometry x="860" y="281" width="131" height="48" as="geometry" />
        </mxCell>
        <mxCell id="NWOrLwlLgG2YIq6RtZkn-1" value="" style="shape=image;verticalLabelPosition=bottom;labelBackgroundColor=default;verticalAlign=top;aspect=fixed;imageAspect=0;image=data:image/png,iVBORw0KGgoAAAANSUhEUgAAAH8AAAAzCAYAAAC+J9cEAAAAAXNSR0IArs4c6QAAAARnQU1BAACxjwv8YQUAAAAJcEhZcwAADsMAAA7DAcdvqGQAAAtxSURBVHhe7Zx7cFTVHcd/2byfJCE8ElBRyitUGGGgDh2Z1oJt7YNpEf9AbaudVlrGSgfbUmwrVLQtDlRggkW0opW2VqxiKbRIi6OtChSZiiLKUBAS8iIJCXlns/R+zu5Nlpt77r3ZPAjZ/c6c2dy7957zO7/X+f1+52ziLhiQGKISvtBn1KP4TJu0tESXHUSl5Z+rbZcTH7XK8RMtcvj9Fjl+0i+15wOyZUO+DM1NCD01+BFVwt+2/Zz8ZXeDtLeLxMcbbs/we/FGS0iIk/qGC7Lu4RFRJfyocvvlle2SaMg2Iz1OUlPiJDkpTgk+WnHJhV9V7ZdD7zTJ1udrDOsLhO7G0B/oV7dPQHWquFWO/a9F3v+wxfhsU+5Wfdd6QTb/Ol+yhxj+uI9Q9ESVHDrcbGvtMbffx/j7P+tk+UOV8vzL5w3ht6p7uGBaWmr/u1+//4JSOgRPwBdt6FfhY3EI+VKutc0tQSsHY65MlC/MSZel382V320siCqrB/3q9l/eVSsv7qxXwreiqRm3O7JP3f4re89LcnKcXDMmWUYXJIbuRi+iKtqf++lMmT0rIyb4ECKyfIoklWf9UnOu3XCjAUlJ9kmq4c5zshOU5Wak2+tUf1o+WQR9QktfehPAWKeK2+R8fbtkZsTLsLyEXlMwguTKKr/iN/3D65zseMkfmajls1d4Fj4C3/PqeXnjQJNU1QQ6CiUmuAaJxpyHDY2XqZOTZea0NBk3Njn4hQEn4QO7oK+xCaXIV+6alHDT0zVdnuOZhfOzlFXvP9gof3yxVirOBgM4ArrlS4bKdVNSZdOWKjnyQetFdJugj4fuH96x7q9aUyHVNaFJhSGcntfeqJcdu+vlTFnwOfo1+TA0xyefmZ0mn70xSz3bXVBu/uvuOiM7aemIUUy6Td6Pu8aIWeZmqrlFAk+qg9DuXV6mqmMQQoHELJSYzYzaEey52oDsea1RRfaHjzSFenEHjKV/azPR1mb/PQI+XdKmhLF+M/UCLL6THt4Dfr9IXX2gy/tmC0djY0DqjAzA+gze5L/vNinlePyZWjVXc6xwPkDTCzvqDb6VyrHjRpTZDVDzWPbzCjlwqFldh/dvjsHnyVNtsmZjtaIlkhqJq/DJjf+0vb5jYEqibuAZmK6zcCfwbnizAo23PsM4+99ulmeeq1WMCX/PauWUc63vhz8fDp8v2Fd4gwePbalRjLeOZQXPBgyZrHzkrPJabsDFL3+wTHa/2qj6dsuI+J7noOW+n5Up79wdOJAerIW/+Z9mNcBAB5bWX+kjyuZ1LJQD/mGhuHInrFxdLqUV7UppugNooWbxwC8rQne8QSt8gpiXdjVcFoK/HECcsnbj2dBVVxCPlBixQyTeEqAALGn04xVa4e99vV4Fbzrgzlj/zHUQy0P7uB8peJc+whv99gRmANZXgD6zOQEPQKBMrcEKYoLX32rWWjx9w2MUA57wtx34nn7cPIwJrfD3G8FGosa1IaT8EfHyzduGqOrY4rtyZOFXs2TGdSnKU6AQ3RUafV45OkHGj026qBWO717KRD/m+L2hPDqYwphjRPTMnUohcBoP4b6wo6vwn3up1kjhQhcWMBfGIA1e94t8KVpdoPiuUwD6IUvwAm2qd+c9JY4u6DdrCkJ/dQVLxr/3Nahod8nduR2piFue//jaAse0iDSu6Lc1jhaSM8Qnd9yarVJM8mAzCubv7mzsEHidrQ7YBnSM85WbM+TLnx8SutOJNUWV8u7RVi3vGOeBH+R1pMDw6t7l5bbLKzyZ/0X7cciifrW+2vY9xnhynTMvgdbye+K+YSAEP1006qI83w1NzZEPipVPGpcka1flK2UzCyB89rQYYgWCtRMIWLp4mFJAHf9YSve/3Ri6EtlnKLRuec3O8mnHubYwVSaOS1TztsORD4JpohO0XHFKYdB8NNxLbtnbjNehzcjh534qI3TVt3AzjO/cmat1/yyl7x3tzPv3HWxS6acVCHXmtJTQlT2mTUlR87YCZeqR8MeO0WsVms+W7KKlpUoJvOSw/QGzmNPXcDIMgLfTuX3ePVXSGYVyushuGWo3FGx4nvMu4xWj7F0GynTCyP3doJ3GTYYVsf2pAwSz3qAEj26qltsXlag0w2ukOdgxfWqy1njwCnhNijJOkfuz2+pkwV3F2saabxf/IJviMzYuwQKt8GdOTzOsP0HrvkwwEASgCJQjv/+TclVuJJCJZmCVWK8dECyCRwGcUlH4yh6BrtkFeybc5AYcHdjKZSPUJo1OO61AESCKcuOi+8pUdB6tINZxiw2amtxjpkjhJWB3FD5YvWKksQSkqQKFF20CphI8UlTdrY2dwQa32CA11ZX9fQpPo9+2IEee2lCgig14AfJI3XoWDhRgw+aaQfdLGC9zd9tk0dUqrGCsSJoXeFY93BhKQO5OVW/S+CSlBG7egG3afQcbQlfRg6PHWm1TOADPMtKDh16su47hyMr0KT5H0iZPSAr1okePzvARsGzfWSu7/hHcgrQDWggxFD96epLHqcLH+5SZCVR16K0KH3N6Yt2o0JU9vr64xNG6zQrpoqVn1KcVjEG5/O5vDA3d6X30aNExvcG3v6avNbMnzqEINxD1trdHrIcDChwq0QGhji7ozN9HDIu3ddMoKKd4+hJa4WMlWKqXKt60qXprA16yBdzf8RPBs/yXM+DXU3+o1Vo96d+Uws6S9/SpKdqUEL5xpqK78BpjOVo+J3juWVYadJfvNGkV4c39+jU9ELig1i43wKyt22q71Ae8KN+lALUMa0GL6/tXlWt3Q0Gb8Uq4sXzyE+nqnh3gCWcqUAA3gcInlkWWK46ZeYF2zQ9fH3FLVPuoGZP346pGDk9QA54p88vJ036tphPckCWwPOAOn9yqtwpyU54fc0WCpKf5VMR87IRfnn1slNqhGihrPoAn1NXJaHJz4tXSxkFODm3o3mF+ebk+efinI0N3gli9vlI+PN5qSxeAJ8RJ105KlquvSuxQLjbCSsv98tHpNnUCiP5ZPr/3LWc+mHA3SQMQRUAXrEwFVEl3778aVUWvtNz52BFazSleMHmi4eIcMiCYRl/0CTNgvl1wOBAAT6AVpTlV7Fd8gUdOuT2Zz4J5XXfpFt6S7VhKN3mA4vJTN8q+v/9znQqekYHJJ+hh+UxM9MYzT8IPB5Nj4mZzmizWwbajua2LVVEytgtwwmGO4dT3QAE0ms0JJi/sjllzxv/WeRlKkZwAT0wh80nrCZ/6jL3KBRmN7c1w3L7AWcsHI8xS65JFecE/bMC+/Q3Xp3gKjnsLjsK32yv2AtYotPHBH3f+CMIEXmDh/ExXLR/oYI5egMUT9K740XCVGjuBnP5LN6Ur3rh5Rx1YWrxubWupmT0rTQVeEII2BicR+tIGfMdztOCZs3ztT5ZunpvVURuAiXb9co8xrT+dZnK8Y23c9wK8jt37NK/A3XJuT0e/STu84xziow68sOKWednqmNeo/CDv6d9JEfiOZ0xjumNBpkz9uLdf8LhW+Ei93jvarP6ZAlFl9bnODR4myb85IZWD2CmFKTLDCO68/jaObOFve+rUYdHKqmC0iscgmiV4mvCxJJk1M00dWQKkUm8daJAkg/lWtBo0XT8j3ZHJZAtlFfZ5Fe9/bk5Wh3W6RftU6HT0Z2X4pHBCktx4Q0a3jrFZYc6XfxrFoQ9T0UwesfYPy4uXiQafEHh3x4qovMukTW1MTfFF9Fs0K8hjSV0IYJhYb/TZE3gRfjhMnkC/m3uPFL3N94ioZHJYN623hEQ/9Effl1rwkcDkSV8JHvQ23/uO0hgGPGLCj2LEhB/FiAk/ihETvkeE59NmTn25o0cneQYzfriirOPfrYAphUkycVySXH0VLfg7wMsdMeFrsPOVOskfkaiETWo1GBETfhQjtuZHLUT+D1m2m/3R318dAAAAAElFTkSuQmCC;labelBorderColor=none;imageBorder=default;perimeterSpacing=0;" vertex="1" parent="1">
          <mxGeometry x="870" y="624.5" width="127" height="51" as="geometry" />
        </mxCell>
      </root>
    </mxGraphModel>
  </diagram>
  <diagram id="zZOabzO7plw1EcQfKzSp" name="Page-3">
    <mxGraphModel dx="1341" dy="802" grid="1" gridSize="10" guides="1" tooltips="1" connect="1" arrows="1" fold="1" page="1" pageScale="1" pageWidth="1100" pageHeight="850" math="0" shadow="0">
      <root>
        <mxCell id="0" />
        <mxCell id="1" parent="0" />
        <mxCell id="nq_hCXWuUxoj5oQuRubP-1" value="Beltelecom" style="fontColor=#0066CC;verticalAlign=top;verticalLabelPosition=bottom;labelPosition=center;align=center;html=1;outlineConnect=0;fillColor=#CCCCCC;strokeColor=#6881B3;gradientColor=none;gradientDirection=north;strokeWidth=2;shape=mxgraph.networks.modem;fontSize=14;" vertex="1" parent="1">
          <mxGeometry x="510" y="90" width="100" height="30" as="geometry" />
        </mxCell>
        <mxCell id="nq_hCXWuUxoj5oQuRubP-3" style="edgeStyle=orthogonalEdgeStyle;rounded=1;orthogonalLoop=1;jettySize=auto;html=1;fontSize=14;startArrow=none;startFill=0;endArrow=block;endFill=1;" edge="1" parent="1" source="nq_hCXWuUxoj5oQuRubP-1" target="nq_hCXWuUxoj5oQuRubP-2">
          <mxGeometry relative="1" as="geometry">
            <Array as="points">
              <mxPoint x="600" y="290" />
            </Array>
          </mxGeometry>
        </mxCell>
        <mxCell id="nq_hCXWuUxoj5oQuRubP-19" style="edgeStyle=orthogonalEdgeStyle;rounded=1;orthogonalLoop=1;jettySize=auto;html=1;entryX=0;entryY=0.5;entryDx=0;entryDy=0;entryPerimeter=0;fontSize=14;startArrow=classic;startFill=1;exitX=0.25;exitY=1;exitDx=0;exitDy=0;" edge="1" parent="1" source="nq_hCXWuUxoj5oQuRubP-28" target="nq_hCXWuUxoj5oQuRubP-18">
          <mxGeometry relative="1" as="geometry">
            <Array as="points">
              <mxPoint x="800" y="175" />
            </Array>
          </mxGeometry>
        </mxCell>
        <mxCell id="nq_hCXWuUxoj5oQuRubP-29" value="grey" style="edgeStyle=orthogonalEdgeStyle;rounded=1;orthogonalLoop=1;jettySize=auto;html=1;entryX=0;entryY=0.5;entryDx=0;entryDy=0;fontSize=14;startArrow=classic;startFill=1;" edge="1" parent="1" source="nq_hCXWuUxoj5oQuRubP-2" target="nq_hCXWuUxoj5oQuRubP-28">
          <mxGeometry relative="1" as="geometry">
            <Array as="points">
              <mxPoint x="700" y="90" />
              <mxPoint x="740" y="90" />
              <mxPoint x="740" y="95" />
            </Array>
          </mxGeometry>
        </mxCell>
        <mxCell id="nq_hCXWuUxoj5oQuRubP-36" style="edgeStyle=orthogonalEdgeStyle;rounded=1;orthogonalLoop=1;jettySize=auto;html=1;fontSize=14;startArrow=none;startFill=0;endArrow=block;endFill=1;" edge="1" parent="1" source="nq_hCXWuUxoj5oQuRubP-2" target="nq_hCXWuUxoj5oQuRubP-35">
          <mxGeometry relative="1" as="geometry">
            <Array as="points">
              <mxPoint x="670" y="500" />
            </Array>
          </mxGeometry>
        </mxCell>
        <mxCell id="nq_hCXWuUxoj5oQuRubP-2" value="Mikrotik + WiFi&lt;br&gt;Guest Net" style="fontColor=#0066CC;verticalAlign=top;verticalLabelPosition=bottom;labelPosition=center;align=center;html=1;outlineConnect=0;fillColor=#CCCCCC;strokeColor=#6881B3;gradientColor=none;gradientDirection=north;strokeWidth=2;shape=mxgraph.networks.wireless_modem;fontSize=14;" vertex="1" parent="1">
          <mxGeometry x="660" y="220" width="100" height="85" as="geometry" />
        </mxCell>
        <mxCell id="nq_hCXWuUxoj5oQuRubP-5" value="с хомутиком" style="edgeStyle=orthogonalEdgeStyle;rounded=1;orthogonalLoop=1;jettySize=auto;html=1;fontSize=14;startArrow=none;startFill=0;exitX=0.16;exitY=1.033;exitDx=0;exitDy=0;exitPerimeter=0;" edge="1" parent="1" source="nq_hCXWuUxoj5oQuRubP-1" target="nq_hCXWuUxoj5oQuRubP-4">
          <mxGeometry relative="1" as="geometry">
            <Array as="points">
              <mxPoint x="526" y="290" />
            </Array>
          </mxGeometry>
        </mxCell>
        <mxCell id="nq_hCXWuUxoj5oQuRubP-4" value="Keenetik WiFi&lt;br&gt;FLAT149" style="fontColor=#0066CC;verticalAlign=top;verticalLabelPosition=bottom;labelPosition=center;align=center;html=1;outlineConnect=0;fillColor=#CCCCCC;strokeColor=#6881B3;gradientColor=none;gradientDirection=north;strokeWidth=2;shape=mxgraph.networks.wireless_modem;fontSize=14;" vertex="1" parent="1">
          <mxGeometry x="360" y="220" width="100" height="85" as="geometry" />
        </mxCell>
        <mxCell id="nq_hCXWuUxoj5oQuRubP-6" value="" style="image;html=1;image=img/lib/clip_art/computers/Laptop_128x128.png;fontSize=14;" vertex="1" parent="1">
          <mxGeometry x="200" y="465" width="80" height="80" as="geometry" />
        </mxCell>
        <mxCell id="nq_hCXWuUxoj5oQuRubP-7" value="" style="verticalLabelPosition=bottom;sketch=0;aspect=fixed;html=1;verticalAlign=top;strokeColor=none;align=center;outlineConnect=0;shape=mxgraph.citrix.cell_phone;fontSize=14;" vertex="1" parent="1">
          <mxGeometry x="50" y="470" width="25" height="60" as="geometry" />
        </mxCell>
        <mxCell id="nq_hCXWuUxoj5oQuRubP-8" value="" style="verticalLabelPosition=bottom;sketch=0;aspect=fixed;html=1;verticalAlign=top;strokeColor=none;align=center;outlineConnect=0;shape=mxgraph.citrix.cell_phone;fontSize=14;" vertex="1" parent="1">
          <mxGeometry x="40" y="365" width="25" height="60" as="geometry" />
        </mxCell>
        <mxCell id="nq_hCXWuUxoj5oQuRubP-9" value="" style="verticalLabelPosition=bottom;sketch=0;aspect=fixed;html=1;verticalAlign=top;strokeColor=none;align=center;outlineConnect=0;shape=mxgraph.citrix.cell_phone;fontSize=14;" vertex="1" parent="1">
          <mxGeometry x="40" y="270" width="25" height="60" as="geometry" />
        </mxCell>
        <mxCell id="nq_hCXWuUxoj5oQuRubP-10" value="Keenetik Wifi&lt;br&gt;ретранслятор FLAT149" style="fontColor=#0066CC;verticalAlign=top;verticalLabelPosition=bottom;labelPosition=center;align=center;html=1;outlineConnect=0;fillColor=#CCCCCC;strokeColor=#6881B3;gradientColor=none;gradientDirection=north;strokeWidth=2;shape=mxgraph.networks.wireless_modem;fontSize=14;" vertex="1" parent="1">
          <mxGeometry x="170" y="220" width="100" height="85" as="geometry" />
        </mxCell>
        <mxCell id="nq_hCXWuUxoj5oQuRubP-11" value="" style="sketch=0;pointerEvents=1;shadow=0;dashed=0;html=1;strokeColor=none;fillColor=#434445;aspect=fixed;labelPosition=center;verticalLabelPosition=bottom;verticalAlign=top;align=center;outlineConnect=0;shape=mxgraph.vvd.wi_fi;fontSize=14;" vertex="1" parent="1">
          <mxGeometry x="290" y="250" width="50" height="50" as="geometry" />
        </mxCell>
        <mxCell id="nq_hCXWuUxoj5oQuRubP-12" value="" style="sketch=0;pointerEvents=1;shadow=0;dashed=0;html=1;strokeColor=none;fillColor=#434445;aspect=fixed;labelPosition=center;verticalLabelPosition=bottom;verticalAlign=top;align=center;outlineConnect=0;shape=mxgraph.vvd.wi_fi;fontSize=14;" vertex="1" parent="1">
          <mxGeometry x="90" y="275" width="50" height="50" as="geometry" />
        </mxCell>
        <mxCell id="nq_hCXWuUxoj5oQuRubP-13" value="" style="sketch=0;pointerEvents=1;shadow=0;dashed=0;html=1;strokeColor=none;fillColor=#434445;aspect=fixed;labelPosition=center;verticalLabelPosition=bottom;verticalAlign=top;align=center;outlineConnect=0;shape=mxgraph.vvd.wi_fi;fontSize=14;" vertex="1" parent="1">
          <mxGeometry x="80" y="375" width="50" height="50" as="geometry" />
        </mxCell>
        <mxCell id="nq_hCXWuUxoj5oQuRubP-14" value="" style="sketch=0;pointerEvents=1;shadow=0;dashed=0;html=1;strokeColor=none;fillColor=#434445;aspect=fixed;labelPosition=center;verticalLabelPosition=bottom;verticalAlign=top;align=center;outlineConnect=0;shape=mxgraph.vvd.wi_fi;fontSize=14;" vertex="1" parent="1">
          <mxGeometry x="90" y="480" width="50" height="50" as="geometry" />
        </mxCell>
        <mxCell id="nq_hCXWuUxoj5oQuRubP-15" value="" style="sketch=0;pointerEvents=1;shadow=0;dashed=0;html=1;strokeColor=none;fillColor=#434445;aspect=fixed;labelPosition=center;verticalLabelPosition=bottom;verticalAlign=top;align=center;outlineConnect=0;shape=mxgraph.vvd.wi_fi;fontSize=14;" vertex="1" parent="1">
          <mxGeometry x="200" y="410" width="50" height="50" as="geometry" />
        </mxCell>
        <mxCell id="nq_hCXWuUxoj5oQuRubP-17" value="" style="sketch=0;pointerEvents=1;shadow=0;dashed=0;html=1;strokeColor=none;fillColor=#434445;aspect=fixed;labelPosition=center;verticalLabelPosition=bottom;verticalAlign=top;align=center;outlineConnect=0;shape=mxgraph.vvd.wi_fi;fontSize=14;" vertex="1" parent="1">
          <mxGeometry x="780" y="260" width="50" height="50" as="geometry" />
        </mxCell>
        <mxCell id="nq_hCXWuUxoj5oQuRubP-18" value="" style="sketch=0;points=[[0.015,0.015,0],[0.985,0.015,0],[0.985,0.985,0],[0.015,0.985,0],[0.25,0,0],[0.5,0,0],[0.75,0,0],[1,0.25,0],[1,0.5,0],[1,0.75,0],[0.75,1,0],[0.5,1,0],[0.25,1,0],[0,0.75,0],[0,0.5,0],[0,0.25,0]];verticalLabelPosition=bottom;html=1;verticalAlign=top;aspect=fixed;align=center;pointerEvents=1;shape=mxgraph.cisco19.rect;prIcon=video_call_server;fillColor=#FAFAFA;strokeColor=#005073;fontSize=14;" vertex="1" parent="1">
          <mxGeometry x="990" y="150" width="50" height="50" as="geometry" />
        </mxCell>
        <mxCell id="nq_hCXWuUxoj5oQuRubP-21" value="" style="html=1;verticalLabelPosition=bottom;align=center;labelBackgroundColor=#ffffff;verticalAlign=top;strokeWidth=2;strokeColor=#0080F0;shadow=0;dashed=0;shape=mxgraph.ios7.icons.video_conversation;fontSize=14;" vertex="1" parent="1">
          <mxGeometry x="1000" y="68" width="30" height="15" as="geometry" />
        </mxCell>
        <mxCell id="nq_hCXWuUxoj5oQuRubP-31" style="edgeStyle=orthogonalEdgeStyle;rounded=1;orthogonalLoop=1;jettySize=auto;html=1;exitX=1;exitY=0.75;exitDx=0;exitDy=0;fontSize=14;startArrow=classic;startFill=1;" edge="1" parent="1" source="nq_hCXWuUxoj5oQuRubP-28" target="nq_hCXWuUxoj5oQuRubP-30">
          <mxGeometry relative="1" as="geometry" />
        </mxCell>
        <mxCell id="nq_hCXWuUxoj5oQuRubP-32" style="edgeStyle=orthogonalEdgeStyle;rounded=1;orthogonalLoop=1;jettySize=auto;html=1;exitX=1;exitY=0.25;exitDx=0;exitDy=0;entryX=-0.033;entryY=0.467;entryDx=0;entryDy=0;entryPerimeter=0;fontSize=14;startArrow=classic;startFill=1;" edge="1" parent="1" source="nq_hCXWuUxoj5oQuRubP-28" target="nq_hCXWuUxoj5oQuRubP-21">
          <mxGeometry relative="1" as="geometry" />
        </mxCell>
        <mxCell id="nq_hCXWuUxoj5oQuRubP-28" value="" style="image;html=1;image=img/lib/clip_art/networking/Switch_128x128.png;fontSize=14;" vertex="1" parent="1">
          <mxGeometry x="780" y="55" width="80" height="80" as="geometry" />
        </mxCell>
        <mxCell id="nq_hCXWuUxoj5oQuRubP-30" value="" style="html=1;verticalLabelPosition=bottom;align=center;labelBackgroundColor=#ffffff;verticalAlign=top;strokeWidth=2;strokeColor=#0080F0;shadow=0;dashed=0;shape=mxgraph.ios7.icons.video_conversation;fontSize=14;" vertex="1" parent="1">
          <mxGeometry x="1000" y="107.5" width="30" height="15" as="geometry" />
        </mxCell>
        <mxCell id="nq_hCXWuUxoj5oQuRubP-34" style="edgeStyle=orthogonalEdgeStyle;rounded=1;orthogonalLoop=1;jettySize=auto;html=1;exitX=1;exitY=0.5;exitDx=0;exitDy=0;fontSize=14;startArrow=none;startFill=0;endArrow=block;endFill=1;" edge="1" parent="1" source="nq_hCXWuUxoj5oQuRubP-33" target="nq_hCXWuUxoj5oQuRubP-1">
          <mxGeometry relative="1" as="geometry" />
        </mxCell>
        <mxCell id="nq_hCXWuUxoj5oQuRubP-33" value="" style="aspect=fixed;perimeter=ellipsePerimeter;html=1;align=center;shadow=0;dashed=0;spacingTop=3;image;image=img/lib/active_directory/internet_globe.svg;fontSize=14;" vertex="1" parent="1">
          <mxGeometry x="360" y="50" width="110" height="110" as="geometry" />
        </mxCell>
        <mxCell id="nq_hCXWuUxoj5oQuRubP-37" style="edgeStyle=orthogonalEdgeStyle;rounded=1;orthogonalLoop=1;jettySize=auto;html=1;fontSize=14;startArrow=none;startFill=0;endArrow=block;endFill=1;" edge="1" parent="1" source="nq_hCXWuUxoj5oQuRubP-2" target="nq_hCXWuUxoj5oQuRubP-35">
          <mxGeometry relative="1" as="geometry">
            <Array as="points">
              <mxPoint x="710" y="450" />
            </Array>
          </mxGeometry>
        </mxCell>
        <mxCell id="nq_hCXWuUxoj5oQuRubP-35" value="" style="html=1;verticalLabelPosition=bottom;align=center;labelBackgroundColor=#ffffff;verticalAlign=top;strokeWidth=2;strokeColor=#0080F0;shadow=0;dashed=0;shape=mxgraph.ios7.icons.home;fontSize=14;" vertex="1" parent="1">
          <mxGeometry x="850" y="365" width="144" height="160" as="geometry" />
        </mxCell>
        <mxCell id="nq_hCXWuUxoj5oQuRubP-39" value="" style="outlineConnect=0;dashed=0;verticalLabelPosition=bottom;verticalAlign=top;align=center;html=1;shape=mxgraph.aws3.fire_tv;fillColor=#5294CF;gradientColor=none;fontSize=14;" vertex="1" parent="1">
          <mxGeometry x="320" y="440" width="180" height="100" as="geometry" />
        </mxCell>
        <mxCell id="nq_hCXWuUxoj5oQuRubP-40" value="" style="sketch=0;pointerEvents=1;shadow=0;dashed=0;html=1;strokeColor=none;fillColor=#434445;aspect=fixed;labelPosition=center;verticalLabelPosition=bottom;verticalAlign=top;align=center;outlineConnect=0;shape=mxgraph.vvd.wi_fi;fontSize=14;" vertex="1" parent="1">
          <mxGeometry x="380" y="375" width="50" height="50" as="geometry" />
        </mxCell>
      </root>
    </mxGraphModel>
  </diagram>
</mxfile>
